<svg width="346" height="138" viewBox="0 0 346 138" fill="none" xmlns="http://www.w3.org/2000/svg">
<path d="M0 109.73V93.7359L62.6688 4.09165H88.4078V91.3181H105.754V109.73H88.4078V138H67.5182V109.73H0ZM68.4507 25.6658L24.4334 91.3181H68.4507V25.6658Z" fill="white"/>
<path d="M123.372 68.442C123.372 46.9919 126.978 30.2534 134.19 18.2264C141.526 6.07547 154.085 0 171.866 0C189.647 0 202.143 6.07547 209.355 18.2264C216.691 30.2534 220.359 46.9919 220.359 68.442C220.359 90.1402 216.691 107.127 209.355 119.402C202.143 131.553 189.647 137.628 171.866 137.628C154.085 137.628 141.526 131.553 134.19 119.402C126.978 107.127 123.372 90.1402 123.372 68.442ZM199.47 68.442C199.47 58.3989 198.786 49.9057 197.418 42.9623C196.175 36.0189 193.563 30.3774 189.584 26.0377C185.605 21.5741 179.699 19.3423 171.866 19.3423C164.032 19.3423 158.126 21.5741 154.147 26.0377C150.168 30.3774 147.494 36.0189 146.127 42.9623C144.883 49.9057 144.261 58.3989 144.261 68.442C144.261 78.8571 144.883 87.5984 146.127 94.6658C147.37 101.733 149.981 107.437 153.96 111.776C158.064 116.116 164.032 118.286 171.866 118.286C179.699 118.286 185.605 116.116 189.584 111.776C193.688 107.437 196.361 101.733 197.605 94.6658C198.848 87.5984 199.47 78.8571 199.47 68.442Z" fill="white"/>
<path d="M240.246 109.73V93.7359L302.915 4.09165H328.654V91.3181H346V109.73H328.654V138H307.765V109.73H240.246ZM308.697 25.6658L264.68 91.3181H308.697V25.6658Z" fill="white"/>
</svg>
