<svg width="24" height="24" viewBox="0 0 24 24" fill="none" xmlns="http://www.w3.org/2000/svg">
<path d="M4 14.1756V9.82445C4 8.89563 3.99939 8.17063 4.04688 7.58915C4.09484 7.00211 4.19465 6.51993 4.41636 6.08456C4.78224 5.36675 5.36583 4.78224 6.08364 4.41636C6.51901 4.19465 7.00211 4.09484 7.58915 4.04688C8.17063 3.99939 8.89563 4 9.82445 4C10.0843 4 10.295 4.21069 10.295 4.47059C10.295 4.73049 10.0843 4.94118 9.82445 4.94118C8.87991 4.94118 8.19977 4.94164 7.66544 4.98529C7.13655 5.02851 6.79174 5.11162 6.51103 5.2546C5.97014 5.53027 5.53027 5.97014 5.2546 6.51103C5.11162 6.79174 5.02851 7.13655 4.98529 7.66544C4.94164 8.19977 4.94118 8.87991 4.94118 9.82445V14.1756C4.94118 15.1201 4.94164 15.8002 4.98529 16.3346C5.02851 16.8635 5.11162 17.2083 5.2546 17.489C5.53027 18.0299 5.97014 18.4697 6.51103 18.7454C6.79174 18.8884 7.13655 18.9715 7.66544 19.0147C8.19977 19.0584 8.87991 19.0588 9.82445 19.0588H14.1756C15.1201 19.0588 15.8002 19.0584 16.3346 19.0147C16.8635 18.9715 17.2083 18.8884 17.489 18.7454C18.0299 18.4697 18.4697 18.0299 18.7454 17.489C18.8884 17.2083 18.9715 16.8635 19.0147 16.3346C19.0584 15.8002 19.0588 15.1201 19.0588 14.1756V13.2546C19.059 12.9948 19.2696 12.784 19.5294 12.784C19.7892 12.784 19.9998 12.9948 20 13.2546V14.1756C20 15.1044 20.0006 15.8294 19.9531 16.4108C19.9052 16.9979 19.8054 17.4801 19.5836 17.9154C19.2178 18.6332 18.6342 19.2178 17.9164 19.5836C17.481 19.8054 16.9979 19.9052 16.4108 19.9531C15.8294 20.0006 15.1044 20 14.1756 20H9.82445C8.89563 20 8.17063 20.0006 7.58915 19.9531C7.00211 19.9052 6.51993 19.8054 6.08456 19.5836C5.36675 19.2178 4.78224 18.6342 4.41636 17.9164C4.19465 17.481 4.09484 16.9979 4.04688 16.4108C3.99939 15.8294 4 15.1044 4 14.1756ZM20 10.1176C20 10.3775 19.7893 10.5882 19.5294 10.5882C19.2695 10.5882 19.0588 10.3775 19.0588 10.1176V5.60662L12.9605 11.705C12.7767 11.8887 12.4788 11.8887 12.295 11.705C12.1113 11.5212 12.1113 11.2233 12.295 11.0395L18.3934 4.94118H13.8824C13.6225 4.94118 13.4118 4.73049 13.4118 4.47059C13.4118 4.21069 13.6225 4 13.8824 4H19.5294C19.7893 4 20 4.21069 20 4.47059V10.1176Z" fill="#FAFAFA"/>
</svg>
