<svg width="16" height="16" viewBox="0 0 16 16" fill="none" xmlns="http://www.w3.org/2000/svg">
<path d="M12.9997 7.99992C12.9997 5.23849 10.7611 2.99992 7.99967 2.99992C5.23825 2.99992 2.99967 5.23849 2.99967 7.99992C2.99967 10.7613 5.23825 12.9999 7.99967 12.9999C10.7611 12.9999 12.9997 10.7613 12.9997 7.99992ZM7.8584 4.73625C9.37148 4.66948 10.1587 5.59438 10.432 6.15096C10.5131 6.31623 10.4449 6.51648 10.2796 6.59757C10.1144 6.67846 9.91471 6.60975 9.83366 6.44458C9.63652 6.04307 9.02919 5.30372 7.76595 5.41073C6.54161 5.51476 5.56524 6.66757 5.6748 8.22648C5.78242 9.75745 6.95228 10.6001 7.97689 10.6002C8.59897 10.6002 9.06643 10.3476 9.38379 10.0891C9.54259 9.9597 9.66193 9.83037 9.74056 9.73429C9.77973 9.68642 9.8083 9.64695 9.8265 9.62101C9.8354 9.60831 9.84162 9.59876 9.84538 9.59302C9.84726 9.59015 9.84875 9.58801 9.84928 9.58716L9.84993 9.58651C9.94662 9.4308 10.1512 9.38245 10.3076 9.47843C10.4446 9.56271 10.4991 9.73001 10.4463 9.87557L10.417 9.93677L10.415 9.93937C10.4143 9.94058 10.4135 9.94218 10.4124 9.94393C10.4102 9.94751 10.4071 9.95254 10.4033 9.95825C10.3959 9.96963 10.3853 9.98492 10.3721 10.0038C10.3454 10.0419 10.3068 10.0943 10.2562 10.1562C10.1552 10.2796 10.0047 10.4428 9.80436 10.606C9.40305 10.933 8.79213 11.2668 7.97689 11.2668C6.60641 11.2668 5.14194 10.1576 5.00944 8.27336C4.879 6.41734 6.05898 4.88624 7.70931 4.74601L7.8584 4.73625ZM13.6663 7.99992C13.6663 11.1295 11.1293 13.6666 7.99967 13.6666C4.87006 13.6666 2.33301 11.1295 2.33301 7.99992C2.33301 4.8703 4.87006 2.33325 7.99967 2.33325C11.1293 2.33325 13.6663 4.8703 13.6663 7.99992Z" fill="#FAFAFA"/>
</svg>
