<svg width="98" height="22" viewBox="0 0 98 22" fill="none" xmlns="http://www.w3.org/2000/svg">
<path fill-rule="evenodd" clip-rule="evenodd" d="M16.5489 7.37545L8.38422 21.5484C8.33938 21.6279 8.33938 21.7178 8.38422 21.7939C8.42906 21.8734 8.50839 21.9184 8.59808 21.9184H24.9239C25.0136 21.9184 25.0929 21.8734 25.1378 21.7939C25.1826 21.7144 25.1826 21.6245 25.1378 21.5484L23.5304 18.7581C22.9164 17.6931 21.8643 17.0846 20.6363 17.0846H16.949C16.8593 17.0846 16.78 17.0396 16.7351 16.9601C16.6903 16.8806 16.6903 16.7907 16.7351 16.7146L18.584 13.5059C19.1911 12.4444 19.1911 11.2342 18.584 10.1727L16.9731 7.37545C16.9283 7.29593 16.849 7.25098 16.7593 7.25098C16.6696 7.25098 16.5902 7.29593 16.5454 7.37545H16.5489Z" fill="#FAFAFA"/>
<path fill-rule="evenodd" clip-rule="evenodd" d="M6.34941 20.2515L14.4106 6.25145C15.0177 5.18995 15.0177 3.97631 14.4106 2.91826L12.7997 0.124476C12.7549 0.0449496 12.6755 0 12.5859 0C12.4962 0 12.4168 0.0449496 12.372 0.124476L0.0336313 21.5481C-0.0112104 21.6277 -0.0112104 21.7176 0.0336313 21.7936C0.078473 21.8731 0.157808 21.9181 0.247492 21.9181H3.4692C4.69027 21.9146 5.73543 21.3096 6.34941 20.2515Z" fill="#FAFAFA"/>
<path fill-rule="evenodd" clip-rule="evenodd" d="M16.7347 16.7214C16.6933 16.7975 16.6933 16.8874 16.7382 16.9635C16.783 17.043 16.8623 17.0879 16.952 17.0879H20.6394C21.8674 17.0879 22.9194 17.6965 23.5334 18.7615L25.1408 21.5518C25.1857 21.6313 25.1857 21.7212 25.1408 21.7973C25.096 21.8768 25.0166 21.9218 24.9269 21.9218H14.1684C14.0787 21.9218 13.9994 21.8768 13.9545 21.7973C13.9097 21.7178 13.9097 21.6279 13.9545 21.5518L16.7347 16.7249V16.7214Z" fill="#FAFAFA"/>
<path d="M31.1757 12.4707C31.1612 11.7215 31.3278 10.9799 31.6611 10.3091C31.9561 9.71111 32.4129 9.20819 32.9795 8.85767C33.5402 8.51646 34.1852 8.33971 34.8412 8.34753C35.3873 8.33508 35.9278 8.45992 36.4133 8.71063C36.837 8.93058 37.2059 9.24302 37.4929 9.62489V8.48057H39.5354V16.5188H37.4929V15.3435C37.2133 15.7378 36.843 16.059 36.4133 16.2797C35.9238 16.534 35.3785 16.6613 34.8272 16.6498C34.1741 16.6564 33.5329 16.4752 32.9795 16.1277C32.4131 15.7673 31.9569 15.2575 31.6611 14.6543C31.3272 13.9758 31.1608 13.227 31.1757 12.4707ZM37.4929 12.4997C37.505 12.0589 37.4054 11.6221 37.2033 11.2303C37.0233 10.8913 36.752 10.6096 36.4203 10.4171C36.0995 10.231 35.7353 10.1333 35.3646 10.134C34.9986 10.1312 34.6386 10.2265 34.3219 10.4101C33.9955 10.6011 33.7275 10.8778 33.5468 11.2103C33.3401 11.5958 33.2369 12.0283 33.2472 12.4657C33.2378 12.9074 33.3409 13.3443 33.5468 13.735C33.727 14.0793 33.9974 14.368 34.3288 14.5703C34.641 14.7603 34.9993 14.8606 35.3646 14.8603C35.7359 14.8614 36.1009 14.7637 36.4223 14.5773C36.754 14.3848 37.0253 14.1031 37.2053 13.764C37.4074 13.3722 37.507 12.9355 37.4949 12.4947L37.4929 12.4997Z" fill="#FAFAFA"/>
<path d="M42.0637 9.86271C42.3167 9.43722 42.6781 9.08674 43.1109 8.84718C43.5437 8.60761 44.0323 8.48756 44.5266 8.49932V10.6319H43.9913C43.3534 10.6319 42.8727 10.782 42.5491 11.082C42.2255 11.3821 42.0637 11.9046 42.0637 12.6495V16.6506H40.0352V8.61536H42.0637V9.86271Z" fill="#FAFAFA"/>
<path d="M47.0698 10.2808V14.1699C47.0698 14.4409 47.1357 14.636 47.2696 14.757C47.4034 14.8781 47.6201 14.9391 47.9288 14.9391H48.8706V16.6506H47.5912C45.882 16.6506 45.0273 15.817 45.0273 14.1499V6.62476H47.0698V8.61331H48.8676V10.2808H47.0698Z" fill="#FAFAFA"/>
<path d="M50.6169 7.65406C50.4532 7.65934 50.2901 7.63189 50.1372 7.57332C49.9842 7.51476 49.8444 7.42625 49.726 7.31297C49.6133 7.202 49.5238 7.06967 49.4627 6.92369C49.4016 6.77771 49.3701 6.62102 49.3701 6.46273C49.3701 6.30445 49.4016 6.14775 49.4627 6.00177C49.5238 5.8558 49.6133 5.72347 49.726 5.6125C49.9711 5.39275 50.2885 5.27124 50.6174 5.27124C50.9463 5.27124 51.2637 5.39275 51.5088 5.6125C51.6215 5.72347 51.711 5.8558 51.7721 6.00177C51.8332 6.14775 51.8647 6.30445 51.8647 6.46273C51.8647 6.62102 51.8332 6.77771 51.7721 6.92369C51.711 7.06967 51.6215 7.202 51.5088 7.31297C51.3902 7.42628 51.2502 7.5148 51.0971 7.57337C50.944 7.63193 50.7807 7.65936 50.6169 7.65406ZM51.6157 8.61233V16.6506H49.5882V8.61233H51.6157Z" fill="#FAFAFA"/>
<path d="M56.7399 10.2808H55.3346V16.6506H53.2771V10.2808H52.3643V8.61334H53.2771V8.20623C53.2771 7.21995 53.5571 6.49441 54.1171 6.02962C54.6771 5.56482 55.5224 5.34809 56.653 5.37943V7.08991C56.1609 7.07991 55.818 7.16193 55.6242 7.33598C55.4305 7.51003 55.3339 7.82478 55.3346 8.28025V8.61434H56.7399V10.2808Z" fill="#FAFAFA"/>
<path d="M58.487 7.65406C58.3233 7.65934 58.1602 7.63189 58.0073 7.57332C57.8543 7.51476 57.7145 7.42625 57.5961 7.31297C57.4834 7.202 57.3939 7.06967 57.3328 6.92369C57.2717 6.77771 57.2402 6.62102 57.2402 6.46273C57.2402 6.30445 57.2717 6.14775 57.3328 6.00177C57.3939 5.8558 57.4834 5.72347 57.5961 5.6125C57.8412 5.39275 58.1586 5.27124 58.4875 5.27124C58.8165 5.27124 59.1338 5.39275 59.3789 5.6125C59.4916 5.72347 59.5811 5.8558 59.6422 6.00177C59.7033 6.14775 59.7348 6.30445 59.7348 6.46273C59.7348 6.62102 59.7033 6.77771 59.6422 6.92369C59.5811 7.06967 59.4916 7.202 59.3789 7.31297C59.2603 7.42628 59.1203 7.5148 58.9672 7.57337C58.8141 7.63193 58.6508 7.65936 58.487 7.65406ZM59.4858 8.61233V16.6506H57.4583V8.61233H59.4858Z" fill="#FAFAFA"/>
<path d="M61.5527 5.9126V16.6506H60.2344V5.9126H61.5527Z" fill="#FAFAFA"/>
<path d="M62.0538 12.5147C62.0378 11.7713 62.207 11.0356 62.5462 10.3741C62.8549 9.7814 63.3234 9.28723 63.8985 8.94772C64.4804 8.60678 65.144 8.43111 65.8181 8.43957C66.4511 8.42375 67.0767 8.57925 67.6289 8.8897C68.1064 9.15506 68.5023 9.54631 68.7735 10.021V8.56761H70.1068V16.5188H68.7735V15.0394C68.4949 15.5213 68.0924 15.9196 67.6079 16.1927C67.0596 16.5054 66.4369 16.6634 65.8061 16.6499C65.1327 16.6586 64.4703 16.4777 63.8945 16.1277C63.3186 15.7733 62.8519 15.2661 62.5462 14.6623C62.2099 13.9973 62.0408 13.2601 62.0538 12.5147ZM68.7765 12.5287C68.7897 11.9841 68.6654 11.4449 68.4149 10.9613C68.1911 10.5355 67.8523 10.1812 67.4371 9.93899C67.0247 9.70685 66.5599 9.58425 66.0868 9.58285C65.6138 9.58145 65.1482 9.7013 64.7345 9.93099C64.3216 10.1713 63.9851 10.5236 63.7637 10.9473C63.5128 11.4308 63.388 11.97 63.4011 12.5147C63.3875 13.0662 63.5122 13.6123 63.7637 14.1032C63.9844 14.531 64.3208 14.888 64.7345 15.1334C65.1433 15.3716 65.6089 15.4946 66.0818 15.4895C66.5572 15.494 67.0251 15.371 67.4371 15.1334C67.854 14.8897 68.193 14.5324 68.4149 14.1032C68.6649 13.6168 68.7892 13.0755 68.7765 12.5287Z" fill="#FAFAFA"/>
<path d="M71.9258 10.048C72.2101 9.56083 72.6208 9.15988 73.1143 8.88763C73.6578 8.58185 74.2728 8.42649 74.8961 8.4375C75.5718 8.4282 76.2372 8.60464 76.8198 8.94764C77.3931 9.28908 77.8597 9.78416 78.1671 10.377C78.507 11.0383 78.6766 11.7741 78.6605 12.5176C78.6736 13.2631 78.5042 14.0005 78.1671 14.6652C77.8617 15.2704 77.3926 15.7773 76.8134 16.1282C76.2341 16.4791 75.568 16.6599 74.8911 16.6498C74.2605 16.6639 73.6377 16.5084 73.0874 16.1997C72.6028 15.9293 72.2012 15.5315 71.9258 15.0493V16.5148H70.6074V5.78076H71.9258V10.048ZM77.3191 12.5156C77.3322 11.9709 77.2075 11.4317 76.9566 10.9482C76.734 10.523 76.3948 10.1704 75.9788 9.93192C75.5652 9.69914 75.0979 9.57911 74.6235 9.58382C74.153 9.58072 73.6902 9.70367 73.2831 9.93992C72.8651 10.1844 72.524 10.5413 72.2983 10.9702C72.0444 11.45 71.9172 11.9868 71.9288 12.5296C71.9162 13.0774 72.0434 13.6193 72.2983 14.1041C72.524 14.533 72.8651 14.8899 73.2831 15.1344C73.6902 15.3706 74.153 15.4936 74.6235 15.4905C75.0989 15.4949 75.5668 15.3719 75.9788 15.1344C76.3956 14.8907 76.7347 14.5334 76.9566 14.1041C77.2081 13.6133 77.3327 13.0671 77.3191 12.5156Z" fill="#FAFAFA"/>
<path d="M82.4071 16.64C81.8459 16.6492 81.2888 16.543 80.7701 16.3279C80.3185 16.1442 79.9236 15.844 79.6256 15.4577C79.3454 15.086 79.1836 14.6385 79.1611 14.1733H80.5234C80.5409 14.3661 80.5999 14.5529 80.6963 14.7207C80.7926 14.8886 80.9242 15.0335 81.0818 15.1456C81.4147 15.397 81.8515 15.5227 82.3921 15.5227C82.8942 15.5227 83.2904 15.4113 83.5807 15.1886C83.7157 15.0941 83.8257 14.9681 83.9014 14.8216C83.9771 14.6751 84.0161 14.5123 84.0151 14.3474C84.0211 14.187 83.9805 14.0283 83.8982 13.8905C83.816 13.7528 83.6956 13.6418 83.5517 13.5712C83.2428 13.4018 82.7647 13.2351 82.1175 13.071C81.6261 12.9488 81.1441 12.7913 80.6753 12.5999C80.3054 12.4411 79.978 12.1975 79.7194 11.8887C79.4531 11.5746 79.3199 11.1612 79.3199 10.6483C79.3184 10.2467 79.4455 9.85507 79.6825 9.53104C79.9468 9.176 80.3023 8.89944 80.7112 8.73081C81.1913 8.52396 81.7098 8.42167 82.2323 8.43073C83.1113 8.43073 83.821 8.65346 84.3617 9.09891C84.9024 9.54437 85.1923 10.1535 85.2316 10.9264H83.9123C83.9042 10.7339 83.8555 10.5452 83.7694 10.3728C83.6834 10.2004 83.5619 10.0482 83.4129 9.92615C83.1093 9.67541 82.7011 9.54971 82.1884 9.54904C81.715 9.54904 81.3384 9.65073 81.0588 9.85412C80.9272 9.94137 80.8197 10.0604 80.7462 10.2003C80.6727 10.3402 80.6356 10.4963 80.6383 10.6543C80.6344 10.7735 80.6549 10.8923 80.6986 11.0032C80.7422 11.1142 80.808 11.215 80.892 11.2995C81.0741 11.4777 81.2911 11.6163 81.5292 11.7066C81.8785 11.838 82.2342 11.9515 82.5949 12.0467C83.0675 12.1695 83.5319 12.3222 83.9852 12.5039C84.341 12.6526 84.6563 12.884 84.905 13.1791C85.1614 13.4791 85.2946 13.8709 85.3045 14.3544C85.3091 14.7743 85.1827 15.1852 84.943 15.5297C84.6839 15.8918 84.3305 16.1755 83.9213 16.3499C83.4436 16.5568 82.9274 16.6591 82.4071 16.65V16.64Z" fill="#FAFAFA"/>
</svg>
