<svg width="684" height="684" viewBox="0 0 684 684" fill="none" xmlns="http://www.w3.org/2000/svg">
<path fill-rule="evenodd" clip-rule="evenodd" d="M341.808 0C530.558 0 683.615 153.02 683.615 341.725C683.615 530.43 589.24 616.314 457.054 663.491C436.788 629.923 436.788 597.565 436.788 571.558V540.107C436.788 535.873 433.158 532.244 428.923 532.244H363.889C359.654 532.244 356.024 535.873 356.024 540.107V675.89C356.024 679.821 353 683.147 349.37 683.752H334.246C330.616 683.147 327.591 680.123 327.591 675.89V540.107C327.591 535.873 323.961 532.244 320.029 532.244H254.692C250.457 532.244 246.827 535.873 246.827 540.107V576.094C246.827 599.682 245.92 631.435 226.561 663.491C94.6777 616.314 0 490.209 0 341.725C0 193.241 153.057 0 341.808 0ZM335.758 107.054H298.25C295.225 107.054 292.503 108.566 291.293 111.287L270.724 152.718H412.589L391.718 111.287C390.508 108.566 387.785 107.054 384.76 107.054H335.455H335.758ZM211.739 275.497H471.876C480.346 275.497 487.605 282.452 487.605 290.92V300.295C487.605 308.762 480.648 315.717 471.876 315.717H467.944C464.919 315.717 462.197 317.23 460.987 319.951L452.517 336.886C451.307 339.608 448.585 340.818 445.56 340.818H238.358C235.333 340.818 232.611 339.608 231.401 336.886L222.931 319.951C221.721 317.23 219.301 315.717 215.974 315.717H212.042C203.572 315.717 196.313 308.762 196.313 300.295V290.92C196.313 282.452 203.27 275.497 212.042 275.497H211.739ZM211.739 369.244H471.876C480.346 369.244 487.605 376.2 487.605 384.667V394.042C487.605 402.51 480.648 409.465 471.876 409.465H467.944C464.919 409.465 462.197 410.977 460.987 413.699L452.517 430.634C451.307 433.356 448.585 434.868 445.56 434.868H238.358C235.333 434.868 232.611 433.356 231.401 430.634L222.931 413.699C221.721 410.977 219.301 409.465 215.974 409.465H212.042C203.572 409.465 196.313 402.51 196.313 394.042V384.667C196.313 376.2 203.27 369.244 212.042 369.244H211.739ZM235.031 463.294H448.887C457.357 463.294 464.314 470.25 464.314 478.717V488.092C464.314 496.56 457.357 503.515 448.887 503.515H235.031C226.561 503.515 219.604 496.56 219.604 488.092V478.717C219.604 470.25 226.561 463.294 235.031 463.294ZM211.739 181.447H471.876C480.346 181.447 487.605 188.1 487.605 196.87V205.942C487.605 214.41 480.648 221.668 471.876 221.668H467.944C464.919 221.668 462.197 223.18 460.987 225.901L452.517 242.534C451.307 245.256 448.585 246.768 445.56 246.768H238.358C235.333 246.768 232.611 245.256 231.401 242.534L222.931 225.901C221.721 223.18 219.301 221.668 215.974 221.668H212.042C203.572 221.668 196.313 214.712 196.313 205.942V196.87C196.313 188.402 203.27 181.447 212.042 181.447H211.739Z" fill="url(#paint0_linear_160_5210)"/>
<defs>
<linearGradient id="paint0_linear_160_5210" x1="341.808" y1="-9.37475" x2="341.808" y2="683.752" gradientUnits="userSpaceOnUse">
<stop stop-color="#2BC399"/>
<stop offset="1" stop-color="#0087D0"/>
</linearGradient>
</defs>
</svg>
