<svg width="5845" height="4156" viewBox="0 0 5845 4156" fill="none" xmlns="http://www.w3.org/2000/svg">
<mask id="mask0_289_5260" style="mask-type:luminance" maskUnits="userSpaceOnUse" x="0" y="0" width="5844" height="4156">
<path d="M5844 0H0V4156H5844V0Z" fill="white"/>
</mask>
<g mask="url(#mask0_289_5260)">
<mask id="mask1_289_5260" style="mask-type:luminance" maskUnits="userSpaceOnUse" x="0" y="0" width="5844" height="4156">
<path d="M5844 0H0V4156H5844V0Z" fill="white"/>
</mask>
<g mask="url(#mask1_289_5260)">
<mask id="mask2_289_5260" style="mask-type:luminance" maskUnits="userSpaceOnUse" x="0" y="0" width="5844" height="4156">
<path d="M5844 0H0V4156H5844V0Z" fill="white"/>
</mask>
<g mask="url(#mask2_289_5260)">
<mask id="mask3_289_5260" style="mask-type:luminance" maskUnits="userSpaceOnUse" x="0" y="0" width="5844" height="4156">
<path d="M5844 0H0V4156H5844V0Z" fill="white"/>
</mask>
<g mask="url(#mask3_289_5260)">
<mask id="mask4_289_5260" style="mask-type:luminance" maskUnits="userSpaceOnUse" x="0" y="0" width="5844" height="4156">
<path d="M5844 0H0V4156H5844V0Z" fill="white"/>
</mask>
<g mask="url(#mask4_289_5260)">
<path d="M6096.95 -179.553H-252.576V4335.55H6096.95V-179.553Z" fill="#0F1D2A"/>
</g>
<mask id="mask5_289_5260" style="mask-type:luminance" maskUnits="userSpaceOnUse" x="0" y="0" width="5844" height="4156">
<path d="M5844 0H0V4156H5844V0Z" fill="white"/>
</mask>
<g mask="url(#mask5_289_5260)">
</g>
<mask id="mask6_289_5260" style="mask-type:luminance" maskUnits="userSpaceOnUse" x="0" y="0" width="5844" height="4156">
<path d="M5844 0H0V4156H5844V0Z" fill="white"/>
</mask>
<g mask="url(#mask6_289_5260)">
</g>
<mask id="mask7_289_5260" style="mask-type:luminance" maskUnits="userSpaceOnUse" x="0" y="0" width="5844" height="4156">
<path d="M5844 0H0V4156H5844V0Z" fill="white"/>
</mask>
<g mask="url(#mask7_289_5260)">
<g filter="url(#filter0_f_289_5260)">
<mask id="mask8_289_5260" style="mask-type:luminance" maskUnits="userSpaceOnUse" x="0" y="0" width="5844" height="4156">
<path d="M5844 0H0V4156H5844V0Z" fill="white"/>
</mask>
<g mask="url(#mask8_289_5260)">
<path opacity="0.4" d="M1792.09 705.916C2627.2 900.892 3396.74 662.526 3510.92 173.511C3625.09 -315.504 3040.66 -869.989 2205.55 -1064.96C1370.44 -1259.94 600.898 -1021.57 486.726 -532.56C372.553 -43.5447 956.987 510.94 1792.09 705.916Z" fill="url(#paint0_linear_289_5260)"/>
</g>
<mask id="mask9_289_5260" style="mask-type:luminance" maskUnits="userSpaceOnUse" x="0" y="0" width="5844" height="4156">
<path d="M5844 0H0V4156H5844V0Z" fill="white"/>
</mask>
<g mask="url(#mask9_289_5260)">
<path opacity="0.4" d="M3049 1243C3852.02 1243 4503 835.803 4503 333.5C4503 -168.803 3852.02 -576 3049 -576C2245.98 -576 1595 -168.803 1595 333.5C1595 835.803 2245.98 1243 3049 1243Z" fill="#13B0F9" fill-opacity="0.32"/>
</g>
<mask id="mask10_289_5260" style="mask-type:luminance" maskUnits="userSpaceOnUse" x="0" y="0" width="5844" height="4156">
<path d="M5844 0H0V4156H5844V0Z" fill="white"/>
</mask>
<g mask="url(#mask10_289_5260)">
<path opacity="0.4" d="M132.464 2911.84C850.69 3271 1578.06 3271.92 1757.1 2913.89C1936.14 2555.87 1499.04 1974.47 780.81 1615.32C62.5833 1256.16 -664.791 1255.24 -843.827 1613.26C-1022.86 1971.29 -585.762 2552.68 132.464 2911.84Z" fill="#13B0F9" fill-opacity="0.32"/>
</g>
<mask id="mask11_289_5260" style="mask-type:luminance" maskUnits="userSpaceOnUse" x="0" y="0" width="5844" height="4156">
<path d="M5844 0H0V4156H5844V0Z" fill="white"/>
</mask>
<g mask="url(#mask11_289_5260)">
<path opacity="0.4" d="M2203.94 3720.5C2540.42 3347.73 2297.13 2579.74 1660.53 2005.16C1023.94 1430.57 235.107 1266.97 -101.374 1639.74C-437.854 2012.51 -194.563 2780.49 442.031 3355.08C1078.63 3929.67 1867.46 4093.27 2203.94 3720.5Z" fill="url(#paint1_linear_289_5260)"/>
</g>
<mask id="mask12_289_5260" style="mask-type:luminance" maskUnits="userSpaceOnUse" x="0" y="0" width="5844" height="4156">
<path d="M5844 0H0V4156H5844V0Z" fill="white"/>
</mask>
<g mask="url(#mask12_289_5260)">
<path opacity="0.4" d="M5216.36 3252.74C5543.14 2658.6 5534.87 2026.71 5197.88 1841.38C4860.9 1656.05 4322.81 1987.46 3996.03 2581.6C3669.26 3175.74 3677.53 3807.63 4014.52 3992.96C4351.5 4178.29 4889.59 3846.88 5216.36 3252.74Z" fill="url(#paint2_linear_289_5260)"/>
</g>
<mask id="mask13_289_5260" style="mask-type:luminance" maskUnits="userSpaceOnUse" x="0" y="0" width="5844" height="4156">
<path d="M5844 0H0V4156H5844V0Z" fill="white"/>
</mask>
<g mask="url(#mask13_289_5260)">
<path opacity="0.4" d="M4964.23 3489.66C5291.01 2895.51 5320.29 2284.28 5029.64 2124.43C4738.99 1964.58 4238.46 2316.65 3911.68 2910.79C3584.91 3504.93 3555.62 4116.16 3846.27 4276.01C4136.93 4435.86 4637.45 4083.8 4964.23 3489.66Z" fill="#13B0F9"/>
</g>
</g>
<path fill-rule="evenodd" clip-rule="evenodd" d="M-137.383 -794.063H3991.35C4772.69 -794.063 5454.57 -540.234 6028.34 -36.3521C6093.96 21.2434 6192.79 18.0962 6254.64 -43.7482L7494.08 -1282.99C7542.39 -1331.46 7611.16 -1345.15 7674.42 -1318.87C7737.84 -1292.75 7776.71 -1234.37 7776.71 -1166.07V-407.733C7776.71 449.747 7471.1 1187.47 6864.91 1793.8L3945.4 4713.23C3897.09 4761.54 3828.32 4775.23 3765.06 4749.11C3701.64 4722.98 3662.77 4664.6 3662.77 4596.15V3837.65C3662.77 2980.33 3968.38 2242.6 4574.56 1636.12L4991.43 1219.26C5039.9 1170.95 5053.44 1102.18 5027.31 1038.92C5001.19 975.817 4942.81 936.634 4874.51 936.634H2483.29C1625.94 936.634 888.034 631.031 281.848 24.8628L-254.466 -511.593C-302.778 -559.904 -316.469 -628.673 -290.346 -691.933C-264.223 -755.351 -205.839 -794.22 -137.383 -794.22V-794.063ZM-457.63 1327.21L-194.823 4931.02C-132.662 5786.14 2668.98 6131.4 3497.21 6353.28L4229.77 6549.67C4295.86 6567.46 4362.43 6544.64 4403.98 6490.5C4445.52 6436.37 4450.08 6366.03 4415.94 6307.02L2351.57 2731.54C1922.89 1988.93 1289.33 1502.83 461.092 1280.95L-271.462 1084.56C-337.557 1066.93 -404.124 1089.59 -445.67 1143.73C-487.215 1198.17 -462.665 1259.23 -457.63 1327.21Z" fill="#101E2B"/>
</g>
<mask id="mask14_289_5260" style="mask-type:luminance" maskUnits="userSpaceOnUse" x="0" y="0" width="5844" height="4156">
<path d="M5844 0H0V4156H5844V0Z" fill="white"/>
</mask>
<g mask="url(#mask14_289_5260)">
<path opacity="0.5" d="M4273.83 6556.75C4259.2 6556.75 4244.25 6554.87 4229.3 6550.77L3496.74 6354.38C3327.26 6309.06 3074.05 6258.23 2781.03 6199.38C2200.18 6082.93 1477.23 5937.84 882.213 5734.68C558.977 5624.37 305.612 5506.5 129.359 5384.55C30.3737 5316.09 -47.0519 5244.49 -100.715 5171.95C-157.997 5094.52 -190.1 5013.32 -196.08 4931.02L-458.887 1327.37C-460.146 1311 -462.349 1294.95 -464.71 1279.53C-471.791 1230.75 -478.558 1184.8 -446.612 1143.1C-404.909 1088.65 -337.555 1065.83 -271.146 1083.46L461.408 1279.85C873.715 1390.32 1242.27 1568.77 1556.85 1810.17C1871.44 2051.56 2139.12 2361.41 2352.51 2731.06L4416.88 6306.54C4451.19 6366.03 4446.62 6436.84 4404.76 6491.45C4372.35 6533.78 4324.5 6556.91 4273.83 6556.91V6556.75ZM-456.526 1327.06L-193.72 4930.86C-182.232 5089.8 -73.0178 5241.82 130.775 5382.66C306.871 5504.46 559.921 5622.17 883 5732.48C1477.7 5935.64 2200.65 6080.57 2781.5 6197.02C3074.68 6255.87 3327.89 6306.54 3497.37 6352.02L4229.93 6548.41C4295.23 6566.04 4361.64 6543.54 4402.88 6489.72C4444.11 6436.06 4448.67 6366.19 4414.84 6307.49L2350.47 2732.01C1922.74 1991.13 1286.97 1503.3 460.621 1281.89L-271.932 1085.5C-337.398 1068.03 -403.808 1090.54 -444.881 1144.2C-476.198 1185.11 -469.431 1230.59 -462.506 1278.9C-460.303 1294.48 -457.943 1310.53 -456.684 1326.9L-456.526 1327.06ZM3829.42 4763.27C3807.86 4763.27 3785.83 4759.02 3764.59 4750.21C3701.01 4723.93 3661.51 4664.92 3661.51 4596.15V3837.65C3661.51 3410.88 3738.46 3008.81 3890.17 2642.31C4041.87 2275.96 4271.79 1937.16 4573.62 1635.33L4990.49 1218.47C5038.33 1170.79 5052.02 1102.18 5026.06 1039.39C5000.09 976.762 4942.02 937.893 4874.35 937.893H2483.13C2056.19 937.893 1654.11 860.942 1287.75 709.242C921.555 557.385 582.897 327.475 281.063 25.6501L-255.251 -510.649C-303.721 -559.274 -317.569 -628.83 -291.446 -692.247C-265.166 -755.823 -206.152 -795.321 -137.382 -795.321H3991.35C4380.37 -795.321 4749.24 -731.431 5088.06 -605.382C5426.88 -479.333 5743.5 -288.292 6029.13 -37.2958C6093.96 19.6703 6192.63 16.3656 6253.85 -44.6919L7493.29 -1283.94C7541.76 -1332.72 7611.47 -1346.57 7674.89 -1320.13C7738.47 -1293.85 7777.81 -1235 7777.81 -1166.23V-407.732C7777.81 19.1981 7700.86 421.265 7549.16 787.61C7397.45 1153.95 7167.54 1492.76 6865.7 1794.43L3946.19 4713.86C3913.93 4746.12 3872.23 4763.11 3829.42 4763.11V4763.27ZM-137.382 -792.961C-205.208 -792.961 -263.434 -754.092 -289.243 -691.461C-315.209 -628.829 -301.518 -560.376 -253.678 -512.38L282.636 23.9191C887.406 628.671 1627.83 935.375 2483.29 935.375H4874.51C4943.12 935.375 5002.14 974.874 5028.42 1038.45C5054.7 1102.02 5040.85 1171.58 4992.22 1220.05L4575.35 1636.91C3970.58 2241.97 3663.87 2982.37 3663.87 3837.49V4595.99C3663.87 4663.82 3702.74 4722.04 3765.37 4748.01C3828.01 4773.97 3896.46 4760.28 3944.46 4712.44L6863.97 1793.01C7468.74 1188.26 7775.45 447.859 7775.45 -407.575V-1166.07C7775.45 -1233.9 7736.58 -1291.96 7673.95 -1317.77C7611.47 -1343.89 7542.86 -1330.2 7494.86 -1282.21L6255.42 -42.9609C6193.42 19.0408 6093.33 22.3453 6027.55 -35.4075C5455.36 -538.03 4770.17 -792.803 3991.35 -792.803H-137.382V-792.961Z" fill="url(#paint3_linear_289_5260)"/>
</g>
</g>
</g>
</g>
<path fill-rule="evenodd" clip-rule="evenodd" d="M1837.81 1664C2026.56 1664 2179.62 1817.02 2179.62 2005.72C2179.62 2194.43 2085.24 2280.31 1953.05 2327.49C1932.79 2293.92 1932.79 2261.56 1932.79 2235.56V2204.11C1932.79 2199.87 1929.16 2196.24 1924.92 2196.24H1859.89C1855.65 2196.24 1852.02 2199.87 1852.02 2204.11V2339.89C1852.02 2343.82 1849 2347.15 1845.37 2347.75H1830.25C1826.62 2347.15 1823.59 2344.12 1823.59 2339.89V2204.11C1823.59 2199.87 1819.96 2196.24 1816.03 2196.24H1750.69C1746.46 2196.24 1742.83 2199.87 1742.83 2204.11V2240.09C1742.83 2263.68 1741.92 2295.43 1722.56 2327.49C1590.68 2280.31 1496 2154.21 1496 2005.72C1496 1857.24 1649.06 1664 1837.81 1664ZM1831.76 1771.05H1794.25C1791.23 1771.05 1788.5 1772.57 1787.29 1775.29L1766.72 1816.72H1908.59L1887.72 1775.29C1886.51 1772.57 1883.79 1771.05 1880.76 1771.05H1831.46H1831.76ZM1707.74 1939.5H1967.88C1976.35 1939.5 1983.61 1946.45 1983.61 1954.92V1964.29C1983.61 1972.76 1976.65 1979.72 1967.88 1979.72H1963.94C1960.92 1979.72 1958.2 1981.23 1956.99 1983.95L1948.52 2000.89C1947.31 2003.61 1944.58 2004.82 1941.56 2004.82H1734.36C1731.33 2004.82 1728.61 2003.61 1727.4 2000.89L1718.93 1983.95C1717.72 1981.23 1715.3 1979.72 1711.97 1979.72H1708.04C1699.57 1979.72 1692.31 1972.76 1692.31 1964.29V1954.92C1692.31 1946.45 1699.27 1939.5 1708.04 1939.5H1707.74ZM1707.74 2033.24H1967.88C1976.35 2033.24 1983.61 2040.2 1983.61 2048.67V2058.04C1983.61 2066.51 1976.65 2073.47 1967.88 2073.47H1963.94C1960.92 2073.47 1958.2 2074.98 1956.99 2077.7L1948.52 2094.63C1947.31 2097.36 1944.58 2098.87 1941.56 2098.87H1734.36C1731.33 2098.87 1728.61 2097.36 1727.4 2094.63L1718.93 2077.7C1717.72 2074.98 1715.3 2073.47 1711.97 2073.47H1708.04C1699.57 2073.47 1692.31 2066.51 1692.31 2058.04V2048.67C1692.31 2040.2 1699.27 2033.24 1708.04 2033.24H1707.74ZM1731.03 2127.29H1944.89C1953.36 2127.29 1960.31 2134.25 1960.31 2142.72V2152.09C1960.31 2160.56 1953.36 2167.52 1944.89 2167.52H1731.03C1722.56 2167.52 1715.6 2160.56 1715.6 2152.09V2142.72C1715.6 2134.25 1722.56 2127.29 1731.03 2127.29ZM1707.74 1845.45H1967.88C1976.35 1845.45 1983.61 1852.1 1983.61 1860.87V1869.94C1983.61 1878.41 1976.65 1885.67 1967.88 1885.67H1963.94C1960.92 1885.67 1958.2 1887.18 1956.99 1889.9L1948.52 1906.53C1947.31 1909.26 1944.58 1910.77 1941.56 1910.77H1734.36C1731.33 1910.77 1728.61 1909.26 1727.4 1906.53L1718.93 1889.9C1717.72 1887.18 1715.3 1885.67 1711.97 1885.67H1708.04C1699.57 1885.67 1692.31 1878.71 1692.31 1869.94V1860.87C1692.31 1852.4 1699.27 1845.45 1708.04 1845.45H1707.74Z" fill="url(#paint4_linear_289_5260)"/>
<path d="M2499.04 2138.79C2476.35 2138.79 2455.48 2135.16 2436.12 2127.6C2416.76 2120.04 2400.13 2109.15 2385.91 2095.24C2371.69 2081.33 2360.5 2065 2352.94 2046.55C2344.77 2028.1 2341.14 2007.84 2341.14 1985.77C2341.14 1963.69 2344.77 1943.43 2352.94 1924.98C2360.8 1906.53 2371.69 1890.2 2385.91 1876.29C2400.13 1862.38 2416.76 1851.5 2436.12 1843.94C2455.48 1836.38 2476.66 1832.75 2499.34 1832.75C2522.03 1832.75 2542.9 1836.38 2562.26 1843.94C2581.32 1851.5 2597.95 1862.38 2612.47 1875.99C2626.69 1889.6 2637.88 1906.23 2645.44 1924.68C2653.61 1943.13 2657.24 1963.69 2657.24 1985.77C2657.24 2007.84 2653.61 2028.41 2645.44 2046.85C2637.58 2065.3 2626.69 2081.93 2612.47 2095.54C2598.25 2109.15 2581.62 2120.04 2562.26 2127.6C2542.9 2135.16 2522.03 2138.79 2499.34 2138.79H2499.04ZM2499.04 2110.66C2517.49 2110.66 2534.13 2107.34 2549.25 2101.29C2564.68 2095.24 2577.69 2086.47 2589.18 2075.28C2600.67 2064.09 2609.45 2050.78 2615.8 2035.66C2621.85 2020.54 2625.18 2003.91 2625.18 1985.77C2625.18 1967.62 2621.85 1950.99 2615.8 1935.87C2609.45 1920.75 2600.37 1907.74 2589.18 1896.25C2577.99 1884.76 2564.68 1876.29 2549.25 1870.25C2533.83 1864.2 2517.19 1860.87 2499.04 1860.87C2480.89 1860.87 2464.25 1864.2 2448.83 1870.25C2433.4 1876.29 2420.09 1885.06 2408.6 1896.25C2397.1 1907.44 2388.33 1920.75 2381.98 1935.87C2375.63 1950.99 2372.3 1967.62 2372.3 1985.77C2372.3 2003.91 2375.63 2019.94 2381.98 2035.36C2388.33 2050.48 2397.4 2063.79 2408.6 2075.28C2419.79 2086.77 2433.4 2095.54 2448.83 2101.29C2464.56 2107.34 2481.19 2110.66 2499.04 2110.66Z" fill="white"/>
<path d="M2800.31 2138.48C2780.95 2138.48 2763.11 2133.95 2747.68 2124.87C2731.65 2116.1 2719.25 2102.8 2709.87 2085.86C2700.49 2068.63 2695.96 2047.76 2695.96 2023.26C2695.96 1998.77 2700.49 1977.9 2709.57 1960.66C2718.64 1943.73 2731.04 1930.73 2747.08 1921.96C2763.11 1913.19 2780.65 1908.35 2800.31 1908.35C2819.98 1908.35 2841.15 1913.19 2858.09 1922.86C2875.33 1932.24 2888.64 1946.15 2898.62 1963.39C2908.3 1980.93 2913.14 2000.89 2913.14 2023.57C2913.14 2046.25 2908.3 2066.51 2898.62 2083.75C2888.94 2100.98 2875.33 2114.29 2858.09 2124.27C2841.15 2134.25 2821.79 2139.09 2800.31 2139.09V2138.48ZM2683.86 2199.57V1910.16H2713.2V1978.2L2709.87 2023.57L2714.11 2068.93V2199.57H2683.55H2683.86ZM2798.2 2111.57C2814.23 2111.57 2828.75 2107.94 2841.15 2100.68C2853.85 2093.42 2863.84 2083.14 2871.4 2069.84C2878.96 2056.53 2882.59 2041.11 2882.59 2023.57C2882.59 2006.03 2878.96 1990.6 2871.4 1977.6C2863.84 1964.6 2853.85 1954.31 2841.15 1946.75C2828.44 1939.19 2814.23 1935.56 2798.2 1935.56C2782.16 1935.56 2767.65 1939.19 2755.24 1946.75C2742.24 1954.31 2732.25 1964.6 2725 1977.6C2717.43 1990.91 2714.11 2006.03 2714.11 2023.57C2714.11 2041.11 2717.74 2056.53 2725 2069.84C2732.25 2083.44 2742.24 2093.42 2755.24 2100.68C2767.95 2107.94 2782.47 2111.57 2798.2 2111.57Z" fill="white"/>
<path d="M3049.86 2138.48C3026.27 2138.48 3005.4 2133.34 2987.55 2123.66C2969.7 2113.68 2956.09 2100.08 2945.81 2082.84C2935.83 2065.3 2930.68 2045.34 2930.68 2022.96C2930.68 2000.58 2935.52 1980.62 2945.2 1963.39C2954.88 1946.45 2968.19 1932.84 2984.83 1922.86C3001.46 1913.19 3020.22 1908.04 3041.39 1908.04C3062.57 1908.04 3081.62 1912.88 3098.26 1922.56C3114.59 1931.94 3127.6 1945.85 3136.98 1963.08C3146.36 1980.62 3151.19 2000.58 3151.19 2023.26C3151.19 2045.94 3151.19 2026.29 3151.19 2027.8C3151.19 2029.31 3151.19 2031.13 3151.19 2032.64H2954.58V2009.96H3134.86L3122.76 2018.73C3122.76 2002.4 3119.13 1987.88 3112.17 1975.18C3105.22 1962.18 3095.54 1952.2 3083.44 1945.24C3071.64 1937.98 3057.73 1934.35 3041.7 1934.35C3025.66 1934.35 3012.35 1937.98 2999.95 1945.24C2987.55 1952.2 2978.17 1962.48 2971.22 1975.48C2964.26 1988.49 2960.93 2003.3 2960.93 2019.63V2024.47C2960.93 2041.71 2964.56 2056.83 2972.12 2069.84C2979.69 2082.84 2990.58 2093.12 3003.88 2100.38C3017.5 2107.64 3033.23 2111.27 3050.77 2111.27C3068.31 2111.27 3077.39 2108.85 3089.19 2104.01C3100.98 2099.17 3111.27 2091.61 3119.74 2081.63L3136.98 2101.29C3127 2113.38 3114.29 2122.45 3099.17 2129.11C3084.04 2135.16 3067.71 2138.48 3049.56 2138.48H3049.86Z" fill="white"/>
<path d="M3174.19 2136.37V1910.16H3203.22V1972.16L3198.69 1960.66C3205.64 1944.64 3217.14 1931.63 3233.17 1922.26C3248.9 1913.19 3267.65 1908.35 3289.43 1908.35C3311.21 1908.35 3323.92 1911.98 3337.83 1918.93C3351.74 1925.89 3362.63 1936.77 3370.8 1951.29C3378.67 1965.5 3382.6 1983.65 3382.6 2005.42V2136.67H3352.05V2008.14C3352.05 1984.56 3346 1966.41 3334.2 1954.31C3322.4 1941.92 3305.46 1935.87 3283.99 1935.87C3262.51 1935.87 3254.04 1939.19 3242.24 1945.54C3230.15 1951.89 3221.07 1961.27 3214.42 1973.37C3208.06 1985.76 3204.74 2000.28 3204.74 2017.52V2136.37H3174.19Z" fill="white"/>
<path d="M3414.96 2136.37V1834.86H3551.69C3584.66 1834.86 3613.39 1841.21 3638.5 1853.61C3663.61 1866.01 3682.96 1883.55 3696.88 1905.93C3711.1 1928.31 3718.05 1954.92 3718.05 1985.46C3718.05 2016.01 3711.1 2042.32 3696.88 2065C3682.96 2087.68 3663.61 2105.22 3638.5 2117.62C3613.39 2130.32 3584.66 2136.37 3551.69 2136.37H3414.96ZM3484.84 2079.21H3548.66C3568.63 2079.21 3586.17 2075.58 3600.99 2068.02C3615.81 2060.16 3627.31 2049.58 3635.47 2035.36C3643.64 2021.45 3647.57 2004.82 3647.57 1985.77C3647.57 1966.71 3643.64 1950.08 3635.47 1935.87C3627.31 1922.26 3615.81 1911.37 3600.99 1903.51C3586.17 1895.95 3568.63 1892.32 3548.66 1892.32H3484.84V2079.21Z" fill="white"/>
<path d="M3797.3 2141.51C3776.73 2141.51 3758.28 2137.88 3741.04 2130.32C3724.1 2122.46 3710.19 2111.87 3699.3 2097.66L3737.71 2051.09C3746.18 2061.97 3754.96 2070.14 3764.03 2075.89C3773.11 2081.63 3783.09 2084.35 3793.67 2084.35C3822.11 2084.35 3836.63 2067.72 3836.63 2034.46V1891.11H3730.45V1835.17H3905.59V2030.52C3905.59 2068.02 3896.52 2095.54 3878.07 2114.29C3859.62 2132.74 3832.69 2141.81 3797 2141.81L3797.3 2141.51Z" fill="white"/>
<path d="M3937.96 2136.37V1834.86H4165.73V1890.81H4007.23V2080.42H4171.17V2136.37H3937.96ZM4002.09 2010.87V1956.43H4147.28V2010.87H4002.09Z" fill="white"/>
<path d="M4200.21 2136.37V1834.86H4336.94C4369.91 1834.86 4398.64 1841.21 4423.75 1853.61C4448.55 1866.01 4468.21 1883.55 4482.13 1905.93C4496.04 1928.31 4503 1954.92 4503 1985.46C4503 2016.01 4496.04 2042.32 4482.13 2065C4468.21 2087.68 4448.55 2105.22 4423.75 2117.62C4398.64 2130.32 4369.91 2136.37 4336.94 2136.37H4200.21ZM4270.09 2079.21H4333.61C4353.88 2079.21 4371.42 2075.58 4386.24 2068.02C4400.76 2060.16 4412.25 2049.58 4420.72 2035.36C4428.89 2021.45 4432.82 2004.82 4432.82 1985.77C4432.82 1966.71 4428.89 1950.08 4420.72 1935.87C4412.25 1922.26 4400.76 1911.37 4386.24 1903.51C4371.42 1895.95 4353.88 1892.32 4333.61 1892.32H4270.09V2079.21Z" fill="white"/>
</g>
<defs>
<filter id="filter0_f_289_5260" x="-811.719" y="-811.719" width="7079.57" height="5779.44" filterUnits="userSpaceOnUse" color-interpolation-filters="sRGB">
<feFlood flood-opacity="0" result="BackgroundImageFix"/>
<feBlend mode="normal" in="SourceGraphic" in2="BackgroundImageFix" result="shape"/>
<feGaussianBlur stdDeviation="405.859" result="effect1_foregroundBlur_289_5260"/>
</filter>
<linearGradient id="paint0_linear_289_5260" x1="486.879" y1="-532.524" x2="3510.92" y2="173.511" gradientUnits="userSpaceOnUse">
<stop offset="0.14" stop-color="#4EEC91"/>
<stop offset="0.89" stop-color="#13B0F9"/>
</linearGradient>
<linearGradient id="paint1_linear_289_5260" x1="2203.95" y1="3720.72" x2="-101.186" y2="1640" gradientUnits="userSpaceOnUse">
<stop offset="0.14" stop-color="#4EEC91"/>
<stop offset="0.89" stop-color="#13B0F9"/>
</linearGradient>
<linearGradient id="paint2_linear_289_5260" x1="5182.01" y1="1833.63" x2="3999.89" y2="3983.07" gradientUnits="userSpaceOnUse">
<stop offset="0.14" stop-color="#4EEC91"/>
<stop offset="0.89" stop-color="#13B0F9"/>
</linearGradient>
<linearGradient id="paint3_linear_289_5260" x1="-470.532" y1="2611.78" x2="7777.97" y2="2611.78" gradientUnits="userSpaceOnUse">
<stop stop-color="#4EEC91"/>
<stop offset="1" stop-color="#13B0F9"/>
</linearGradient>
<linearGradient id="paint4_linear_289_5260" x1="1837.81" y1="1654.63" x2="1837.81" y2="2347.75" gradientUnits="userSpaceOnUse">
<stop stop-color="#2BC399"/>
<stop offset="1" stop-color="#0087D0"/>
</linearGradient>
</defs>
</svg>
