<svg width="124" height="28" viewBox="0 0 124 28" fill="none" xmlns="http://www.w3.org/2000/svg">
<path fill-rule="evenodd" clip-rule="evenodd" d="M13.9972 0C21.7266 0 27.9943 6.26625 27.9943 13.9938C27.9943 21.7214 24.1296 25.2384 18.7166 27.1703C17.8867 25.7957 17.8866 24.4706 17.8866 23.4056V22.1176C17.8866 21.9443 17.738 21.7957 17.5646 21.7957H14.9014C14.728 21.7957 14.5794 21.9443 14.5794 22.1176V27.678C14.5794 27.839 14.4555 27.9752 14.3068 28H13.6875C13.5389 27.9752 13.415 27.8514 13.415 27.678V22.1176C13.415 21.9443 13.2663 21.7957 13.1053 21.7957H10.4297C10.2563 21.7957 10.1077 21.9443 10.1077 22.1176V23.5913C10.1077 24.5573 10.0705 25.8576 9.27777 27.1703C3.87709 25.2384 0 20.0743 0 13.9938C0 7.91331 6.26776 0 13.9972 0ZM13.7494 4.3839H12.2135C12.0896 4.3839 11.9781 4.44582 11.9286 4.55728L11.0863 6.25387H16.8957L16.041 4.55728C15.9915 4.44582 15.88 4.3839 15.7561 4.3839H13.737H13.7494ZM8.67081 11.2817H19.3235C19.6704 11.2817 19.9676 11.5666 19.9676 11.9133V12.2972C19.9676 12.644 19.6827 12.9288 19.3235 12.9288H19.1625C19.0386 12.9288 18.9271 12.9907 18.8776 13.1022L18.5308 13.7957C18.4812 13.9071 18.3697 13.9567 18.2459 13.9567H9.76086C9.63699 13.9567 9.52551 13.9071 9.47596 13.7957L9.12913 13.1022C9.07958 12.9907 8.98048 12.9288 8.84423 12.9288H8.6832C8.33637 12.9288 8.03908 12.644 8.03908 12.2972V11.9133C8.03908 11.5666 8.32398 11.2817 8.6832 11.2817H8.67081ZM8.67081 15.1207H19.3235C19.6704 15.1207 19.9676 15.4056 19.9676 15.7523V16.1362C19.9676 16.483 19.6827 16.7678 19.3235 16.7678H19.1625C19.0386 16.7678 18.9271 16.8297 18.8776 16.9412L18.5308 17.6347C18.4812 17.7461 18.3697 17.8081 18.2459 17.8081H9.76086C9.63699 17.8081 9.52551 17.7461 9.47596 17.6347L9.12913 16.9412C9.07958 16.8297 8.98048 16.7678 8.84423 16.7678H8.6832C8.33637 16.7678 8.03908 16.483 8.03908 16.1362V15.7523C8.03908 15.4056 8.32398 15.1207 8.6832 15.1207H8.67081ZM9.6246 18.9721H18.3821C18.729 18.9721 19.0139 19.257 19.0139 19.6037V19.9876C19.0139 20.3344 18.729 20.6192 18.3821 20.6192H9.6246C9.27777 20.6192 8.99287 20.3344 8.99287 19.9876V19.6037C8.99287 19.257 9.27777 18.9721 9.6246 18.9721ZM8.67081 7.43034H19.3235C19.6704 7.43034 19.9676 7.70279 19.9676 8.06192V8.43344C19.9676 8.78019 19.6827 9.0774 19.3235 9.0774H19.1625C19.0386 9.0774 18.9271 9.13932 18.8776 9.25077L18.5308 9.93189C18.4812 10.0433 18.3697 10.1053 18.2459 10.1053H9.76086C9.63699 10.1053 9.52551 10.0433 9.47596 9.93189L9.12913 9.25077C9.07958 9.13932 8.98048 9.0774 8.84423 9.0774H8.6832C8.33637 9.0774 8.03908 8.79257 8.03908 8.43344V8.06192C8.03908 7.71517 8.32398 7.43034 8.6832 7.43034H8.67081Z" fill="url(#paint0_linear_207_4134)"/>
<path d="M41.0743 19.4429C40.1453 19.4429 39.2906 19.2943 38.4979 18.9847C37.7051 18.6751 37.0238 18.2293 36.4417 17.6596C35.8595 17.09 35.4012 16.4212 35.0915 15.6658C34.757 14.9104 34.6084 14.0807 34.6084 13.1767C34.6084 12.2726 34.757 11.4429 35.0915 10.6875C35.4135 9.93207 35.8595 9.26334 36.4417 8.69368C37.0238 8.12402 37.7051 7.6782 38.4979 7.36861C39.2906 7.05901 40.1577 6.9104 41.0867 6.9104C42.0158 6.9104 42.8704 7.05901 43.6632 7.36861C44.4436 7.6782 45.1249 8.12402 45.7194 8.6813C46.3016 9.23857 46.7599 9.91969 47.0696 10.6751C47.404 11.4305 47.5527 12.2726 47.5527 13.1767C47.5527 14.0807 47.404 14.9228 47.0696 15.6782C46.7475 16.4336 46.3016 17.1147 45.7194 17.672C45.1372 18.2293 44.456 18.6751 43.6632 18.9847C42.8704 19.2943 42.0158 19.4429 41.0867 19.4429H41.0743ZM41.0743 18.2912C41.8299 18.2912 42.5112 18.155 43.1306 17.9073C43.7623 17.6596 44.2949 17.3005 44.7656 16.8423C45.2363 16.3841 45.5956 15.8392 45.8557 15.22C46.1034 14.6008 46.2397 13.9197 46.2397 13.1767C46.2397 12.4336 46.1034 11.7525 45.8557 11.1333C45.5956 10.5141 45.224 9.98161 44.7656 9.51102C44.3073 9.04043 43.7623 8.69368 43.1306 8.446C42.4988 8.19833 41.8176 8.0621 41.0743 8.0621C40.3311 8.0621 39.6499 8.19833 39.0181 8.446C38.3864 8.69368 37.8414 9.05282 37.3707 9.51102C36.9 9.96922 36.5408 10.5141 36.2806 11.1333C36.0205 11.7525 35.8842 12.4336 35.8842 13.1767C35.8842 13.9197 36.0205 14.576 36.2806 15.2076C36.5408 15.8268 36.9124 16.3717 37.3707 16.8423C37.829 17.3129 38.3864 17.672 39.0181 17.9073C39.6622 18.155 40.3435 18.2912 41.0743 18.2912Z" fill="white"/>
<path d="M53.4122 19.4305C52.6194 19.4305 51.8886 19.2447 51.2569 18.8732C50.6004 18.5141 50.0925 17.9692 49.7085 17.2757C49.3245 16.5698 49.1387 15.7153 49.1387 14.7122C49.1387 13.7091 49.3245 12.8546 49.6961 12.1488C50.0677 11.4553 50.5756 10.9228 51.2321 10.5636C51.8886 10.2045 52.607 10.0063 53.4122 10.0063C54.2173 10.0063 55.0844 10.2045 55.7781 10.6008C56.4841 10.9847 57.0292 11.5543 57.4379 12.2602C57.8343 12.9785 58.0325 13.7958 58.0325 14.7246C58.0325 15.6534 57.8343 16.4831 57.4379 17.189C57.0415 17.8949 56.4841 18.4398 55.7781 18.8485C55.0844 19.2571 54.2917 19.4553 53.4122 19.4553V19.4305ZM48.6432 21.932V10.0807H49.8448V12.867L49.7085 14.7246L49.8819 16.5822V21.932H48.6309H48.6432ZM53.3255 18.3283C53.982 18.3283 54.5766 18.1797 55.0844 17.8825C55.6047 17.5853 56.0134 17.1642 56.3231 16.6194C56.6328 16.0745 56.7814 15.4429 56.7814 14.7246C56.7814 14.0063 56.6328 13.3748 56.3231 12.8423C56.0134 12.3098 55.6047 11.8887 55.0844 11.5791C54.5642 11.2695 53.982 11.1209 53.3255 11.1209C52.669 11.1209 52.0744 11.2695 51.5666 11.5791C51.0339 11.8887 50.6251 12.3098 50.3279 12.8423C50.0182 13.3872 49.8819 14.0063 49.8819 14.7246C49.8819 15.4429 50.0306 16.0745 50.3279 16.6194C50.6251 17.1766 51.0339 17.5853 51.5666 17.8825C52.0868 18.1797 52.6814 18.3283 53.3255 18.3283Z" fill="white"/>
<path d="M63.6309 19.4304C62.6647 19.4304 61.81 19.2199 61.0792 18.8236C60.3484 18.415 59.791 17.8577 59.3698 17.1518C58.9611 16.4335 58.7505 15.6162 58.7505 14.6998C58.7505 13.7834 58.9487 12.966 59.3451 12.2602C59.7414 11.5667 60.2865 11.0094 60.9677 10.6007C61.649 10.2044 62.417 9.9939 63.2841 9.9939C64.1512 9.9939 64.9315 10.192 65.6128 10.5883C66.2817 10.9722 66.8143 11.5419 67.1983 12.2478C67.5823 12.966 67.7805 13.7834 67.7805 14.7122C67.7805 15.641 67.7805 14.836 67.7805 14.8979C67.7805 14.9598 67.7805 15.0341 67.7805 15.0961H59.729V14.1673H67.1116L66.6162 14.5264C66.6162 13.8577 66.4675 13.2632 66.1826 12.7431C65.8977 12.2106 65.5013 11.8019 65.0059 11.5171C64.5228 11.2199 63.953 11.0713 63.2965 11.0713C62.64 11.0713 62.0949 11.2199 61.5871 11.5171C61.0792 11.8019 60.6952 12.223 60.4103 12.7555C60.1254 13.288 59.9892 13.8948 59.9892 14.5636V14.7617C59.9892 15.4676 60.1378 16.0868 60.4475 16.6193C60.7572 17.1518 61.2031 17.5728 61.7481 17.8701C62.3055 18.1673 62.9496 18.3159 63.6681 18.3159C64.3865 18.3159 64.7581 18.2168 65.2412 18.0187C65.7243 17.8205 66.1455 17.5109 66.4923 17.1023L67.1983 17.9072C66.7896 18.4026 66.2693 18.7741 65.65 19.0465C65.0306 19.2942 64.3617 19.4304 63.6185 19.4304H63.6309Z" fill="white"/>
<path d="M68.7227 19.3438V10.0807H69.9118V12.6194L69.726 12.1488C70.0109 11.4924 70.4816 10.9599 71.1381 10.576C71.7822 10.2045 72.5502 10.0063 73.4421 10.0063C74.3339 10.0063 74.8542 10.155 75.424 10.4398C75.9937 10.7246 76.4397 11.1704 76.7741 11.7649C77.0962 12.3469 77.2572 13.0899 77.2572 13.9816V19.3562H76.0061V14.093C76.0061 13.1271 75.7584 12.3841 75.2753 11.8887C74.7922 11.381 74.0986 11.1333 73.2191 11.1333C72.3396 11.1333 71.9928 11.2695 71.5097 11.5296C71.0142 11.7896 70.6426 12.1735 70.3701 12.6689C70.11 13.1766 69.9737 13.7711 69.9737 14.4769V19.3438H68.7227Z" fill="white"/>
<path d="M78.5825 19.3441V6.99731H84.1814C85.5316 6.99731 86.7083 7.25738 87.7364 7.76512C88.7645 8.27286 89.5573 8.99112 90.1271 9.90753C90.7093 10.8239 90.9942 11.9137 90.9942 13.1645C90.9942 14.4153 90.7093 15.4927 90.1271 16.4215C89.5573 17.3503 88.7645 18.0685 87.7364 18.5763C86.7083 19.0964 85.5316 19.3441 84.1814 19.3441H78.5825ZM81.4439 17.0035H84.0575C84.8751 17.0035 85.5935 16.8549 86.2004 16.5453C86.8074 16.2233 87.2781 15.7899 87.6126 15.2078C87.947 14.6382 88.108 13.9571 88.108 13.1769C88.108 12.3967 87.947 11.7156 87.6126 11.1335C87.2781 10.5763 86.8074 10.1304 86.2004 9.80846C85.5935 9.49886 84.8751 9.35026 84.0575 9.35026H81.4439V17.0035Z" fill="white"/>
<path d="M94.2389 19.5539C93.3966 19.5539 92.641 19.4053 91.935 19.0957C91.2413 18.7737 90.6715 18.3403 90.2256 17.7583L91.7987 15.8511C92.1456 16.297 92.5048 16.6313 92.8764 16.8666C93.248 17.1019 93.6568 17.2134 94.0903 17.2134C95.2547 17.2134 95.8492 16.5323 95.8492 15.17V9.30006H91.5014V7.00903H98.6734V15.009C98.6734 16.5446 98.3018 17.6716 97.5462 18.4394C96.7906 19.1948 95.6882 19.5663 94.2265 19.5663L94.2389 19.5539Z" fill="white"/>
<path d="M99.999 19.3441V6.99731H109.326V9.28834H102.836V17.053H109.549V19.3441H99.999ZM102.625 14.2047V11.9756H108.571V14.2047H102.625Z" fill="white"/>
<path d="M110.739 19.3441V6.99731H116.338C117.688 6.99731 118.865 7.25738 119.893 7.76512C120.908 8.27286 121.714 8.99112 122.283 9.90753C122.853 10.8239 123.138 11.9137 123.138 13.1645C123.138 14.4153 122.853 15.4927 122.283 16.4215C121.714 17.3503 120.908 18.0685 119.893 18.5763C118.865 19.0964 117.688 19.3441 116.338 19.3441H110.739ZM113.6 17.0035H116.201C117.031 17.0035 117.75 16.8549 118.357 16.5453C118.951 16.2233 119.422 15.7899 119.769 15.2078C120.103 14.6382 120.264 13.9571 120.264 13.1769C120.264 12.3967 120.103 11.7156 119.769 11.1335C119.422 10.5763 118.951 10.1304 118.357 9.80846C117.75 9.49886 117.031 9.35026 116.201 9.35026H113.6V17.0035Z" fill="white"/>
<defs>
<linearGradient id="paint0_linear_207_4134" x1="13.9972" y1="-0.383901" x2="13.9972" y2="28" gradientUnits="userSpaceOnUse">
<stop stop-color="#2BC399"/>
<stop offset="1" stop-color="#0087D0"/>
</linearGradient>
</defs>
</svg>
