<svg width="31" height="30" viewBox="0 0 31 30" fill="none" xmlns="http://www.w3.org/2000/svg">
<path d="M30.5 15C30.5 23.2843 23.7843 30 15.5 30C7.21573 30 0.5 23.2843 0.5 15C0.5 6.71573 7.21573 0 15.5 0C23.7843 0 30.5 6.71573 30.5 15Z" fill="#F8F8FB"/>
<path d="M15.2611 6.30565C15.6971 6.07761 16.2341 6.59607 15.9981 7.03273C15.8701 7.37939 15.3611 7.4704 15.0881 7.20657C14.8151 6.95092 14.9061 6.44166 15.2701 6.29645L15.2611 6.30565ZM10.5762 6.80571C10.8482 6.69629 11.1762 6.93353 11.1492 7.21475C11.1762 7.5246 10.7942 7.76082 10.5212 7.60641C10.1662 7.4704 10.2122 6.8957 10.5762 6.80571ZM20.1811 7.61561C19.7631 7.56039 19.6991 6.92433 20.0911 6.79753C20.4091 6.65027 20.6911 6.92433 20.7361 7.21577C20.6731 7.4612 20.4631 7.68821 20.1811 7.61561ZM11.6402 8.76195C12.0851 8.48994 12.7131 8.89898 12.6401 9.39903C12.6231 9.91852 11.9401 10.2181 11.5492 9.87352C11.1672 9.59946 11.2312 8.97158 11.6402 8.76195ZM18.3991 9.0626C18.5991 8.56152 19.3991 8.54414 19.6261 9.0268C19.8441 9.40824 19.5721 9.8817 19.1721 10.0085C18.6521 10.1005 18.1531 9.55447 18.3991 9.0626ZM14.6951 9.97271C14.6951 9.54527 15.0951 9.22621 15.5141 9.19963C15.7861 9.25382 16.0871 9.37245 16.2041 9.64548C16.4231 10.0187 16.2321 10.5372 15.8321 10.7192C15.6501 10.8102 15.4321 10.7734 15.2321 10.7642C14.9321 10.619 14.6761 10.3286 14.6951 9.98192V9.97271ZM7.72618 10.6098C8.12617 10.3644 8.67217 10.8102 8.51717 11.2469C8.43617 11.6109 7.92718 11.7664 7.63518 11.5291C7.32518 11.3021 7.37118 10.7652 7.72618 10.6098ZM22.7001 10.6098C23.0461 10.3368 23.6101 10.6466 23.5651 11.0649C23.5921 11.4565 23.1101 11.7572 22.7641 11.5557C22.3911 11.3839 22.3451 10.8286 22.7001 10.6098ZM16.6601 11.3839C16.9438 11.2903 17.2493 11.2917 17.5321 11.388C17.8161 11.4851 18.0581 11.6713 18.2251 11.9198C18.6431 12.521 18.4251 13.4496 17.7601 13.7952C17.0781 14.2145 16.0771 13.8586 15.8231 13.1131C15.5321 12.4392 15.9501 11.5925 16.6601 11.3839ZM13.3391 11.4473C13.9671 11.1559 14.8131 11.4023 15.1131 12.0302C15.4771 12.6489 15.1951 13.5048 14.5581 13.8228C13.9211 14.1869 13.0121 13.9138 12.7111 13.2502C12.3571 12.6121 12.6661 11.7377 13.3391 11.4473ZM10.0092 12.566C10.0552 12.1672 10.4372 11.9116 10.8292 11.884C11.0262 11.9028 11.211 11.9898 11.3531 12.1305C11.4953 12.2713 11.5863 12.4573 11.6112 12.6581C11.5832 13.0671 11.2652 13.4762 10.8282 13.4762C10.3372 13.514 9.91716 13.0303 10.0092 12.566ZM19.8361 11.9658C20.3361 11.6938 21.0181 12.1028 21.0001 12.6581C21.0371 13.2583 20.2721 13.6776 19.7811 13.3309C19.2621 13.0405 19.2991 12.2214 19.8361 11.9658ZM11.9841 14.0682C12.2721 13.9917 12.5766 14.0124 12.8521 14.1272C13.1276 14.242 13.3595 14.4448 13.5131 14.7053C13.8311 15.234 13.6951 15.9795 13.2131 16.3619C12.5931 16.9356 11.4482 16.6994 11.1212 15.9253C10.7382 15.2146 11.1932 14.2585 11.9841 14.0682ZM18.2891 14.0682C18.8531 13.9046 19.5171 14.1235 19.8171 14.6235C20.2271 15.2064 20.0271 16.0797 19.4351 16.4438C18.7981 16.8814 17.8341 16.6534 17.4881 15.9703C17.0701 15.2698 17.4881 14.2779 18.2881 14.059L18.2891 14.0682ZM8.23717 14.7145C8.73717 14.5325 9.29217 15.0786 9.09217 15.5705C8.96417 16.0163 8.32817 16.1799 8.00018 15.8425C7.60918 15.5428 7.75418 14.8516 8.23717 14.7145ZM21.8551 15.4334C21.8504 15.3335 21.8651 15.2336 21.8984 15.1395C21.9317 15.0454 21.9829 14.959 22.0491 14.8853C22.1852 14.7343 22.3736 14.6437 22.5741 14.6327C22.9111 14.6869 23.2471 14.96 23.2201 15.3342C23.2561 15.8159 22.6561 16.1523 22.2371 15.9161C22.0371 15.8251 21.9371 15.6257 21.8551 15.4334ZM5.76319 14.961C6.07319 14.8342 6.44519 15.0888 6.37319 15.416C6.35419 15.7903 5.79919 15.9355 5.59019 15.6267C5.40819 15.4079 5.51819 15.0796 5.77219 14.962L5.76319 14.961ZM24.8231 14.961C25.0411 14.8076 25.3771 14.9068 25.4591 15.1522C25.6041 15.4252 25.3401 15.7903 25.0411 15.7443C24.6131 15.7811 24.4671 15.143 24.8221 14.9528L24.8231 14.961ZM13.6231 16.7454C14.4151 16.545 15.2701 17.1995 15.2791 18.0012C15.3241 18.8193 14.4871 19.5484 13.6691 19.3572C13.3596 19.3027 13.0785 19.1387 12.8751 18.8939C12.6753 18.6521 12.5665 18.3454 12.5681 18.0288C12.5681 17.4367 13.0231 16.8733 13.6231 16.7546V16.7454ZM16.7711 16.7454C17.5811 16.5266 18.4541 17.1913 18.4451 18.0196C18.4901 18.8111 17.6711 19.5126 16.8711 19.349C16.1251 19.2569 15.5701 18.4481 15.7791 17.7282C15.8891 17.2547 16.2891 16.863 16.7711 16.7454ZM10.6942 17.2465C11.2582 17.1555 11.7851 17.766 11.5492 18.2844C11.3852 18.8397 10.5662 18.9941 10.2032 18.5401C9.77516 18.1024 10.0942 17.3007 10.6942 17.2465ZM19.9361 17.2741C20.4261 17.0645 21.0461 17.4919 21.0001 18.0206C21.0281 18.6035 20.2721 19.0125 19.7811 18.6669C19.2351 18.3571 19.3261 17.4561 19.9361 17.2741ZM22.5101 19.8224C22.3191 19.4584 22.6741 18.9849 23.0751 19.0494C23.2751 19.0494 23.4201 19.2027 23.5471 19.3398C23.5751 19.5494 23.6201 19.7959 23.4371 19.9687C23.1921 20.2693 22.6471 20.1773 22.5101 19.8224ZM7.71818 19.1485C8.09117 18.9031 8.62817 19.2764 8.54617 19.7038C8.50117 20.0965 8.00918 20.3143 7.69118 20.0965C7.34518 19.8951 7.35318 19.3306 7.71818 19.1485ZM15.1681 19.9605C15.6601 19.7417 16.2881 20.1691 16.2421 20.6968C16.2781 21.2878 15.5061 21.6989 15.0231 21.3441C14.4771 21.0434 14.5671 20.1425 15.1681 19.9605ZM11.7132 20.752C12.1401 20.5332 12.7041 20.9064 12.6591 21.3717C12.6771 21.7531 12.2951 22.0814 11.9221 22.0159C11.6042 22.0159 11.3942 21.7347 11.2942 21.4709C11.2942 21.1805 11.4222 20.8614 11.7222 20.7428L11.7132 20.752ZM18.7181 20.752C19.1451 20.4882 19.7551 20.8706 19.7181 21.3615C19.7281 21.8902 19.0361 22.2174 18.6271 21.8809C18.2441 21.6079 18.2901 20.9708 18.7171 20.7612L18.7181 20.752ZM19.9281 23.7094C19.7361 23.4374 19.9641 23.0815 20.2731 23.0181C20.5281 23.0733 20.7921 23.2543 20.7281 23.5376C20.7011 23.9282 20.1281 24.0468 19.9281 23.7186V23.7094ZM10.2752 23.4639C10.3482 23.2369 10.5302 23.0089 10.8032 23.0723C11.2032 23.0999 11.3222 23.692 10.9752 23.873C10.6582 24.0744 10.3032 23.7922 10.2752 23.4639ZM14.9331 23.7278C15.0051 23.3913 15.4521 23.2277 15.7431 23.4097C15.9251 23.4916 15.9881 23.7012 16.0331 23.8832L15.9621 24.1552C15.8421 24.3015 15.6881 24.4385 15.4971 24.4283C15.1241 24.4743 14.7871 24.0652 14.9331 23.7278Z" fill="#246DD3"/>
</svg>
