<svg width="31" height="30" viewBox="0 0 31 30" fill="none" xmlns="http://www.w3.org/2000/svg">
<path d="M30.5 15C30.5 23.2843 23.7843 30 15.5 30C7.21573 30 0.5 23.2843 0.5 15C0.5 6.71573 7.21573 0 15.5 0C23.7843 0 30.5 6.71573 30.5 15Z" fill="#3414FC"/>
<path d="M17.0219 22.3234L15.3683 23.9775L12.7667 21.3759L14.4209 19.7222C14.8591 19.2835 15.1057 18.6886 15.1057 18.0683C15.1057 17.448 14.8591 16.8531 14.4209 16.4145C13.2918 15.2859 12.6582 13.7553 12.6582 12.1593C12.6582 10.5633 13.2918 9.03261 14.4209 7.90405L16.0745 6.25L18.6761 8.85155L17.0219 10.5054C16.5837 10.944 16.3371 11.5389 16.3371 12.1592C16.3371 12.7795 16.5837 13.3744 17.0219 13.8129C18.151 14.9416 18.7846 16.4722 18.7846 18.0682C18.7846 19.6642 18.151 21.1949 17.0219 22.3234Z" fill="white"/>
<path d="M12.7667 21.3759L10.1662 23.9775L8.5125 22.3234C6.74929 20.56 6.3089 17.9745 7.19188 15.8003C7.59759 14.8054 8.26203 13.9371 9.11584 13.2853C9.9702 12.6335 10.9831 12.2219 12.0499 12.0934C12.0351 13.3909 12.4028 14.6641 13.1069 15.754C12.7507 15.7014 12.3874 15.7319 12.0444 15.8431C11.702 15.9543 11.3899 16.1432 11.1323 16.395C10.2014 17.3047 10.2141 18.8234 11.1345 19.7435L12.7667 21.3759Z" fill="white"/>
<path d="M22.9309 16.4146C21.9785 17.3696 20.7322 17.9755 19.3929 18.1341C19.4077 16.8366 19.04 15.5634 18.3354 14.4735C18.6916 14.526 19.0554 14.4955 19.3978 14.3843C19.7402 14.2732 20.0529 14.0843 20.31 13.8325C21.2409 12.9227 21.2282 11.4041 20.3083 10.4839L18.6761 8.85155L21.2761 6.25L22.9298 7.90405C24.6935 9.66749 25.1339 12.253 24.2504 14.4272C23.9482 15.1713 23.4995 15.8472 22.9309 16.4146Z" fill="white"/>
</svg>
