<svg width="31" height="30" viewBox="0 0 31 30" fill="none" xmlns="http://www.w3.org/2000/svg">
<path d="M30.5 15C30.5 23.2843 23.7843 30 15.5 30C7.21573 30 0.5 23.2843 0.5 15C0.5 6.71573 7.21573 0 15.5 0C23.7843 0 30.5 6.71573 30.5 15Z" fill="#D8A521"/>
<path d="M11.9946 12.8177C11.8616 12.82 11.7349 12.8749 11.6422 12.9704C11.5495 13.0658 11.4984 13.1941 11.5001 13.3272C11.5001 13.6041 11.7189 13.8366 11.9946 13.8366H12.3L12.9554 15.0001H18.7741L19.4505 13.8366H19.7262C19.7923 13.8373 19.8579 13.8247 19.919 13.7997C19.9802 13.7746 20.0357 13.7376 20.0823 13.6907C20.1301 13.6432 20.1677 13.5865 20.1928 13.524C20.2179 13.4615 20.2299 13.3945 20.2282 13.3272C20.2289 13.1916 20.1765 13.0611 20.0823 12.9636C20.0349 12.9158 19.9781 12.8783 19.9156 12.8532C19.8531 12.8281 19.7861 12.816 19.7188 12.8177H11.9946Z" fill="white"/>
<path d="M18.7741 15.3648H12.9554V16.4554H18.7741V15.3648Z" fill="white"/>
<path d="M11.9946 9.90958C11.8617 9.91154 11.735 9.96614 11.6423 10.0614C11.5495 10.1567 11.4984 10.2848 11.5001 10.4178C11.5001 10.6947 11.7189 10.9272 11.9946 10.9272H12.3L12.7291 12.0907H19.0425L19.4505 10.9272H19.7262C19.8559 10.9234 19.9789 10.8688 20.0687 10.7751C20.1164 10.7274 20.1539 10.6704 20.1788 10.6077C20.2037 10.545 20.2154 10.4778 20.2134 10.4103C20.2125 10.2775 20.1607 10.1501 20.0687 10.0542C19.9777 9.96332 19.8549 9.91142 19.7262 9.90958H11.9946Z" fill="white"/>
<path d="M11.9946 7.00019C11.9288 7.001 11.8637 7.01479 11.8032 7.04078C11.7427 7.06678 11.6878 7.10445 11.6419 7.15166C11.596 7.19887 11.5598 7.25468 11.5354 7.31589C11.5111 7.3771 11.4991 7.44251 11.5001 7.50838C11.5001 7.78534 11.7189 8.0178 11.9946 8.0178H12.3L12.7291 9.18131H19.0425L19.4505 8.01904H19.7262C19.7924 8.01958 19.858 8.00684 19.9192 7.98157C19.9804 7.9563 20.0358 7.919 20.0823 7.8719C20.1301 7.82443 20.1677 7.76771 20.1928 7.7052C20.2179 7.64269 20.2299 7.57571 20.2282 7.50838C20.2289 7.37281 20.1765 7.24234 20.0823 7.14486C20.0348 7.09729 19.978 7.05993 19.9155 7.03505C19.853 7.01018 19.786 6.99832 19.7188 7.00019H11.9946Z" fill="white"/>
<path d="M11.9946 21.9811C11.8616 21.9834 11.7349 22.0383 11.6422 22.1338C11.5495 22.2292 11.4984 22.3575 11.5001 22.4906C11.5001 22.7749 11.7189 23 11.9872 23H19.7275C19.7933 23.0005 19.8587 22.9879 19.9196 22.9628C19.9806 22.9378 20.0359 22.9008 20.0823 22.8541C20.1301 22.8066 20.1677 22.7499 20.1928 22.6874C20.2179 22.6249 20.2299 22.5579 20.2282 22.4906C20.2289 22.355 20.1765 22.2245 20.0823 22.127C20.0349 22.0793 19.9781 22.0417 19.9156 22.0166C19.8531 21.9915 19.7861 21.9794 19.7188 21.9811H19.4863C19.1809 21.6683 18.7741 20.6717 18.7741 18.6217V17.1812H16.5918V22.2729H15.1352V17.1812H12.9554V18.6217C12.9554 20.6717 12.5548 21.6683 12.2506 21.9886H11.9872L11.9946 21.9811Z" fill="white"/>
</svg>
