<svg width="84" height="84" viewBox="0 0 84 84" fill="none" xmlns="http://www.w3.org/2000/svg">
<path d="M42 84C65.196 84 84 65.196 84 42C84 18.804 65.196 0 42 0C18.804 0 0 18.804 0 42C0 65.196 18.804 84 42 84Z" fill="black"/>
<path d="M24.548 16.7998C24.5853 16.8073 24.6226 16.8148 24.6599 16.8262C24.6226 16.8187 24.5813 16.8113 24.544 16.8038L24.548 16.7998ZM53.32 17.1371L53.2714 17.1296V17.2718C53.2863 17.2269 53.3086 17.182 53.3236 17.1371H53.3196H53.32ZM68.7664 31.0212C69.1472 32.8607 69.2143 34.7112 68.9344 36.5657C68.6769 38.2591 68.0237 39.7953 67.0643 41.2112C66.8664 41.2487 66.8103 41.4323 66.6949 41.5595C65.7245 42.6008 64.694 43.5637 63.3727 44.1409C63.1788 44.2233 62.9322 44.4183 62.7304 44.2197C62.5624 44.0551 62.6857 43.8151 62.7418 43.6091C62.977 42.71 63.2196 41.8109 63.4547 40.9118C63.9662 39.2973 64.5782 37.7347 65.6271 36.3711C66.1645 35.6742 66.5045 34.8614 66.7357 34.0107C67.889 29.7884 66.9037 25.9521 64.608 22.3668C63.7421 21.0143 62.5475 19.9466 61.4165 18.8304C60.7782 18.2012 60.1136 17.5941 59.4604 16.9799C59.4341 17.1261 59.4828 17.2009 59.535 17.2797C60.7072 19.0145 61.9947 20.6739 63.066 22.476C64.3874 24.7087 65.1524 27.1026 65.1827 29.7104C65.1941 30.4523 65.138 31.1902 64.8467 31.8833C64.5778 32.5278 64.0926 32.696 63.488 32.3702C63.2678 32.254 63.0551 32.1043 62.8721 31.9392C61.5881 30.7852 60.6958 29.3727 60.1733 27.7282C60.1022 27.2897 60.0276 26.8516 59.9605 26.4206C59.9943 23.7793 59.2213 21.5017 57.0753 19.8043C55.9816 18.9387 54.8542 18.1224 53.6969 17.3392C53.5587 17.2493 53.428 17.1895 53.2674 17.2603C54.5291 18.1744 55.6302 19.261 56.6567 20.4221C57.9597 21.9019 58.6835 23.6177 58.7059 25.6069C58.676 25.6783 58.6348 25.7456 58.6164 25.8205C58.4409 26.5285 58.426 26.5434 57.7951 26.2136C56.9739 25.7826 56.1641 25.3181 55.3503 24.876C54.4247 24.3741 53.682 23.6287 52.827 23.033C51.8864 22.0551 51.095 20.9764 50.4418 19.781C50.7366 21.1072 51.3078 22.2946 52.0992 23.3813C52.562 24.1342 53.1854 24.7488 53.8982 25.2507C55.4661 26.3484 56.9928 27.4874 58.2172 28.9822C58.5791 29.529 58.9673 30.0574 59.2999 30.6192C61.073 33.6162 61.9092 36.8418 61.5394 40.3373C61.517 40.4311 61.4832 40.5209 61.4683 40.6182C60.8375 44.421 59.4117 47.8561 56.8283 50.7559C56.6344 50.9734 56.4475 51.2129 56.1452 51.3626C56.5519 48.3017 55.9364 45.2936 54.5773 43.7086C55.6302 47.0803 55.6412 50.2984 53.5508 53.2805C52.3339 54.9853 50.6954 56.0979 48.7392 56.8019C50.0755 54.6441 51.2288 52.4563 50.9976 49.815C51.0051 49.6987 51.0125 49.579 51.02 49.4667C51.0349 49.4367 51.0498 49.4103 51.0612 49.3769C51.0612 49.3654 51.0424 49.3544 51.0274 49.3394C51.0498 48.2493 50.7063 47.2529 50.2882 46.2675C50.3966 47.3427 50.2808 48.3994 50.2062 49.4596C49.7618 51.7936 48.8511 53.944 47.4477 55.8474C46.7125 56.8437 45.8947 57.7992 44.7041 58.2976C44.3422 58.4473 44.4914 58.6608 44.6072 58.8519C45.2117 59.8223 46.1413 60.2903 47.2091 60.5527C47.4104 60.6016 47.5486 60.5039 47.6535 60.3507C48.4707 59.1707 49.6767 58.5111 50.9235 57.9119C52.9243 56.9455 54.8616 55.8703 56.601 54.4688C56.6831 54.4199 56.7765 54.3865 56.8476 54.3266C59.009 52.6143 60.8116 50.5617 62.3387 48.2687C63.3016 46.8227 64.2983 45.4587 65.8215 44.5112C66.934 43.8217 67.9307 42.9266 68.565 41.7163C68.58 41.6938 68.5988 41.6674 68.6063 41.6414C68.6063 41.6414 68.5988 41.6264 68.5914 41.619C69.2108 40.645 69.5508 39.5809 69.7934 38.4458C70.3531 35.8234 69.6964 33.4071 68.7708 31.0128L68.7673 31.0203L68.7664 31.0212ZM39.0722 58.261C38.1764 57.8489 37.471 57.1894 36.8476 56.4365C35.403 54.6907 34.5331 52.6526 33.9176 50.4948C33.7123 49.1048 33.4135 47.7223 33.6675 46.2953C33.4846 46.64 33.3504 46.9808 33.2455 47.333C32.8349 48.723 32.6594 50.1315 32.9766 51.5704C33.238 53.5786 34.1861 55.2979 35.2797 56.9578C32.8871 55.9125 30.8191 54.5265 29.5908 52.1586C28.8814 50.5516 28.5493 48.8732 28.68 47.1125C28.766 45.951 28.9788 44.8124 29.3556 43.7068C27.8886 45.9734 27.3289 48.4536 27.7579 51.2256C26.9665 50.6863 25.6114 48.974 24.9209 47.7566C23.5175 45.2729 22.6774 42.6092 22.3563 39.7733C22.2778 39.0987 22.2966 38.4282 22.3637 37.7576C22.3826 37.7312 22.3861 37.7052 22.3752 37.6753C22.6739 34.3524 23.872 31.3928 25.9211 28.7739C27.0819 27.4403 28.523 26.44 29.9114 25.3723C30.3484 25.039 30.8187 24.7202 31.117 24.2257C32.3488 22.8622 33.2108 21.3 33.6552 19.5129C32.7669 21.2776 31.4978 22.7199 30.0159 23.9897C29.8294 24.0087 29.7136 24.1584 29.5754 24.2557C28.4703 25.05 27.2986 25.728 26.0553 26.2823C25.4956 26.5298 25.3872 26.4695 25.3236 25.8553C25.2824 25.4506 25.26 25.046 25.2302 24.6453C25.2565 24.6378 25.2749 24.6189 25.2749 24.5929C25.2749 24.5555 25.2824 24.5181 25.2863 24.4767C25.4131 23.1805 25.9509 22.0529 26.716 21.0226C27.6381 19.7828 28.7616 18.741 29.9264 17.7407C30.1018 17.591 30.2699 17.4373 30.4379 17.2872C30.4041 17.2533 30.3708 17.2159 30.337 17.1824C28.784 18.2312 27.2424 19.2879 25.9022 20.6255C24.7301 21.7945 24.2001 23.2254 24.0396 24.8399L24.0058 24.8774C24.0058 24.8774 24.0321 24.9188 24.0321 24.9223C24.0435 24.9073 24.047 24.8923 24.047 24.8774C24.047 24.8923 24.047 24.9073 24.0321 24.9223V25.2371C23.793 26.0573 23.9277 26.9269 23.7224 27.7507C23.4127 28.8673 22.8489 29.8597 22.1808 30.7966C21.7627 31.3809 21.2885 31.9282 20.6651 32.3064C19.8663 32.7898 19.2876 32.5873 19.0078 31.6957C18.8994 31.3474 18.8323 30.9802 18.8024 30.613C18.5897 28.0166 19.228 25.6043 20.4037 23.3113C21.4337 21.2996 22.845 19.5463 24.129 17.6993C24.3155 17.4334 24.6704 17.2273 24.562 16.8113C23.6588 17.6843 22.7739 18.5795 21.8483 19.4261C19.4557 21.6214 17.8092 24.2552 17.0964 27.4509C16.4282 30.4255 16.4993 33.3437 18.0966 36.0189C18.9516 37.4573 19.7763 38.8848 20.3177 40.4698C20.6314 41.5864 20.9371 42.7065 21.2582 43.8226C21.3964 44.3021 21.2095 44.3994 20.7989 44.2382C20.2765 44.0397 19.7873 43.7737 19.3284 43.4514C18.0931 42.5823 17.0924 41.4922 16.2637 40.2334C14.7669 37.5062 14.6028 34.595 15.1288 31.5755C14.9161 31.6094 14.931 31.7327 14.9047 31.808C14.1742 33.7034 13.8645 35.6702 14.0549 37.6933C14.1857 39.0719 14.5366 40.398 15.3166 41.5784C15.3653 41.9043 15.5965 42.1253 15.7759 42.3727C16.5932 43.4818 17.657 44.3245 18.7884 45.0814C19.4267 45.5085 19.979 46.0029 20.416 46.64C21.2148 47.809 21.9948 48.9929 22.8906 50.0906C24.1036 51.5818 25.3802 53.0088 26.9481 54.1443C28.6616 55.6466 30.5765 56.8415 32.6221 57.8234C33.9733 58.4715 35.2911 59.161 36.2242 60.3898C36.3435 60.551 36.4857 60.6148 36.6721 60.566C37.725 60.2886 38.673 59.858 39.2775 58.8761C39.4565 58.5877 39.4565 58.4301 39.102 58.2694H39.0946L39.0722 58.2619V58.261ZM37.6127 65.1393C36.7353 64.4837 35.7873 64.2327 34.8129 64.3225C34.4659 64.3524 34.1747 64.4687 34.0365 64.9143C34.0101 64.9966 33.9505 65.0604 33.9022 65.1278C34.1001 65.4012 34.283 65.6971 34.4918 65.9445C35.0814 66.6301 35.7833 66.7912 36.5076 66.7648C36.7691 66.7534 37.0301 66.7124 37.2876 66.675C37.9597 66.5852 38.6015 66.7239 39.2174 67.1958C39.2587 67.1434 39.2249 67.1021 39.1986 67.0572C38.7616 66.2853 38.2431 65.6073 37.6122 65.1353V65.1393H37.6127ZM49.1656 64.319C48.1913 64.2367 47.2433 64.4837 46.3659 65.1393C45.7351 65.6112 45.2161 66.2893 44.7796 67.0611C44.7572 67.106 44.7199 67.1434 44.7607 67.1998C45.3727 66.7278 46.0185 66.5891 46.6905 66.6789C46.952 66.7128 47.2095 66.7613 47.4705 66.7688C48.1948 66.7912 48.8963 66.6301 49.4863 65.9445C49.6991 65.6971 49.882 65.3977 50.0759 65.1278C50.0272 65.0565 49.9676 64.9966 49.9417 64.9143C49.8 64.4682 49.5087 64.3524 49.1652 64.3225V64.3185L49.1656 64.319Z" fill="url(#paint0_linear_6047_1968)"/>
<defs>
<linearGradient id="paint0_linear_6047_1968" x1="41.9996" y1="67.1998" x2="41.9996" y2="16.7998" gradientUnits="userSpaceOnUse">
<stop stop-color="#00EAEF"/>
<stop offset="1" stop-color="#0CA3FB"/>
</linearGradient>
</defs>
</svg>
