<svg width="31" height="30" viewBox="0 0 31 30" fill="none" xmlns="http://www.w3.org/2000/svg">
<path d="M30.5 15C30.5 23.2843 23.7843 30 15.5 30C7.21573 30 0.5 23.2843 0.5 15C0.5 6.71573 7.21573 0 15.5 0C23.7843 0 30.5 6.71573 30.5 15Z" fill="#121326"/>
<path d="M9.52745 13.8566C9.44088 14.0784 9.36429 14.307 9.30102 14.5389C8.95471 15.8061 8.96803 17.1438 9.33765 18.4009C9.40092 18.616 9.47751 18.8311 9.56075 19.0395C10.1402 20.4613 11.1691 21.6511 12.4878 22.4276C12.7974 22.6091 13.1204 22.767 13.4534 22.9015C16.0208 23.9165 18.9478 23.3317 20.9258 21.399C21.5351 20.8075 22.028 20.105 22.3843 19.3319C21.332 20.4411 19.9701 21.2007 18.4816 21.5133C18.4183 21.5436 18.3517 21.5738 18.2885 21.6007C16.2605 22.4813 13.9063 22.0982 12.2613 20.6226C12.1681 20.5419 12.0782 20.4546 11.9916 20.3672L11.9516 20.3268C11.1591 19.5067 10.6363 18.4614 10.4532 17.3287C10.4365 17.2278 10.4232 17.127 10.4099 17.0228C10.3866 16.8211 10.3766 16.6161 10.3766 16.4111C10.3733 15.2985 10.6963 14.2095 11.3123 13.2819C11.4655 13.0466 11.6386 12.8247 11.8251 12.6163C12.884 11.4366 14.3825 10.7576 15.9609 10.7408H16.0941C17.3295 10.7509 18.5282 11.1677 19.5072 11.9273C19.4739 11.8029 19.434 11.6786 19.3907 11.5542C19.3574 11.4567 19.3207 11.3626 19.2808 11.2685C19.0577 10.7307 18.7413 10.2366 18.3484 9.80978L18.3251 9.79297C17.9954 9.67869 17.6591 9.5913 17.3161 9.52744C16.4304 9.36275 15.518 9.37283 14.6355 9.55097C14.0262 9.67533 13.4334 9.88036 12.8807 10.1593C12.4977 10.3543 12.1348 10.5828 11.7951 10.8417L11.7652 10.8652C11.5487 11.0332 11.3456 11.2147 11.1491 11.403C10.7129 11.8298 10.3366 12.3105 10.0236 12.8348C9.84713 13.134 9.69395 13.4499 9.56408 13.7726V13.8499H9.53078L9.52745 13.8566ZM13.7498 8.54935C13.3302 8.54935 12.9073 8.58632 12.4944 8.66362C12.4411 8.67035 12.3879 8.68379 12.3346 8.69388C12.1414 8.73421 11.945 8.78127 11.7518 8.84177C11.5287 8.90563 11.3123 8.98293 11.0958 9.07032C9.6773 9.64172 8.48519 10.6702 7.71265 12.0013C7.61275 12.1693 7.51951 12.3441 7.43627 12.5222C7.36634 12.6634 7.30307 12.8079 7.24646 12.9558C5.88786 16.3708 7.4063 20.2563 10.7196 21.8461L10.8161 21.8931C9.7106 20.8445 8.94805 19.4798 8.62838 17.9807C8.59508 17.9169 8.56511 17.853 8.53514 17.7858C8.48519 17.6682 8.43857 17.5472 8.39528 17.4262C7.8958 16.0111 7.97904 14.4515 8.62838 13.097C8.92141 12.4819 9.32433 11.9239 9.81383 11.4534C10.007 11.2685 10.2101 11.0971 10.4299 10.9425C10.7629 10.7038 11.1192 10.5022 11.4954 10.3442C12.3779 9.67197 13.4001 9.20813 14.4824 8.98966C14.8853 8.90563 15.2949 8.85521 15.7045 8.8384L15.6112 8.81152C15.0018 8.6401 14.3758 8.55271 13.7431 8.55271L13.7498 8.54935ZM14.9386 20.8142L15.0318 20.8411C16.0474 21.1201 17.1163 21.1705 18.1553 20.9823H18.1852C18.4283 20.9318 18.6681 20.8747 18.9045 20.8041C19.1043 20.7436 19.3041 20.6764 19.5039 20.5957L19.5738 20.6865L19.5339 20.5823C20.3797 20.2428 21.1489 19.7386 21.7982 19.1C22.2344 18.6731 22.614 18.1925 22.9237 17.6648C23.1035 17.3589 23.26 17.0396 23.3899 16.7136C24.4222 14.1389 23.8361 11.1912 21.9014 9.21822C21.3087 8.60985 20.6094 8.11912 19.8435 7.76284C20.706 8.58296 21.3587 9.60139 21.7549 10.7274C21.8648 11.04 21.9547 11.3593 22.0246 11.6853C22.0479 11.7324 22.0812 11.8029 22.1145 11.8735C22.2944 12.2937 22.4209 12.7306 22.4942 13.181C22.5441 13.4869 22.5707 13.7961 22.5707 14.1087C22.5707 15.6347 21.9614 17.0934 20.8725 18.1522L20.8325 18.1891C20.343 18.6631 19.7703 19.0429 19.1476 19.3084C18.5349 19.7689 17.8522 20.1319 17.1297 20.3873C16.8166 20.4983 16.4936 20.589 16.1673 20.6596C15.7677 20.7436 15.3581 20.794 14.9486 20.8142H14.9386ZM12.3046 19.8462C12.6343 19.9638 12.9739 20.0546 13.3202 20.1184C14.2126 20.2865 15.1284 20.2798 16.0175 20.0916C16.6202 19.9672 17.2062 19.7622 17.759 19.4832C19.1343 18.7941 20.2465 17.6614 20.9124 16.2632C20.979 16.1254 21.039 15.9876 21.0923 15.8498L21.0989 15.8262C21.5884 14.6129 21.7216 13.2819 21.4819 11.9945C21.4752 11.9408 21.4652 11.8903 21.4519 11.8433C21.4119 11.645 21.362 11.45 21.3054 11.2551C21.2421 11.0366 21.1655 10.8248 21.0823 10.6165C20.5095 9.19133 19.4872 7.99812 18.1686 7.22505C17.8656 7.04691 17.5459 6.88894 17.2196 6.75785C13.7898 5.37978 9.88709 6.89566 8.29539 10.2232C8.28207 10.2535 8.26542 10.2837 8.2521 10.314C9.07792 9.45014 10.0935 8.79135 11.2191 8.39809C11.5287 8.29054 11.8484 8.19979 12.1681 8.1292C12.2214 8.10231 12.2979 8.06534 12.3745 8.03509C12.4844 7.98803 12.5976 7.94434 12.7142 7.904C13.0305 7.79309 13.3535 7.70906 13.6832 7.65528C15.0884 7.42672 16.5269 7.73595 17.7157 8.52246C17.9488 8.67371 18.1686 8.84513 18.3784 9.02999C18.4816 9.12074 18.5815 9.21822 18.6781 9.31569C19.1476 9.80642 19.5272 10.3778 19.7969 11.003C19.8469 11.1206 19.8935 11.2383 19.9368 11.3626C20.0467 11.6752 20.1299 11.9979 20.1832 12.3239C20.373 13.4701 20.2065 14.6465 19.7004 15.6884C19.4673 16.1758 19.1676 16.6262 18.8113 17.0262C17.7457 18.2059 16.2439 18.8883 14.6655 18.9084C14.3858 18.9118 14.1061 18.895 13.8297 18.858C13.247 18.7773 12.6809 18.6059 12.1481 18.3505C11.7885 18.1791 11.4455 17.9673 11.1291 17.7253C11.3423 18.5185 11.7419 19.2445 12.2946 19.8462H12.3046ZM10.9793 16.801C11.3922 17.2211 11.8784 17.5673 12.4078 17.8194C12.5244 17.8766 12.6476 17.927 12.7675 17.9774C11.915 17.0732 11.3855 15.9036 11.2657 14.6633C11.0193 15.349 10.9194 16.0783 10.9793 16.8043V16.801ZM17.8722 11.6651C18.7214 12.5693 19.2475 13.7322 19.3774 14.9725C19.6238 14.2936 19.7237 13.5709 19.6671 12.8516C19.1576 12.3306 18.5449 11.9273 17.8722 11.6651Z" fill="url(#paint0_radial_2394_2996)"/>
<defs>
<radialGradient id="paint0_radial_2394_2996" cx="0" cy="0" r="1" gradientUnits="userSpaceOnUse" gradientTransform="translate(16.5066 12.7155) scale(8.56788 8.57095)">
<stop stop-color="#FDC300"/>
<stop offset="0.09" stop-color="#FDC109"/>
<stop offset="0.25" stop-color="#FDBC21"/>
<stop offset="0.44" stop-color="#FEB348"/>
<stop offset="0.66" stop-color="#FEA77E"/>
<stop offset="0.91" stop-color="#FF98C3"/>
<stop offset="1" stop-color="#FF92DE"/>
</radialGradient>
</defs>
</svg>
