<svg width="33" height="32" viewBox="0 0 33 32" fill="none" xmlns="http://www.w3.org/2000/svg">
<path fill-rule="evenodd" clip-rule="evenodd" d="M30.2812 15.08C30.402 14.9594 30.5454 14.8637 30.7032 14.7985C30.861 14.7333 31.0301 14.6998 31.2008 14.6999C31.3715 14.7 31.5406 14.7338 31.6983 14.7992C31.856 14.8647 31.9992 14.9605 32.1199 15.0813C32.2405 15.2021 32.3362 15.3455 32.4014 15.5033C32.4666 15.6611 32.5001 15.8302 32.5 16.0009C32.4999 16.1716 32.4661 16.3407 32.4007 16.4984C32.3352 16.6561 32.2394 16.7993 32.1186 16.92C31.8746 17.1636 31.5438 17.3003 31.199 17.3001C30.8542 17.2999 30.5236 17.1627 30.2799 16.9187C30.0363 16.6747 29.8996 16.3439 29.8998 15.9991C29.9 15.6543 30.0372 15.3237 30.2812 15.08ZM28.4439 18.7573C28.568 18.8772 28.667 19.0205 28.7351 19.1791C28.8032 19.3376 28.839 19.5081 28.8405 19.6806C28.842 19.8532 28.8092 20.0243 28.7438 20.1839C28.6785 20.3436 28.582 20.4887 28.46 20.6107C28.338 20.7327 28.1929 20.8292 28.0332 20.8945C27.8736 20.9599 27.7025 20.9928 27.5299 20.9912C27.3574 20.9897 27.1869 20.9539 27.0284 20.8858C26.8698 20.8177 26.7264 20.7187 26.6066 20.5946C26.3699 20.3495 26.2389 20.0213 26.2419 19.6806C26.2448 19.3399 26.3815 19.014 26.6224 18.7731C26.8633 18.5322 27.1892 18.3955 27.5299 18.3926C27.8706 18.3896 28.1988 18.5206 28.4439 18.7573ZM24.7693 22.4319C24.8934 22.5518 24.9924 22.6952 25.0605 22.8537C25.1286 23.0122 25.1644 23.1827 25.1659 23.3553C25.1674 23.5278 25.1345 23.6989 25.0692 23.8586C25.0039 24.0183 24.9074 24.1634 24.7854 24.2854C24.6634 24.4074 24.5183 24.5039 24.3586 24.5692C24.1989 24.6345 24.0278 24.6674 23.8553 24.6659C23.6827 24.6644 23.5122 24.6286 23.3537 24.5605C23.1952 24.4924 23.0518 24.3934 22.9319 24.2693C22.6952 24.0242 22.5643 23.696 22.5672 23.3553C22.5702 23.0146 22.7068 22.6887 22.9478 22.4478C23.1887 22.2068 23.5146 22.0702 23.8553 22.0672C24.196 22.0643 24.5242 22.1952 24.7693 22.4319ZM21.0946 26.1066C21.2187 26.2264 21.3177 26.3698 21.3858 26.5284C21.4539 26.6869 21.4897 26.8574 21.4912 27.0299C21.4928 27.2025 21.4599 27.3736 21.3945 27.5332C21.3292 27.6929 21.2327 27.838 21.1107 27.96C20.9887 28.082 20.8436 28.1785 20.6839 28.2438C20.5243 28.3092 20.3532 28.342 20.1806 28.3405C20.0081 28.339 19.8376 28.3032 19.6791 28.2351C19.5205 28.167 19.3772 28.068 19.2573 27.9439C19.0206 27.6988 18.8896 27.3706 18.8926 27.0299C18.8955 26.6892 19.0322 26.3633 19.2731 26.1224C19.514 25.8815 19.8399 25.7448 20.1806 25.7419C20.5213 25.7389 20.8495 25.8699 21.0946 26.1066ZM15.58 31.6186C15.4594 31.4977 15.3637 31.3544 15.2985 31.1966C15.2333 31.0388 15.1998 30.8697 15.1999 30.699C15.2 30.5282 15.2338 30.3592 15.2992 30.2015C15.3647 30.0438 15.4605 29.9006 15.5813 29.7799C15.7021 29.6593 15.8455 29.5636 16.0033 29.4984C16.1611 29.4332 16.3302 29.3997 16.5009 29.3998C16.6716 29.3999 16.8407 29.4337 16.9984 29.4991C17.1561 29.5646 17.2993 29.6604 17.42 29.7812C17.6636 30.0252 17.8003 30.356 17.8001 30.7008C17.7999 31.0456 17.6627 31.3762 17.4187 31.6199C17.1747 31.8635 16.8439 32.0002 16.4991 32C16.1543 31.9998 15.8237 31.8625 15.58 31.6186Z" fill="#F3F3F4"/>
<path d="M4.55609 18.7547C4.43528 18.8753 4.33941 19.0186 4.27397 19.1763C4.20852 19.334 4.17477 19.503 4.17465 19.6737C4.17453 19.8445 4.20804 20.0135 4.27326 20.1713C4.33849 20.3291 4.43415 20.4725 4.55479 20.5933C4.67543 20.7141 4.81869 20.81 4.97638 20.8754C5.13407 20.9409 5.3031 20.9746 5.47383 20.9748C5.64457 20.9749 5.81365 20.9414 5.97143 20.8761C6.12921 20.8109 6.2726 20.7152 6.39342 20.5946C6.63011 20.3495 6.76108 20.0213 6.75812 19.6806C6.75516 19.3399 6.6185 19.014 6.37759 18.7731C6.13667 18.5322 5.81077 18.3955 5.47008 18.3926C5.12938 18.3896 4.80116 18.518 4.55609 18.7547ZM8.23074 22.4345C8.10664 22.5544 8.00765 22.6978 7.93955 22.8563C7.87145 23.0148 7.8356 23.1853 7.8341 23.3579C7.8326 23.5304 7.86548 23.7015 7.93081 23.8612C7.99615 24.0209 8.09263 24.166 8.21463 24.288C8.33664 24.41 8.48172 24.5064 8.64141 24.5718C8.80109 24.6371 8.9722 24.67 9.14473 24.6685C9.31726 24.667 9.48776 24.6311 9.64629 24.5631C9.80482 24.495 9.9482 24.396 10.0681 24.2719C10.3048 24.0268 10.4357 23.6986 10.4328 23.3579C10.4298 23.0172 10.2932 22.6913 10.0522 22.4504C9.81132 22.2094 9.48542 22.0728 9.14473 22.0698C8.80403 22.0669 8.47581 22.1978 8.23074 22.4345ZM11.9054 26.1092C11.7813 26.229 11.6823 26.3724 11.6142 26.531C11.5461 26.6895 11.5103 26.86 11.5088 27.0325C11.5073 27.205 11.5401 27.3762 11.6055 27.5358C11.6708 27.6955 11.7673 27.8406 11.8893 27.9626C12.0113 28.0846 12.1564 28.1811 12.3161 28.2464C12.4757 28.3118 12.6468 28.3446 12.8194 28.3431C12.9919 28.3416 13.1624 28.3058 13.3209 28.2377C13.4795 28.1696 13.6228 28.0706 13.7427 27.9465C13.9794 27.7014 14.1104 27.3732 14.1074 27.0325C14.1045 26.6918 13.9678 26.3659 13.7269 26.125C13.486 25.8841 13.1601 25.7474 12.8194 25.7445C12.4787 25.7415 12.1505 25.8725 11.9054 26.1092ZM2.71877 16.92C2.9312 16.7082 3.06383 16.4295 3.09414 16.131C3.12446 15.8326 3.0506 15.5329 2.88509 15.2827C2.77708 15.1241 2.63565 14.991 2.47074 14.8929C2.30583 14.7947 2.12144 14.7338 1.9305 14.7145C1.73956 14.6952 1.5467 14.7179 1.36547 14.7811C1.18425 14.8442 1.01904 14.9462 0.881442 15.08C0.637453 15.3237 0.500244 15.6543 0.5 15.9991C0.499757 16.3439 0.636498 16.6747 0.880142 16.9187C1.12379 17.1626 1.45438 17.2999 1.79919 17.3001C2.14399 17.3003 2.47478 17.1636 2.71877 16.92ZM6.39082 11.4054C6.27095 11.2813 6.12757 11.1823 5.96904 11.1142C5.81051 11.0461 5.64001 11.0103 5.46748 11.0088C5.29495 11.0073 5.12385 11.0401 4.96416 11.1055C4.80447 11.1708 4.65939 11.2673 4.53739 11.3893C4.41538 11.5113 4.3189 11.6564 4.25357 11.8161C4.18823 11.9757 4.15536 12.1468 4.15686 12.3194C4.15835 12.4919 4.1942 12.6624 4.2623 12.8209C4.3304 12.9795 4.42939 13.1228 4.55349 13.2427C4.79856 13.4794 5.12678 13.6104 5.46748 13.6074C5.80817 13.6045 6.13407 13.4678 6.37499 13.2269C6.6159 12.986 6.75256 12.6601 6.75552 12.3194C6.75848 11.9787 6.62751 11.6505 6.39082 11.4054ZM10.0655 7.73074C9.9456 7.60664 9.80222 7.50765 9.64369 7.43955C9.48516 7.37145 9.31466 7.3356 9.14213 7.3341C8.9696 7.3326 8.79849 7.36548 8.63881 7.43081C8.47912 7.49615 8.33404 7.59263 8.21204 7.71463C8.09003 7.83664 7.99355 7.98172 7.92822 8.1414C7.86288 8.30109 7.83001 8.47219 7.8315 8.64473C7.833 8.81726 7.86885 8.98776 7.93695 9.14629C8.00505 9.30482 8.10404 9.4482 8.22814 9.56806C8.47321 9.80476 8.80143 9.93573 9.14213 9.93277C9.48282 9.92981 9.80872 9.79315 10.0496 9.55224C10.2906 9.31132 10.4272 8.98542 10.4302 8.64473C10.4331 8.30403 10.3022 7.97581 10.0655 7.73074ZM13.7453 4.05609C13.6254 3.93199 13.4821 3.833 13.3235 3.7649C13.165 3.6968 12.9945 3.66095 12.822 3.65945C12.6494 3.65795 12.4783 3.69083 12.3187 3.75617C12.159 3.8215 12.0139 3.91798 11.8919 4.03999C11.7699 4.16199 11.6734 4.30707 11.6081 4.46675C11.5427 4.62644 11.5099 4.79755 11.5114 4.97008C11.5129 5.14261 11.5487 5.31311 11.6168 5.47164C11.6849 5.63017 11.7839 5.77355 11.908 5.89342C12.1531 6.13011 12.4813 6.26108 12.822 6.25812C13.1627 6.25516 13.4886 6.1185 13.7295 5.87759C13.9704 5.63667 14.1071 5.31077 14.11 4.97008C14.113 4.62938 13.982 4.30116 13.7453 4.05609ZM17.42 0.381442C17.2993 0.260631 17.1561 0.164764 16.9984 0.0993164C16.8407 0.0338687 16.6716 0.000120985 16.5009 3.24701e-07C16.3302 -0.000120335 16.1611 0.0333884 16.0033 0.0986132C15.8455 0.163838 15.7022 0.259502 15.5813 0.380142C15.4605 0.500783 15.3647 0.644037 15.2992 0.801727C15.2338 0.959417 15.2 1.12845 15.1999 1.29919C15.1998 1.46992 15.2333 1.639 15.2985 1.79678C15.3637 1.95456 15.4594 2.09795 15.58 2.21877C15.8237 2.46276 16.1543 2.59996 16.4991 2.60021C16.8439 2.60045 17.1747 2.46371 17.4187 2.22007C17.6627 1.97642 17.7999 1.64583 17.8001 1.30102C17.8003 0.956214 17.6636 0.625431 17.42 0.381442ZM21.0946 4.05609C20.9747 3.93199 20.8314 3.833 20.6728 3.7649C20.5143 3.6968 20.3438 3.66095 20.1713 3.65945C19.9987 3.65795 19.8276 3.69083 19.6679 3.75617C19.5083 3.8215 19.3632 3.91798 19.2412 4.03999C19.1192 4.16199 19.0227 4.30707 18.9574 4.46675C18.892 4.62644 18.8591 4.79755 18.8606 4.97008C18.8621 5.14261 18.898 5.31311 18.9661 5.47164C19.0342 5.63017 19.1332 5.77355 19.2573 5.89342C19.5024 6.13011 19.8306 6.26108 20.1713 6.25812C20.512 6.25516 20.8379 6.1185 21.0788 5.87759C21.3197 5.63667 21.4564 5.31077 21.4593 4.97008C21.4623 4.62938 21.3313 4.30116 21.0946 4.05609ZM24.7693 7.73074C24.6494 7.60664 24.506 7.50765 24.3475 7.43955C24.189 7.37145 24.0185 7.3356 23.8459 7.3341C23.6734 7.3326 23.5023 7.36548 23.3426 7.43081C23.1829 7.49615 23.0378 7.59263 22.9158 7.71463C22.7938 7.83664 22.6973 7.98172 22.632 8.1414C22.5667 8.30109 22.5338 8.47219 22.5353 8.64473C22.5368 8.81726 22.5726 8.98776 22.6407 9.14629C22.7088 9.30482 22.8078 9.4482 22.9319 9.56806C23.177 9.80476 23.5052 9.93573 23.8459 9.93277C24.1866 9.92981 24.5125 9.79315 24.7534 9.55224C24.9943 9.31132 25.131 8.98542 25.134 8.64473C25.1369 8.30403 25.006 7.97581 24.7693 7.73074ZM28.4439 11.4054C28.324 11.2813 28.1807 11.1823 28.0221 11.1142C27.8636 11.0461 27.6931 11.0103 27.5206 11.0088C27.348 11.0073 27.1769 11.0401 27.0172 11.1055C26.8576 11.1708 26.7125 11.2673 26.5905 11.3893C26.4685 11.5113 26.372 11.6564 26.3067 11.8161C26.2413 11.9757 26.2084 12.1468 26.2099 12.3194C26.2114 12.4919 26.2473 12.6624 26.3154 12.8209C26.3835 12.9795 26.4825 13.1228 26.6066 13.2427C26.8517 13.4794 27.1799 13.6104 27.5206 13.6074C27.8613 13.6045 28.1872 13.4678 28.4281 13.2269C28.669 12.986 28.8057 12.6601 28.8086 12.3194C28.8116 11.9787 28.6806 11.6505 28.4439 11.4054Z" fill="#F3F3F4"/>
</svg>
