<svg width="31" height="30" viewBox="0 0 31 30" fill="none" xmlns="http://www.w3.org/2000/svg">
<path d="M30.5 15C30.5 23.2843 23.7843 30 15.5 30C7.21573 30 0.5 23.2843 0.5 15C0.5 6.71573 7.21573 0 15.5 0C23.7843 0 30.5 6.71573 30.5 15Z" fill="#3153CB"/>
<path d="M19.9948 19.7935L18.636 20.7849L8.6304 13.4965C8.631 13.482 8.62961 13.4676 8.62626 13.4536V11.5105L19.9948 19.7935ZM17.2028 10.3838C16.5988 10.82 15.9892 11.2483 15.3848 11.6846C15.3548 11.7134 15.3156 11.7293 15.275 11.7293C15.2344 11.7293 15.1952 11.7134 15.1652 11.6846C14.4186 11.1365 13.6699 10.5932 12.9207 10.0495C12.1345 9.4737 11.3486 8.89631 10.5631 8.31732L9.448 7.5H6.75C6.89329 7.60588 7.011 7.69471 7.12946 7.78116L9.24416 9.32777L11.3352 10.8621C11.9911 11.3431 12.6451 11.8265 13.3017 12.3064C13.9249 12.762 14.5495 13.2129 15.1727 13.6694C15.1979 13.6934 15.2306 13.7068 15.2646 13.7068C15.2986 13.7068 15.3314 13.6934 15.3566 13.6694C15.8598 13.3061 16.3682 12.9484 16.8688 12.5852C18.1149 11.6844 19.3598 10.7825 20.6037 9.87939L23.3223 7.91957C23.5104 7.78434 23.6984 7.64673 23.8929 7.5H21.1851C19.8578 8.46074 18.5303 9.42202 17.2028 10.3838ZM8.64206 16.3577C8.63606 16.3704 8.63127 16.3836 8.62777 16.3973V18.3068C8.62832 18.3213 8.63151 18.3356 8.63717 18.3488L15.3148 23.2143H15.3212L16.6785 22.2205L8.64206 16.3577ZM21.9812 11.5132L17.0125 15.1374C17.0282 15.1598 17.0458 15.1807 17.0651 15.1997C17.4843 15.5127 17.9048 15.8251 18.3265 16.1368C18.3405 16.1445 18.3564 16.1474 18.372 16.1451L21.9703 13.5183C21.9758 13.5071 21.9798 13.4952 21.9824 13.483L21.9812 11.5132ZM21.9854 16.4338C21.4213 16.8443 20.8767 17.2412 20.3257 17.6433L21.6168 18.6086L21.9854 18.3393V16.4338Z" fill="white"/>
</svg>
