<svg width="1440" height="1024" viewBox="0 0 1440 1024" fill="none" xmlns="http://www.w3.org/2000/svg">
<mask id="mask0_366_10925" style="mask-type:luminance" maskUnits="userSpaceOnUse" x="0" y="0" width="1440" height="1024">
<path d="M1439.91 0H0V1024H1439.91V0Z" fill="white"/>
</mask>
<g mask="url(#mask0_366_10925)">
<mask id="mask1_366_10925" style="mask-type:luminance" maskUnits="userSpaceOnUse" x="0" y="0" width="1440" height="1024">
<path d="M1439.91 0H0V1024H1439.91V0Z" fill="white"/>
</mask>
<g mask="url(#mask1_366_10925)">
<mask id="mask2_366_10925" style="mask-type:luminance" maskUnits="userSpaceOnUse" x="0" y="0" width="1440" height="1024">
<path d="M1439.91 0H0V1024H1439.91V0Z" fill="white"/>
</mask>
<g mask="url(#mask2_366_10925)">
<mask id="mask3_366_10925" style="mask-type:luminance" maskUnits="userSpaceOnUse" x="0" y="0" width="1440" height="1024">
<path d="M1439.91 0H0V1024H1439.91V0Z" fill="white"/>
</mask>
<g mask="url(#mask3_366_10925)">
<mask id="mask4_366_10925" style="mask-type:luminance" maskUnits="userSpaceOnUse" x="0" y="0" width="1440" height="1024">
<path d="M1439.91 0.000244141H0V1024H1439.91V0.000244141Z" fill="white"/>
</mask>
<g mask="url(#mask4_366_10925)">
<path d="M1439.91 0.000244141H0V1024H1439.91V0.000244141Z" fill="#0F1D2A"/>
</g>
<mask id="mask5_366_10925" style="mask-type:luminance" maskUnits="userSpaceOnUse" x="0" y="0" width="1440" height="1024">
<path d="M1439.91 0.000244141H0V1024H1439.91V0.000244141Z" fill="white"/>
</mask>
<g mask="url(#mask5_366_10925)">
<g filter="url(#filter0_f_366_10925)">
<mask id="mask6_366_10925" style="mask-type:luminance" maskUnits="userSpaceOnUse" x="0" y="0" width="1440" height="283">
<path d="M1439.91 0H0V282.857H1439.91V0Z" fill="white"/>
</mask>
<g mask="url(#mask6_366_10925)">
<path opacity="0.4" d="M441.555 173.931C647.318 221.971 836.926 163.24 865.057 42.7515C893.189 -77.7374 749.19 -214.357 543.427 -262.397C337.664 -310.438 148.056 -251.707 119.925 -131.218C91.7936 -10.729 235.793 125.891 441.555 173.931Z" fill="url(#paint0_linear_366_10925)"/>
</g>
<mask id="mask7_366_10925" style="mask-type:luminance" maskUnits="userSpaceOnUse" x="0" y="0" width="1440" height="451">
<path d="M1439.91 0H0V450.649H1439.91V0Z" fill="white"/>
</mask>
<g mask="url(#mask7_366_10925)">
<path opacity="0.4" d="M751.245 306.264C949.103 306.264 1109.5 205.934 1109.5 82.1712C1109.5 -41.5916 949.103 -141.921 751.245 -141.921C553.388 -141.921 392.993 -41.5916 392.993 82.1712C392.993 205.934 553.388 306.264 751.245 306.264Z" fill="#13B0F9" fill-opacity="0.32"/>
</g>
<mask id="mask8_366_10925" style="mask-type:luminance" maskUnits="userSpaceOnUse" x="0" y="0" width="509" height="1024">
<path d="M508.797 0H0V1024H508.797V0Z" fill="white"/>
</mask>
<g mask="url(#mask8_366_10925)">
<path opacity="0.4" d="M32.6379 717.45C209.602 805.944 388.821 806.17 432.933 717.956C477.046 629.742 369.349 486.492 192.384 397.999C15.4199 309.505 -163.799 309.279 -207.911 397.493C-252.024 485.707 -144.326 628.957 32.6379 717.45Z" fill="#13B0F9" fill-opacity="0.32"/>
</g>
<mask id="mask9_366_10925" style="mask-type:luminance" maskUnits="userSpaceOnUse" x="0" y="352" width="646" height="672">
<path d="M645.544 352.585H0V1024H645.544V352.585Z" fill="white"/>
</mask>
<g mask="url(#mask9_366_10925)">
<path opacity="0.4" d="M543.031 916.696C625.937 824.849 565.992 635.624 409.141 494.052C252.29 352.479 57.9287 312.169 -24.9769 404.016C-107.883 495.864 -47.9379 685.088 108.913 826.661C265.764 968.234 460.125 1008.54 543.031 916.696Z" fill="url(#paint1_linear_366_10925)"/>
</g>
<mask id="mask10_366_10925" style="mask-type:luminance" maskUnits="userSpaceOnUse" x="901" y="319" width="539" height="705">
<path d="M1439.91 319.076H901.051V1024H1439.91V319.076Z" fill="white"/>
</mask>
<g mask="url(#mask10_366_10925)">
<path opacity="0.4" d="M1285.26 801.446C1365.78 655.054 1363.74 499.363 1280.71 453.699C1197.68 408.036 1065.1 489.692 984.586 636.083C904.071 782.474 906.11 938.165 989.14 983.829C1072.17 1029.49 1204.75 947.837 1285.26 801.446Z" fill="url(#paint2_linear_366_10925)"/>
</g>
<mask id="mask11_366_10925" style="mask-type:luminance" maskUnits="userSpaceOnUse" x="885" y="365" width="489" height="659">
<path d="M1373.63 365.644H885.774V1024H1373.63V365.644Z" fill="white"/>
</mask>
<g mask="url(#mask11_366_10925)">
<path opacity="0.4" d="M1223.14 859.819C1303.66 713.428 1310.87 562.826 1239.26 523.441C1167.64 484.055 1044.32 570.801 963.803 717.192C883.288 863.583 876.073 1014.18 947.687 1053.57C1019.3 1092.96 1142.63 1006.21 1223.14 859.819Z" fill="#13B0F9"/>
</g>
</g>
</g>
<mask id="mask12_366_10925" style="mask-type:luminance" maskUnits="userSpaceOnUse" x="0" y="0" width="1440" height="1024">
<path d="M1439.91 0.000244141H0V1024H1439.91V0.000244141Z" fill="white"/>
</mask>
<g mask="url(#mask12_366_10925)">
<path fill-rule="evenodd" clip-rule="evenodd" d="M-33.8499 -195.65H983.433C1175.95 -195.65 1343.96 -133.109 1485.33 -8.95682C1501.5 5.23416 1525.85 4.45871 1541.09 -10.7791L1846.47 -316.118C1858.38 -328.06 1875.32 -331.433 1890.91 -324.958C1906.53 -318.522 1916.11 -304.137 1916.11 -287.31V-100.462C1916.11 110.814 1840.81 292.582 1691.45 441.975L972.111 1161.3C960.207 1173.2 943.263 1176.57 927.675 1170.14C912.049 1163.7 902.472 1149.31 902.472 1132.45V945.562C902.472 734.325 977.772 552.557 1127.13 403.125L1229.84 300.414C1241.79 288.511 1245.12 271.567 1238.68 255.98C1232.25 240.432 1217.86 230.778 1201.03 230.778H611.859C400.616 230.778 218.804 155.48 69.4449 6.12595L-62.698 -126.052C-74.6017 -137.955 -77.975 -154.899 -71.5385 -170.486C-65.102 -186.112 -50.7167 -195.689 -33.8499 -195.689V-195.65ZM-112.756 327.013L-48.0025 1214.96C-32.6866 1425.65 657.612 1510.72 861.681 1565.39L1042.18 1613.78C1058.46 1618.16 1074.86 1612.54 1085.1 1599.2C1095.34 1585.86 1096.46 1568.53 1088.05 1553.99L579.404 673.025C473.783 490.054 317.678 370.284 113.609 315.614L-66.8856 267.225C-83.1708 262.882 -99.5723 268.465 -109.809 281.803C-120.045 295.219 -113.996 310.263 -112.756 327.013Z" fill="#101E2B"/>
</g>
<mask id="mask13_366_10925" style="mask-type:luminance" maskUnits="userSpaceOnUse" x="0" y="0" width="1440" height="1024">
<path d="M1439.91 0.000244141H0V1024H1439.91V0.000244141Z" fill="white"/>
</mask>
<g mask="url(#mask13_366_10925)">
<path opacity="0.5" d="M1053.03 1615.52C1049.43 1615.52 1045.74 1615.06 1042.06 1614.05L861.565 1565.66C819.805 1554.49 757.417 1541.97 685.22 1527.47C542.104 1498.78 363.974 1463.03 217.369 1412.97C137.726 1385.79 75.2997 1356.75 31.8725 1326.7C7.48348 1309.84 -11.5935 1292.19 -24.8155 1274.32C-38.9294 1255.24 -46.8393 1235.24 -48.3128 1214.96L-113.066 327.052C-113.376 323.02 -113.919 319.065 -114.5 315.265C-116.245 303.245 -117.913 291.923 -110.041 281.648C-99.7662 268.233 -83.1708 262.611 -66.8081 266.953L113.686 315.342C215.275 342.561 306.084 386.53 383.594 446.008C461.104 505.486 527.059 581.831 579.637 672.909L1088.28 1553.87C1096.73 1568.53 1095.61 1585.98 1085.29 1599.43C1077.31 1609.86 1065.52 1615.56 1053.03 1615.56V1615.52ZM-112.484 326.974L-47.7311 1214.92C-44.9006 1254.08 -17.9912 1291.54 32.2215 1326.24C75.6099 1356.25 137.959 1385.25 217.563 1412.43C364.091 1462.49 542.22 1498.2 685.336 1526.89C757.572 1541.39 819.96 1553.87 861.72 1565.08L1042.21 1613.47C1058.31 1617.81 1074.67 1612.27 1084.83 1599.01C1094.99 1585.78 1096.11 1568.57 1087.77 1554.11L579.133 673.141C473.744 490.597 317.096 370.4 113.492 315.846L-67.002 267.458C-83.1321 263.154 -99.4948 268.698 -109.615 281.92C-117.331 292.001 -115.664 303.206 -113.958 315.11C-113.415 318.948 -112.833 322.903 -112.523 326.936L-112.484 326.974ZM943.534 1173.63C938.222 1173.63 932.793 1172.58 927.559 1170.41C911.894 1163.93 902.162 1149.39 902.162 1132.45V945.562C902.162 840.409 921.122 741.344 958.501 651.041C995.879 560.777 1052.53 477.298 1126.9 402.931L1229.61 300.221C1241.4 288.473 1244.77 271.568 1238.37 256.097C1231.98 240.665 1217.67 231.088 1201 231.088H611.82C506.625 231.088 407.557 212.128 317.29 174.751C227.062 137.335 143.62 80.6871 69.2509 6.3201L-62.8919 -125.819C-74.8344 -137.8 -78.2465 -154.938 -71.81 -170.563C-65.3347 -186.228 -50.7943 -195.96 -33.8499 -195.96H983.433C1079.28 -195.96 1170.17 -180.218 1253.65 -149.16C1337.13 -118.103 1415.15 -71.0324 1485.52 -9.18918C1501.5 4.84671 1525.81 4.03247 1540.89 -11.0115L1846.28 -316.35C1858.22 -328.37 1875.4 -331.782 1891.02 -325.268C1906.69 -318.793 1916.38 -304.292 1916.38 -287.348V-100.461C1916.38 4.73038 1897.42 103.796 1860.04 194.06C1822.66 284.324 1766.01 367.803 1691.65 442.131L972.304 1161.45C964.356 1169.4 954.081 1173.59 943.534 1173.59V1173.63ZM-33.8499 -195.378C-50.5617 -195.378 -64.9081 -185.801 -71.2671 -170.369C-77.6649 -154.938 -74.2915 -138.071 -62.5041 -126.245L69.6387 5.89359C218.648 154.899 401.081 230.468 611.859 230.468H1201.03C1217.94 230.468 1232.48 240.2 1238.96 255.864C1245.43 271.529 1242.02 288.666 1230.04 300.609L1127.32 403.319C978.314 552.402 902.743 734.83 902.743 945.523V1132.41C902.743 1149.12 912.321 1163.47 927.753 1169.86C943.185 1176.26 960.052 1172.89 971.878 1161.1L1691.22 441.782C1840.23 292.776 1915.8 110.349 1915.8 -100.423V-287.309C1915.8 -304.021 1906.22 -318.328 1890.79 -324.687C1875.4 -331.123 1858.49 -327.75 1846.67 -315.924L1541.28 -10.585C1526 4.69162 1501.34 5.50583 1485.13 -8.72391C1344.15 -132.565 1175.33 -195.339 983.433 -195.339H-33.8499V-195.378Z" fill="url(#paint3_linear_366_10925)"/>
</g>
</g>
</g>
</g>
</g>
<defs>
<filter id="filter0_f_366_10925" x="-200" y="-200" width="1744.34" height="1424" filterUnits="userSpaceOnUse" color-interpolation-filters="sRGB">
<feFlood flood-opacity="0" result="BackgroundImageFix"/>
<feBlend mode="normal" in="SourceGraphic" in2="BackgroundImageFix" result="shape"/>
<feGaussianBlur stdDeviation="100" result="effect1_foregroundBlur_366_10925"/>
</filter>
<linearGradient id="paint0_linear_366_10925" x1="119.962" y1="-131.209" x2="865.057" y2="42.7515" gradientUnits="userSpaceOnUse">
<stop offset="0.14" stop-color="#4EEC91"/>
<stop offset="0.89" stop-color="#13B0F9"/>
</linearGradient>
<linearGradient id="paint1_linear_366_10925" x1="543.034" y1="916.751" x2="-24.9307" y2="404.081" gradientUnits="userSpaceOnUse">
<stop offset="0.14" stop-color="#4EEC91"/>
<stop offset="0.89" stop-color="#13B0F9"/>
</linearGradient>
<linearGradient id="paint2_linear_366_10925" x1="1276.8" y1="451.79" x2="985.535" y2="981.393" gradientUnits="userSpaceOnUse">
<stop offset="0.14" stop-color="#4EEC91"/>
<stop offset="0.89" stop-color="#13B0F9"/>
</linearGradient>
<linearGradient id="paint3_linear_366_10925" x1="-115.935" y1="643.519" x2="1916.42" y2="643.519" gradientUnits="userSpaceOnUse">
<stop stop-color="#4EEC91"/>
<stop offset="1" stop-color="#13B0F9"/>
</linearGradient>
</defs>
</svg>
