<svg width="8" height="12" viewBox="0 0 8 12" fill="none" xmlns="http://www.w3.org/2000/svg">
<path fill-rule="evenodd" clip-rule="evenodd" d="M3.72501 0.117157C3.87688 -0.0390524 4.12312 -0.0390524 4.27499 0.117157L7.3861 3.31716C7.53797 3.47337 7.53797 3.72663 7.3861 3.88284C7.23423 4.03905 6.988 4.03905 6.83612 3.88284L4 0.965685L1.16387 3.88284C1.012 4.03905 0.765773 4.03905 0.613903 3.88284C0.462032 3.72663 0.462032 3.47337 0.613903 3.31716L3.72501 0.117157Z" fill="currentColor"/>
<path fill-rule="evenodd" clip-rule="evenodd" d="M3.72501 11.8828C3.87688 12.0391 4.12312 12.0391 4.27499 11.8828L7.3861 8.68284C7.53797 8.52663 7.53797 8.27337 7.3861 8.11716C7.23423 7.96095 6.988 7.96095 6.83612 8.11716L4 11.0343L1.16387 8.11716C1.012 7.96095 0.765773 7.96095 0.613903 8.11716C0.462032 8.27337 0.462032 8.52663 0.613903 8.68284L3.72501 11.8828Z" fill="currentColor"/>
</svg>
