<svg width="24" height="24" viewBox="0 0 24 24" fill="none" xmlns="http://www.w3.org/2000/svg">
<path d="M13.1755 4.60024C13.1758 4.48174 13.2114 4.36598 13.2778 4.26753C13.3442 4.16909 13.4384 4.09238 13.5487 4.04707C13.6589 4.00176 13.7802 3.98988 13.8972 4.01292C14.0142 4.03597 14.1217 4.09291 14.2062 4.17657L19.8225 9.75266C19.8788 9.80841 19.9234 9.87463 19.9539 9.94753C19.9843 10.0204 20 10.0986 20 10.1775C20 10.2565 19.9843 10.3346 19.9539 10.4075C19.9234 10.4804 19.8788 10.5467 19.8225 10.6024H19.8201C19.7069 10.7145 19.5535 10.7775 19.3936 10.7775C19.2337 10.7775 19.0803 10.7145 18.967 10.6024L14.3839 6.04887V19.3542C14.3839 19.5134 14.3202 19.666 14.2069 19.7785C14.0936 19.8911 13.9399 19.9543 13.7797 19.9543C13.6195 19.9543 13.4658 19.8911 13.3525 19.7785C13.2392 19.666 13.1755 19.5134 13.1755 19.3542V4.60024Z" fill="currentColor"/>
</svg>
