<svg width="24" height="24" viewBox="0 0 24 24" fill="none" xmlns="http://www.w3.org/2000/svg">
<path d="M14.1826 4.40667C14.1826 6.99303 15.571 8.29314 16.767 9.52905C17.911 10.711 19 11.8367 19 13.981C19 17.4917 16.2121 20 12.6374 20C9.06206 20 6 17.5041 6 13.981C6 12.4933 6.71463 11.0546 7.86383 10.4067C8.0904 10.2791 8.36303 10.4118 8.46034 10.6504C9.20394 12.4736 10.1206 12.4415 10.5961 11.9746C10.8843 11.6923 10.9452 11.1604 10.5931 10.4702C8.80651 6.95947 11.977 4.43001 13.7131 4.0105C13.9627 3.95068 14.1699 4.15496 14.1826 4.40667ZM12.6374 18.9056C15.6527 18.9056 17.8857 16.8336 17.8857 13.981C17.8857 12.2759 17.0738 11.4354 15.8963 10.2178L15.8807 10.201C14.811 9.09422 13.5489 7.75617 13.1701 5.41714C12.6092 5.74099 12.1252 6.17878 11.7505 6.7012C11.1658 7.53584 10.8984 8.62218 11.59 9.98066C12.0379 10.8598 12.1672 11.9797 11.3842 12.7487C10.8962 13.228 10.0753 13.5512 9.18834 13.1762C8.62971 12.9398 8.18326 12.4795 7.82297 11.8703C7.40177 12.3854 7.11429 13.1398 7.11429 13.981C7.11429 16.7877 9.5568 18.9056 12.6374 18.9056Z" fill="currentColor"/>
</svg>
