<svg width="24" height="24" viewBox="0 0 24 24" fill="none" xmlns="http://www.w3.org/2000/svg">
<path d="M17.7631 5.70504H16.0284V4.44709C16.0284 4.21301 15.8225 3.98965 15.5809 4.00037C15.4629 4.00266 15.3504 4.05046 15.2669 4.13374C15.1835 4.21703 15.1356 4.32933 15.1333 4.44709V5.70504H8.86758V4.44709C8.86758 4.21301 8.66171 3.98965 8.42003 4.00037C8.30205 4.00266 8.18954 4.05046 8.1061 4.13374C8.02266 4.21703 7.97477 4.32933 7.97248 4.44709V5.70504H6.23776C5.64449 5.70575 5.07572 5.94131 4.65621 6.36003C4.2367 6.77876 4.00071 7.34647 4 7.93863V17.7664C4 18.9985 5.00431 20 6.23776 20H17.7622C18.9966 20 20 18.9985 20 17.7664V7.93863C20 7.3464 19.7644 6.77842 19.3449 6.35956C18.9254 5.94071 18.3565 5.70528 17.7631 5.70504ZM6.23776 6.59848H7.97248V7.12739C7.97248 7.36147 8.17835 7.58483 8.42003 7.57411C8.6626 7.56339 8.86758 7.37755 8.86758 7.12739V6.59848H15.1333V7.12739C15.1333 7.36147 15.3392 7.58483 15.5809 7.57411C15.8234 7.56339 16.0284 7.37755 16.0284 7.12739V6.59848H17.7622C18.5025 6.59848 19.1049 7.19976 19.1049 7.93863V9.35383H4.8951V7.93863C4.8951 7.19976 5.49751 6.59848 6.23776 6.59848ZM17.7631 19.1066H6.23776C5.49751 19.1066 4.8951 18.5053 4.8951 17.7664V10.2473H19.1049V17.7664C19.1049 18.1217 18.9636 18.4624 18.712 18.7137C18.4604 18.965 18.1191 19.1063 17.7631 19.1066Z" fill="currentColor"/>
</svg>
