<svg width="24" height="24" viewBox="0 0 24 24" fill="none" xmlns="http://www.w3.org/2000/svg">
<path d="M19.1476 11.4952C19.1476 11.0725 18.9796 10.6671 18.6807 10.3682C18.3818 10.0694 17.9763 9.90131 17.5537 9.90131H11.4952C11.2859 9.90131 11.0784 9.94233 10.885 10.0224C10.6917 10.1025 10.5162 10.2202 10.3682 10.3682C10.2202 10.5162 10.1025 10.6917 10.0224 10.885C9.94233 11.0784 9.90131 11.2859 9.90131 11.4952V17.5537C9.90131 17.9763 10.0694 18.3818 10.3682 18.6807C10.6671 18.9796 11.0725 19.1476 11.4952 19.1476H17.5537C17.9763 19.1476 18.3818 18.9796 18.6807 18.6807C18.9796 18.3818 19.1476 17.9763 19.1476 17.5537V11.4952ZM14.0987 6.95112V6.44632C14.0987 5.56237 13.3887 4.85242 12.5048 4.85242H6.44632C5.56237 4.85242 4.85242 5.56237 4.85242 6.44632V12.5048C4.85242 13.3887 5.56237 14.0987 6.44632 14.0987H6.95112C7.18626 14.0989 7.3764 14.2897 7.3764 14.5249C7.37623 14.7599 7.18616 14.95 6.95112 14.9502H6.44632C5.09179 14.9502 4 13.8593 4 12.5048V6.44632C4 5.09179 5.09179 4 6.44632 4H12.5048C13.8593 4 14.9502 5.09179 14.9502 6.44632V6.95112C14.95 7.18616 14.7599 7.37623 14.5249 7.3764C14.2897 7.3764 14.0989 7.18626 14.0987 6.95112ZM20 17.5537C20 18.2023 19.7421 18.8248 19.2835 19.2835C18.8248 19.7421 18.2023 20 17.5537 20H11.4952C10.8466 20 10.2241 19.7421 9.7654 19.2835C9.30684 18.8248 9.04981 18.2022 9.04981 17.5537V11.4952C9.04981 11.1741 9.11282 10.8562 9.23564 10.5596C9.35855 10.2628 9.5383 9.9925 9.7654 9.7654C9.9925 9.5383 10.2628 9.35855 10.5596 9.23564C10.8562 9.11282 11.1741 9.04981 11.4952 9.04981H17.5537C18.2022 9.04981 18.8248 9.30684 19.2835 9.7654C19.7421 10.2241 20 10.8466 20 11.4952V17.5537Z" fill="#FAFAFA"/>
</svg>
