<svg width="24" height="24" viewBox="0 0 24 24" fill="none" xmlns="http://www.w3.org/2000/svg">
<path d="M9.49889 4.6001C9.49889 4.44094 9.56254 4.2883 9.67585 4.17576C9.78915 4.06322 9.94282 4 10.1031 4C10.2633 4 10.417 4.06322 10.5303 4.17576C10.6436 4.2883 10.7072 4.44094 10.7072 4.6001L10.8245 19.4C10.8245 19.5186 10.7891 19.6346 10.7227 19.7332C10.6564 19.8318 10.5622 19.9087 10.4519 19.9542C10.3416 19.9996 10.2203 20.0116 10.1031 19.9886C9.98599 19.9656 9.87834 19.9086 9.79378 19.8249L4.1775 14.2476C4.12123 14.1919 4.07659 14.1256 4.04614 14.0527C4.01568 13.9798 4 13.9017 4 13.8227C4 13.7438 4.01568 13.6656 4.04614 13.5927C4.07659 13.5198 4.12123 13.4536 4.1775 13.3979H4.17991C4.29316 13.2857 4.44654 13.2228 4.60645 13.2228C4.76636 13.2228 4.91974 13.2857 5.03299 13.3979L9.61616 17.9538L9.49889 4.6001Z" fill="currentColor"/>
</svg>
