<svg width="24" height="24" viewBox="0 0 24 24" fill="none" xmlns="http://www.w3.org/2000/svg">
<path d="M14.6896 4C16.3434 4.00006 17.6015 4.28824 18.9784 4.98441C19.0803 5.03594 19.1665 5.11767 19.2254 5.21879C20.1688 6.83867 22 11.3168 22 16.6158C22 16.7773 21.9393 16.9322 21.8311 17.0473C20.9734 17.9591 20.1861 18.6361 19.338 19.1159C18.4837 19.5991 17.5948 19.8665 16.5508 19.9957C16.3224 20.024 16.0995 19.9103 15.9798 19.7049L14.8653 17.7937C14.2168 17.9605 13.1642 18.1543 12 18.1543C10.8351 18.1543 9.78196 17.9606 9.1335 17.7937L8.02022 19.7049C7.90051 19.9103 7.67764 20.024 7.44922 19.9957C6.40516 19.8665 5.51627 19.5991 4.66199 19.1159C3.8139 18.6361 3.0266 17.9591 2.16889 17.0473C2.06068 16.9322 2 16.7773 2 16.6158C2 11.3168 3.8312 6.83867 4.77459 5.21879L4.82399 5.14667C4.8777 5.07866 4.94508 5.0231 5.0216 4.98441C6.39852 4.28824 7.6566 4.00006 9.31043 4C9.5626 4 9.78677 4.16841 9.86765 4.41828L10.125 5.21398C10.164 5.20193 10.2046 5.18765 10.2468 5.17552C10.684 5.04978 11.2979 4.92311 12 4.92311C12.7021 4.92311 13.316 5.04978 13.7532 5.17552C13.795 5.18754 13.8352 5.20204 13.8739 5.21398L14.1324 4.41828L14.1691 4.32814C14.2697 4.12873 14.469 4 14.6896 4ZM14.7976 6.19719C14.7442 6.36196 14.6273 6.49587 14.4747 6.56499C14.3221 6.63409 14.1481 6.63235 13.9968 6.56018L13.9945 6.55898C13.99 6.55695 13.9817 6.5531 13.9704 6.54816C13.9477 6.53828 13.9115 6.52364 13.8635 6.50489C13.7672 6.46721 13.6233 6.41526 13.4419 6.36306C13.0769 6.25808 12.5704 6.15392 12 6.15392C11.4296 6.15392 10.9231 6.25808 10.5581 6.36306C10.3767 6.41526 10.2328 6.46721 10.1365 6.50489C10.0885 6.52364 10.0523 6.53828 10.0296 6.54816C10.0183 6.5531 10.01 6.55695 10.0055 6.55898H10.0021L10.0032 6.56018C9.85185 6.63235 9.67794 6.63409 9.52528 6.56499C9.37269 6.49587 9.25577 6.36196 9.20244 6.19719L8.89108 5.23922C7.67159 5.28191 6.71886 5.51975 5.69141 6.01689C4.82981 7.57902 3.23407 11.6037 3.17877 16.3622C3.91939 17.1293 4.56438 17.6624 5.22151 18.0341C5.82621 18.3762 6.46081 18.5925 7.21714 18.7192L7.98116 17.4067C7.72339 17.2907 7.49299 17.1662 7.30561 17.0521C7.12702 16.9434 6.98058 16.8425 6.87822 16.7685C6.82714 16.7315 6.78623 16.7004 6.75758 16.6783C6.74348 16.6674 6.73245 16.6584 6.72426 16.6519C6.72028 16.6487 6.71645 16.6467 6.71392 16.6447C6.71264 16.6436 6.71136 16.6418 6.71048 16.6411L6.70933 16.6398C6.71178 16.6364 6.74038 16.5972 7.07008 16.1543L6.70933 16.6398C6.45323 16.431 6.4064 16.0437 6.60593 15.7756C6.80534 15.5081 7.17465 15.4596 7.43084 15.6675L7.43199 15.6687C7.43264 15.6692 7.43347 15.6695 7.43543 15.6711C7.43961 15.6744 7.44635 15.6804 7.45611 15.6879C7.47599 15.7032 7.50729 15.7269 7.54802 15.7564C7.62969 15.8155 7.74948 15.8984 7.89729 15.9884C8.19753 16.1712 8.59264 16.3714 9.00597 16.48C9.01956 16.4836 9.03288 16.4886 9.04619 16.4932C9.44046 16.6288 10.6337 16.9235 12 16.9235C13.3663 16.9235 14.5595 16.6288 14.9538 16.4932L14.994 16.48C15.4074 16.3714 15.8025 16.1712 16.1027 15.9884C16.2505 15.8984 16.3703 15.8155 16.452 15.7564C16.4927 15.7269 16.524 15.7032 16.5439 15.6879C16.5537 15.6804 16.5604 15.6744 16.5646 15.6711C16.566 15.67 16.5673 15.6693 16.568 15.6687C16.8242 15.4599 17.1944 15.5078 17.3941 15.7756C17.5936 16.0437 17.5479 16.431 17.2918 16.6398L16.9299 16.1543C17.2596 16.5972 17.2894 16.6364 17.2918 16.6398L17.2907 16.6411C17.2898 16.6418 17.2874 16.6436 17.2861 16.6447C17.2836 16.6467 17.2797 16.6487 17.2757 16.6519C17.2676 16.6584 17.2565 16.6674 17.2424 16.6783C17.2138 16.7004 17.1729 16.7315 17.1218 16.7685C17.0194 16.8425 16.873 16.9434 16.6944 17.0521C16.5068 17.1664 16.2759 17.2905 16.0177 17.4067L16.7817 18.7192C17.5385 18.5925 18.1735 18.3763 18.7785 18.0341C19.4355 17.6625 20.0797 17.129 20.8201 16.3622C20.7648 11.6032 19.169 7.57865 18.3074 6.01689C17.28 5.51991 16.3274 5.28178 15.1078 5.23922L14.7976 6.19719ZM9.6011 12.4799C9.56669 12.2747 9.48424 12.0917 9.37017 11.9546C9.22004 11.7742 9.0346 11.6926 8.86236 11.6926C8.69023 11.6927 8.50572 11.7743 8.3557 11.9546C8.20335 12.1377 8.10639 12.402 8.10639 12.6926C8.10639 12.9832 8.20335 13.2475 8.3557 13.4306C8.50572 13.6109 8.69023 13.6925 8.86236 13.6926C9.0346 13.6926 9.22004 13.611 9.37017 13.4306C9.52243 13.2475 9.61949 12.9831 9.61949 12.6926L9.6011 12.4799ZM15.8936 12.6926C15.8936 12.402 15.7967 12.1377 15.6443 11.9546C15.4943 11.7743 15.3098 11.6927 15.1376 11.6926C14.9654 11.6926 14.78 11.7742 14.6298 11.9546C14.4776 12.1377 14.3805 12.4021 14.3805 12.6926C14.3805 12.9831 14.4776 13.2475 14.6298 13.4306C14.78 13.611 14.9654 13.6926 15.1376 13.6926C15.3098 13.6925 15.4943 13.6109 15.6443 13.4306C15.7967 13.2475 15.8936 12.9832 15.8936 12.6926ZM10.7868 12.9041C10.7463 13.396 10.5651 13.8695 10.2571 14.2395C9.90297 14.6649 9.40319 14.9234 8.86236 14.9234C8.32177 14.9233 7.82281 14.6647 7.46875 14.2395C7.11683 13.8167 6.92992 13.2589 6.92992 12.6926C6.92992 12.1263 7.11683 11.5685 7.46875 11.1457C7.82281 10.7205 8.32177 10.4619 8.86236 10.4618C9.40319 10.4618 9.90297 10.7203 10.2571 11.1457C10.609 11.5685 10.796 12.1263 10.796 12.6926L10.7868 12.9041ZM17.0701 12.6926C17.0701 13.2589 16.8832 13.8167 16.5313 14.2395C16.1772 14.6647 15.6782 14.9233 15.1376 14.9234C14.5968 14.9234 14.097 14.6649 13.7429 14.2395C13.4349 13.8695 13.2537 13.396 13.2132 12.9041L13.204 12.6926C13.204 12.1263 13.391 11.5685 13.7429 11.1457C14.097 10.7203 14.5968 10.4618 15.1376 10.4618C15.6782 10.4619 16.1772 10.7205 16.5313 11.1457C16.8832 11.5685 17.0701 12.1263 17.0701 12.6926Z" fill="currentColor"/>
</svg>
