<svg width="19" height="18" viewBox="0 0 19 18" fill="none" xmlns="http://www.w3.org/2000/svg">
<path d="M15.3892 2.91639C15.7904 2.63822 16.3428 2.73606 16.6228 3.13473C19.2401 6.86238 18.6447 11.9535 15.2352 14.9796C11.824 18.007 6.67782 18.0066 3.26616 14.9796C-0.144025 11.9535 -0.740669 6.86243 1.87687 3.13473C2.15685 2.73608 2.70926 2.63819 3.11045 2.91639C3.51147 3.19464 3.61011 3.74357 3.33018 4.14214C1.22491 7.14019 1.70551 11.2343 4.44611 13.6662C7.1855 16.0969 11.3145 16.0967 14.0535 13.6662C16.7939 11.2342 17.2745 7.14018 15.1694 4.14214C14.8897 3.74369 14.9885 3.19471 15.3892 2.91639ZM8.36485 9.55917V1.1302C8.36521 0.644381 8.76167 0.25 9.25068 0.25C9.73934 0.250407 10.1361 0.644632 10.1365 1.1302V9.55917C10.1361 10.0447 9.73933 10.439 9.25068 10.4394C8.76168 10.4394 8.36522 10.045 8.36485 9.55917Z" fill="#FAFAFA" stroke="#0C0A1A" stroke-width="0.5" stroke-linecap="round" stroke-linejoin="round"/>
</svg>
