<svg width="24" height="24" viewBox="0 0 24 24" fill="none" xmlns="http://www.w3.org/2000/svg">
<path d="M20.4893 11.582C20.4413 10.6086 20.2263 9.64942 19.8525 8.74707C19.4254 7.71591 18.8 6.77849 18.0107 5.98926C17.2215 5.20003 16.2841 4.57462 15.2529 4.14746C14.2217 3.7203 13.1162 3.5 12 3.5C10.8838 3.5 9.77834 3.7203 8.74707 4.14746C7.7159 4.57462 6.77849 5.20003 5.98926 5.98926C5.20003 6.77849 4.57462 7.7159 4.14746 8.74707C3.7203 9.77834 3.5 10.8838 3.5 12L3.51074 12.418C3.55867 13.3914 3.7737 14.3506 4.14746 15.2529C4.57462 16.2841 5.20003 17.2215 5.98926 18.0107C6.77849 18.8 7.71591 19.4254 8.74707 19.8525C9.77834 20.2797 10.8838 20.5 12 20.5L12.418 20.4893C13.3914 20.4413 14.3506 20.2263 15.2529 19.8525C16.2841 19.4254 17.2215 18.8 18.0107 18.0107C18.8 17.2215 19.4254 16.2841 19.8525 15.2529C20.2797 14.2217 20.5 13.1162 20.5 12L20.4893 11.582ZM11.5 16.0098V16C11.5 15.7239 11.7239 15.5 12 15.5C12.2761 15.5 12.5 15.7239 12.5 16V16.0098C12.5 16.2859 12.2761 16.5098 12 16.5098C11.7239 16.5098 11.5 16.2859 11.5 16.0098ZM11.5 13V9C11.5 8.72386 11.7239 8.5 12 8.5C12.2761 8.5 12.5 8.72386 12.5 9V13C12.5 13.2761 12.2761 13.5 12 13.5C11.7239 13.5 11.5 13.2761 11.5 13ZM21.4883 12.4668C21.4348 13.5549 21.1951 14.6271 20.7773 15.6357C20.2999 16.7883 19.5999 17.8356 18.7178 18.7178C17.8356 19.5999 16.7883 20.2999 15.6357 20.7773C14.6271 21.1951 13.5549 21.4348 12.4668 21.4883L12 21.5C10.7524 21.5 9.51685 21.2548 8.36426 20.7773C7.21168 20.2999 6.16437 19.5999 5.28223 18.7178C4.40008 17.8356 3.70008 16.7883 3.22266 15.6357C2.80487 14.6271 2.56525 13.5549 2.51172 12.4668L2.5 12C2.5 10.7524 2.74524 9.51685 3.22266 8.36426C3.70008 7.21168 4.40008 6.16437 5.28223 5.28223C6.16428 4.40017 7.21182 3.70105 8.36426 3.22363C9.51685 2.74621 10.7524 2.5 12 2.5C13.2476 2.5 14.4831 2.74621 15.6357 3.22363C16.7882 3.70105 17.8357 4.40017 18.7178 5.28223C19.5999 6.16437 20.2999 7.21168 20.7773 8.36426C21.2548 9.51685 21.5 10.7524 21.5 12L21.4883 12.4668Z" fill="#FAFAFA"/>
</svg>
