<svg width="24" height="24" viewBox="0 0 24 24" fill="none" xmlns="http://www.w3.org/2000/svg">
<path d="M19.002 14.999C19.1347 14.999 19.2618 15.0517 19.3556 15.1455C19.4494 15.2392 19.502 15.3664 19.502 15.499V17.499C19.502 18.162 19.239 18.799 18.77 19.269C18.301 19.738 17.67 20.001 17 20.001H7.00005C6.33705 20.001 5.70005 19.738 5.23005 19.269C4.99768 19.0366 4.81342 18.7606 4.68781 18.4569C4.56221 18.1532 4.49772 17.8277 4.49805 17.499V15.499C4.49805 15.3664 4.55073 15.2392 4.64449 15.1455C4.73826 15.0517 4.86544 14.999 4.99805 14.999C5.13066 14.999 5.25783 15.0517 5.3516 15.1455C5.44537 15.2392 5.49805 15.3664 5.49805 15.499V17.499C5.49831 17.8965 5.65633 18.2776 5.93739 18.5587C6.21845 18.8397 6.59957 18.9978 6.99705 18.998H16.997C17.3945 18.9978 17.7757 18.8397 18.0567 18.5587C18.3378 18.2776 18.4958 17.8965 18.496 17.499V15.499C18.496 15.3664 18.5487 15.2392 18.6425 15.1455C18.7363 15.0517 18.8634 14.999 18.996 14.999H19.002ZM12.002 3.99902C12.1347 3.99902 12.2618 4.0517 12.3556 4.14547C12.4494 4.23924 12.502 4.36642 12.502 4.49902V13.289L14.652 11.139C14.6985 11.0925 14.7537 11.0557 14.8145 11.0305C14.8752 11.0053 14.9403 10.9924 15.006 10.9924C15.0718 10.9924 15.1369 11.0053 15.1976 11.0305C15.2584 11.0557 15.3136 11.0925 15.36 11.139C15.4065 11.1855 15.4434 11.2407 15.4686 11.3014C15.4937 11.3622 15.5067 11.4273 15.5067 11.493C15.5067 11.5588 15.4937 11.6239 15.4686 11.6846C15.4434 11.7453 15.4065 11.8005 15.36 11.847L12.36 14.847C12.3136 14.8936 12.2584 14.9306 12.1977 14.9558C12.1369 14.981 12.0718 14.994 12.006 14.994C11.9403 14.994 11.8751 14.981 11.8144 14.9558C11.7537 14.9306 11.6985 14.8936 11.652 14.847L8.65205 11.847C8.60538 11.7997 8.56905 11.7457 8.54305 11.685C8.50405 11.594 8.50505 11.559 8.50505 11.493C8.50487 11.3939 8.53414 11.297 8.58916 11.2145C8.64418 11.1321 8.72245 11.0679 8.81405 11.03C8.8749 11.0047 8.94015 10.9917 9.00605 10.9917C9.07195 10.9917 9.1372 11.0047 9.19805 11.03C9.25869 11.0554 9.31374 11.0924 9.36005 11.139L11.51 13.289V4.49902C11.51 4.36642 11.5627 4.23924 11.6565 4.14547C11.7503 4.0517 11.8774 3.99902 12.01 3.99902H12.002Z" fill="#FAFAFA"/>
</svg>
