<svg width="24" height="24" viewBox="0 0 24 24" fill="none" xmlns="http://www.w3.org/2000/svg">
<path d="M15.2426 20.5263V18.0829C15.2426 18.0702 15.2434 18.0568 15.2444 18.0441C15.2716 17.7071 15.2253 17.3681 15.1075 17.0495C14.9896 16.7308 14.8025 16.4394 14.5588 16.1946C14.4304 16.0657 14.3873 15.8741 14.4478 15.7025C14.5085 15.5307 14.6627 15.4085 14.8438 15.3888C16.1914 15.2425 17.4847 14.9273 18.44 14.1454C19.3701 13.3839 20.0526 12.1176 20.0526 9.89977C20.0524 8.83647 19.6324 7.81112 18.8758 7.03729C18.7466 6.90497 18.706 6.70944 18.7721 6.53677C19.092 5.70208 19.1011 4.78902 18.8055 3.95183C18.7106 3.95723 18.583 3.97058 18.4215 4.00549C17.9339 4.11095 17.1321 4.39862 15.9753 5.15363C15.8632 5.22664 15.7253 5.24877 15.596 5.2147C13.6706 4.70742 11.6409 4.70742 9.71548 5.2147C9.58611 5.2487 9.4482 5.22669 9.33615 5.15363C8.17917 4.39849 7.37757 4.1109 6.88996 4.00549C6.72778 3.97044 6.60002 3.95718 6.50508 3.95183C6.20961 4.78889 6.21949 5.70223 6.53931 6.53677C6.60552 6.7095 6.56493 6.90496 6.43569 7.03729C5.67343 7.81685 5.253 8.85172 5.25885 9.9229V9.92475C5.25885 12.1241 5.94033 13.383 6.87145 14.1454C7.82847 14.9289 9.12403 15.2524 10.4741 15.4157C10.6537 15.4374 10.8052 15.5593 10.8646 15.7302C10.9239 15.9011 10.881 16.0913 10.7535 16.2196C10.5127 16.4619 10.3274 16.7504 10.2095 17.0652C10.0918 17.38 10.0439 17.7152 10.068 18.0487C10.0688 18.0599 10.0689 18.0717 10.0689 18.0829V20.5263C10.0689 20.7879 9.85675 20.9999 9.59521 21C9.33359 21 9.12151 20.7879 9.12151 20.5263V18.094C9.09132 17.6315 9.15952 17.1681 9.32228 16.7331C9.38693 16.5603 9.46606 16.3935 9.5582 16.2344C8.40195 16.0297 7.22156 15.6564 6.27101 14.8781C5.14764 13.9583 4.40872 12.533 4.32071 10.3679L4.31146 9.92475C4.3055 8.69986 4.75097 7.51916 5.55769 6.5932C5.22055 5.51324 5.2827 4.34808 5.7418 3.30514L5.79453 3.2154C5.85584 3.13223 5.94324 3.07066 6.04434 3.04146L6.17571 3.49665C6.04428 3.04156 6.04526 3.04054 6.04526 3.04054H6.04804L6.05266 3.03869C6.05543 3.03794 6.05868 3.03766 6.06191 3.03684C6.06863 3.03513 6.07632 3.03322 6.08504 3.03129C6.10293 3.02733 6.12538 3.02242 6.15166 3.01833C6.20455 3.01012 6.27471 3.00309 6.36167 3.00076C6.53578 2.9961 6.77703 3.01181 7.0898 3.0794C7.68474 3.208 8.53537 3.52555 9.67662 4.24789C11.6322 3.76752 13.6792 3.76756 15.6348 4.24789C16.7762 3.52547 17.6267 3.20801 18.2217 3.0794C18.5344 3.0118 18.7757 2.99612 18.9498 3.00076C19.0367 3.00309 19.1069 3.01012 19.1598 3.01833C19.1862 3.02243 19.2085 3.02731 19.2264 3.03129C19.2351 3.03322 19.2428 3.03513 19.2495 3.03684C19.253 3.03771 19.2568 3.0379 19.2597 3.03869L19.2634 3.04054H19.2662C19.2662 3.04054 19.2668 3.04107 19.1829 3.33197L19.2671 3.04146C19.4019 3.08039 19.5131 3.17677 19.5697 3.30514C20.0288 4.34819 20.0901 5.51314 19.7528 6.5932C20.5541 7.51267 20.9998 8.68332 21 9.89977C21 12.331 20.2397 13.8962 19.0404 14.8781C18.0912 15.6553 16.9136 16.023 15.7588 16.2169C15.8515 16.3777 15.931 16.5463 15.9957 16.7211C16.159 17.1629 16.2252 17.6335 16.1899 18.1024V20.5263C16.1899 20.7879 15.9779 21 15.7162 21C15.4548 20.9998 15.2426 20.7878 15.2426 20.5263Z" fill="#FAFAFA"/>
<path d="M3.25694 15.8479C3.48957 15.7285 3.77481 15.8198 3.89439 16.0524C4.51025 17.2517 5.30916 18.005 6.22124 18.3764C7.13453 18.7482 8.21986 18.7608 9.45199 18.3718C9.70146 18.293 9.96811 18.4313 10.0469 18.6808C10.1256 18.9301 9.98714 19.1959 9.73788 19.2748C8.34695 19.714 7.02753 19.7271 5.86412 19.2535C4.6993 18.7792 3.74837 17.8404 3.05247 16.4854C2.93301 16.2527 3.0244 15.9675 3.25694 15.8479Z" fill="#FAFAFA"/>
</svg>
