<svg width="19" height="15" viewBox="0 0 19 15" fill="none" xmlns="http://www.w3.org/2000/svg">
<path d="M18.0002 1.5C18.0002 1.22614 17.7741 1 17.5002 1H1.50024C1.22639 1 1.00024 1.22614 1.00024 1.5V13.5C1.00024 13.7739 1.22639 14 1.50024 14H17.5002C17.7741 14 18.0002 13.7739 18.0002 13.5V1.5ZM19.0002 13.5C19.0002 14.3261 18.3264 15 17.5002 15H1.50024C0.674102 15 0.000244141 14.3261 0.000244141 13.5V1.5C0.000244141 0.673858 0.674102 0 1.50024 0H17.5002C18.3264 0 19.0002 0.673858 19.0002 1.5V13.5Z" fill="#FAFAFA"/>
<path d="M18.2394 1.57314C18.475 1.42918 18.7829 1.50354 18.9269 1.73916C19.0709 1.97478 18.9965 2.28267 18.7609 2.42666L9.76089 7.92666C9.60085 8.02444 9.39944 8.02444 9.2394 7.92666L0.239401 2.42666C0.00378734 2.28267 -0.0705762 1.97478 0.0733859 1.73916C0.217372 1.50354 0.525264 1.42918 0.760886 1.57314L9.50014 6.91299L18.2394 1.57314Z" fill="#FAFAFA"/>
</svg>
