<svg width="24" height="24" viewBox="0 0 24 24" fill="none" xmlns="http://www.w3.org/2000/svg">
<path d="M3.50453 3.00002C3.57103 3.00059 3.63708 3.01449 3.69819 3.04073C3.75929 3.06699 3.81486 3.10511 3.86107 3.15296L20.8536 20.1508C20.9448 20.2453 20.9957 20.372 20.9946 20.5034C20.9934 20.6348 20.9405 20.7611 20.8476 20.854C20.7548 20.9467 20.6291 20.9987 20.498 21C20.3996 21.0008 20.3035 20.9731 20.2219 20.9205L20.1455 20.8599L14.9544 15.6677L14.8471 15.7909C14.5078 16.1808 14.0921 16.4971 13.6255 16.7195C13.1589 16.9418 12.6514 17.0661 12.1349 17.084C11.6183 17.1018 11.1032 17.0133 10.6223 16.8238C10.1416 16.6342 9.70458 16.3471 9.33918 15.9816C8.97391 15.616 8.68744 15.1793 8.498 14.6984C8.30853 14.2174 8.21995 13.7025 8.2378 13.1858C8.25567 12.6692 8.38009 12.1618 8.60228 11.6951C8.82452 11.2284 9.14013 10.8119 9.52987 10.4725L9.65301 10.3653L9.53781 10.2491L7.3698 8.08001L7.26354 8.15946C4.89915 9.92743 4.04496 12.6151 3.98918 12.8074L3.95045 12.9018C3.83926 13.1074 3.59495 13.2133 3.36251 13.1431C3.09571 13.0624 2.94698 12.787 3.02683 12.5224L3.02783 12.5194C3.02783 12.5194 3.03107 12.5072 3.03875 12.4837C3.04661 12.4596 3.0589 12.4247 3.0745 12.3804C3.10569 12.2918 3.15239 12.1647 3.21652 12.007C3.34506 11.6908 3.54279 11.2511 3.82035 10.7496C4.37597 9.74577 5.25057 8.49736 6.53358 7.48412L6.66766 7.37785L3.15296 3.86108L3.08841 3.7856C3.06962 3.75837 3.05386 3.72876 3.04074 3.6982C3.01461 3.63724 3.00064 3.57187 3.00002 3.50553C2.99945 3.43899 3.01158 3.37246 3.03677 3.31087C3.06196 3.24931 3.09899 3.19304 3.14601 3.14601C3.19305 3.09896 3.24932 3.06196 3.31087 3.03676C3.37228 3.01163 3.43819 2.99951 3.50453 3.00002Z" fill="currentColor"/>
<path d="M12.0713 9.54591C12.4722 9.55297 12.8703 9.62347 13.2501 9.75646C13.7396 9.9279 14.1889 10.1991 14.569 10.552C14.9491 10.9049 15.2526 11.3328 15.4599 11.8083C15.6581 12.2632 15.7629 12.7527 15.7717 13.2484L12.0713 9.54591Z" fill="currentColor"/>
<path d="M12.0018 5.62294C15.4126 5.62296 17.6483 7.32488 19.0391 9.04238C20.0842 10.3331 20.6485 11.6293 20.8685 12.2066L20.9787 12.5174C21.0009 12.5917 21.0061 12.6705 20.9926 12.7469C20.979 12.8234 20.9468 12.8952 20.9002 12.9574C20.8535 13.0197 20.7933 13.0709 20.7235 13.1054C20.6537 13.1398 20.5768 13.1567 20.499 13.156L20.4106 13.155C20.2295 13.123 20.0724 12.9927 20.0164 12.8074L20.0154 12.8054L19.8952 12.4638C19.6828 11.9036 19.1786 10.7547 18.2555 9.62337C17.0219 8.11134 15.0353 6.62517 12.0028 6.62504C11.1613 6.6195 10.3246 6.7461 9.52192 6.99747L8.74132 6.21486C9.68283 5.84854 10.7637 5.62295 12.0018 5.62294Z" fill="currentColor"/>
</svg>
