<svg width="24" height="24" viewBox="0 0 24 24" fill="none" xmlns="http://www.w3.org/2000/svg">
<path d="M20.4893 12.418C20.4413 13.3914 20.2263 14.3506 19.8525 15.2529C19.4254 16.2841 18.8 17.2215 18.0107 18.0107C17.2215 18.8 16.2841 19.4254 15.2529 19.8525C14.2217 20.2797 13.1162 20.5 12 20.5C10.8838 20.5 9.77834 20.2797 8.74707 19.8525C7.7159 19.4254 6.77849 18.8 5.98926 18.0107C5.20003 17.2215 4.57462 16.2841 4.14746 15.2529C3.7203 14.2217 3.5 13.1162 3.5 12L3.51074 11.582C3.55867 10.6086 3.7737 9.64942 4.14746 8.74707C4.57462 7.7159 5.20003 6.77849 5.98926 5.98926C6.77849 5.20003 7.71591 4.57462 8.74707 4.14746C9.77834 3.7203 10.8838 3.5 12 3.5L12.418 3.51074C13.3914 3.55867 14.3506 3.7737 15.2529 4.14746C16.2841 4.57462 17.2215 5.20003 18.0107 5.98926C18.8 6.77849 19.4254 7.71591 19.8525 8.74707C20.2797 9.77834 20.5 10.8838 20.5 12L20.4893 12.418ZM11.5 7.99023V8C11.5 8.27614 11.7239 8.5 12 8.5C12.2761 8.5 12.5 8.27614 12.5 8V7.99023C12.5 7.71409 12.2761 7.49023 12 7.49023C11.7239 7.49023 11.5 7.71409 11.5 7.99023ZM11.5 11V15C11.5 15.2761 11.7239 15.5 12 15.5C12.2761 15.5 12.5 15.2761 12.5 15V11C12.5 10.7239 12.2761 10.5 12 10.5C11.7239 10.5 11.5 10.7239 11.5 11ZM21.4883 11.5332C21.4348 10.4451 21.1951 9.37287 20.7773 8.36426C20.2999 7.21168 19.5999 6.16437 18.7178 5.28223C17.8356 4.40008 16.7883 3.70008 15.6357 3.22266C14.6271 2.80487 13.5549 2.56525 12.4668 2.51172L12 2.5C10.7524 2.5 9.51685 2.74524 8.36426 3.22266C7.21168 3.70008 6.16437 4.40008 5.28223 5.28223C4.40008 6.16437 3.70008 7.21168 3.22266 8.36426C2.80487 9.37287 2.56525 10.4451 2.51172 11.5332L2.5 12C2.5 13.2476 2.74524 14.4831 3.22266 15.6357C3.70008 16.7883 4.40008 17.8356 5.28223 18.7178C6.16428 19.5998 7.21182 20.299 8.36426 20.7764C9.51685 21.2538 10.7524 21.5 12 21.5C13.2476 21.5 14.4831 21.2538 15.6357 20.7764C16.7882 20.299 17.8357 19.5998 18.7178 18.7178C19.5999 17.8356 20.2999 16.7883 20.7773 15.6357C21.2548 14.4831 21.5 13.2476 21.5 12L21.4883 11.5332Z" fill="#FAFAFA"/>
</svg>
