<svg width="24" height="24" viewBox="0 0 24 24" fill="none" xmlns="http://www.w3.org/2000/svg">
<path d="M19.5 12C19.5 7.85786 16.1421 4.5 12 4.5C7.85786 4.5 4.5 7.85786 4.5 12C4.5 16.1421 7.85786 19.5 12 19.5C16.1421 19.5 19.5 16.1421 19.5 12ZM11.7881 7.10449C14.0577 7.00434 15.2386 8.3917 15.6484 9.22656C15.7701 9.47447 15.6678 9.77484 15.4199 9.89648C15.1721 10.0178 14.8726 9.91475 14.751 9.66699C14.4553 9.06473 13.5443 7.9557 11.6494 8.11621C9.81291 8.27226 8.34836 10.0015 8.5127 12.3398C8.67412 14.6363 10.4289 15.9003 11.9658 15.9004C12.8989 15.9004 13.6001 15.5216 14.0762 15.1338C14.3144 14.9397 14.4934 14.7457 14.6113 14.6016C14.6701 14.5298 14.7129 14.4705 14.7402 14.4316C14.7536 14.4126 14.7629 14.3983 14.7686 14.3896C14.7714 14.3853 14.7736 14.3821 14.7744 14.3809L14.7754 14.3799C14.9204 14.1463 15.2273 14.0738 15.4619 14.2178C15.6674 14.3442 15.7491 14.5951 15.6699 14.8135L15.626 14.9053L15.623 14.9092C15.6219 14.911 15.6208 14.9134 15.6191 14.916C15.6157 14.9214 15.6111 14.9289 15.6055 14.9375C15.5943 14.9546 15.5785 14.9775 15.5586 15.0059C15.5185 15.063 15.4606 15.1416 15.3848 15.2344C15.2333 15.4195 15.0076 15.6643 14.707 15.9092C14.1051 16.3996 13.1887 16.9004 11.9658 16.9004C9.91011 16.9003 7.71339 15.2365 7.51465 12.4102C7.31899 9.62613 9.08896 7.32949 11.5645 7.11914L11.7881 7.10449ZM20.5 12C20.5 16.6944 16.6944 20.5 12 20.5C7.30558 20.5 3.5 16.6944 3.5 12C3.5 7.30558 7.30558 3.5 12 3.5C16.6944 3.5 20.5 7.30558 20.5 12Z" fill="currentColor"/>
</svg>
