<svg width="24" height="24" viewBox="0 0 24 24" fill="none" xmlns="http://www.w3.org/2000/svg">
<path d="M4 14.7822C4.00006 14.0957 4.13638 13.416 4.40082 12.7824C4.66534 12.1488 5.05284 11.5735 5.54101 11.0907C5.5487 11.0831 5.55668 11.0752 5.56479 11.0681L6.05166 10.6389C6.29156 10.4272 6.65722 10.4501 6.86915 10.6899C7.08102 10.9297 7.05885 11.2954 6.81933 11.5074L6.34492 11.9253C5.97091 12.2979 5.6743 12.7413 5.47081 13.2286C5.26538 13.7206 5.15949 14.2489 5.15944 14.7822C5.15944 15.3154 5.26545 15.8437 5.47081 16.3357C5.67629 16.8279 5.97701 17.2754 6.35624 17.6504C7.12773 18.4133 8.16984 18.8405 9.25483 18.8405C10.3265 18.8404 11.3544 18.422 12.1229 17.6764L12.4625 17.2212C12.6536 16.9643 13.0174 16.9102 13.2744 17.1012C13.5312 17.2923 13.5842 17.6562 13.3932 17.9131L13.0253 18.4079C13.0078 18.4315 12.9884 18.4541 12.9675 18.4747C11.9791 19.4522 10.6449 19.9999 9.25483 20C7.86458 20 6.52955 19.4523 5.54101 18.4747C5.05277 17.9919 4.66537 17.4167 4.40082 16.783C4.13625 16.1493 4 15.4689 4 14.7822ZM14.3738 8.80793C14.6002 8.58197 14.9673 8.58167 15.1935 8.80793C15.4198 9.03419 15.4195 9.4013 15.1935 9.62774L9.62734 15.1943C9.40091 15.4203 9.03383 15.4206 8.80759 15.1943C8.58134 14.9681 8.58165 14.601 8.80759 14.3745L14.3738 8.80793ZM18.8406 9.21897C18.8406 8.14256 18.4127 7.10967 17.6517 6.34848C16.8908 5.58742 15.8587 5.15971 14.7825 5.15952C13.7114 5.15944 12.6836 5.58301 11.9236 6.33716L11.5114 6.81387C11.3021 7.05618 10.9362 7.08319 10.6939 6.87389C10.4519 6.66459 10.4248 6.29858 10.6339 6.05633L11.0642 5.55924L11.0925 5.52866C12.0711 4.55014 13.3987 3.9999 14.7825 4C16.1662 4.00019 17.4931 4.55015 18.4714 5.52866C19.4499 6.50732 20.0001 7.83504 20 9.21897C19.9998 10.6026 19.4498 11.9297 18.4714 12.9081C18.4619 12.9177 18.4511 12.9276 18.4409 12.9364L17.9461 13.3667C17.7045 13.5765 17.3385 13.5504 17.1286 13.309C16.9187 13.0674 16.9439 12.7015 17.1852 12.4914L17.6596 12.0781C18.4149 11.3181 18.8404 10.2909 18.8406 9.21897Z" fill="currentColor"/>
</svg>
