<svg width="24" height="24" viewBox="0 0 24 24" fill="none" xmlns="http://www.w3.org/2000/svg">
<path d="M7.84975 9.10329H4.7142C4.61025 9.10329 4.51055 9.14541 4.43705 9.22041C4.36355 9.2954 4.32225 9.39711 4.32225 9.50316V19.1001C4.32225 19.2062 4.36355 19.3079 4.43705 19.3829C4.51055 19.4579 4.61025 19.5 4.7142 19.5H7.84975C7.9537 19.5 8.05339 19.4579 8.12689 19.3829C8.20039 19.3079 8.24169 19.2062 8.24169 19.1001V9.50316C8.24169 9.39711 8.20039 9.2954 8.12689 9.22041C8.05339 9.14541 7.9537 9.10329 7.84975 9.10329ZM7.4578 18.7003H5.10614V9.90303H7.4578V18.7003ZM16.0806 9.10329C15.23 9.10329 14.403 9.3896 13.7289 9.91823V9.50316C13.7289 9.39711 13.6876 9.2954 13.6141 9.22041C13.5406 9.14541 13.4409 9.10329 13.337 9.10329H10.2014C10.0975 9.10329 9.99776 9.14541 9.92426 9.22041C9.85076 9.2954 9.80946 9.39711 9.80946 9.50316V19.1001C9.80946 19.2062 9.85076 19.3079 9.92426 19.3829C9.99776 19.4579 10.0975 19.5 10.2014 19.5H13.337C13.4409 19.5 13.5406 19.4579 13.6141 19.3829C13.6876 19.3079 13.7289 19.2062 13.7289 19.1001V14.7015C13.7289 14.3834 13.8528 14.0782 14.0733 13.8533C14.2938 13.6283 14.5929 13.5019 14.9047 13.5019C15.2166 13.5019 15.5157 13.6283 15.7362 13.8533C15.9567 14.0782 16.0806 14.3834 16.0806 14.7015V19.1001C16.0806 19.2062 16.1219 19.3079 16.1954 19.3829C16.2689 19.4579 16.3686 19.5 16.4725 19.5H19.6081C19.712 19.5 19.8117 19.4579 19.8852 19.3829C19.9587 19.3079 20 19.2062 20 19.1001V13.102C19.9988 12.0419 19.5854 11.0255 18.8506 10.2759C18.1159 9.52626 17.1197 9.10456 16.0806 9.10329ZM19.2161 18.7003H16.8645V14.7015C16.8645 14.1713 16.658 13.6627 16.2905 13.2877C15.9229 12.9128 15.4245 12.7021 14.9047 12.7021C14.385 12.7021 13.8865 12.9128 13.519 13.2877C13.1515 13.6627 12.945 14.1713 12.945 14.7015V18.7003H10.5934V9.90303H12.945V10.8651C12.945 10.9479 12.9702 11.0287 13.0171 11.0963C13.064 11.1639 13.1303 11.215 13.2069 11.2424C13.2835 11.2699 13.3666 11.2725 13.4446 11.2497C13.5227 11.227 13.5919 11.18 13.6427 11.1154C14.0452 10.5949 14.597 10.2154 15.221 10.03C15.845 9.84465 16.5101 9.86255 17.1237 10.0812C17.7372 10.2999 18.2686 10.7085 18.6437 11.25C19.0188 11.7915 19.2189 12.439 19.2161 13.102V18.7003ZM6.57044 3.50665C6.47831 3.50058 6.38592 3.50005 6.29373 3.50506C6.00037 3.48469 5.70604 3.52599 5.42897 3.62641C5.1519 3.72682 4.89799 3.88421 4.68296 4.08881C4.46793 4.29342 4.29637 4.54089 4.17891 4.81589C4.06145 5.0909 4.00058 5.38758 4.00007 5.68757C3.99764 5.98441 4.055 6.27861 4.16861 6.5519C4.28222 6.8252 4.44965 7.07177 4.66051 7.27633C4.87137 7.48089 5.12118 7.63907 5.39444 7.74107C5.66769 7.84307 5.95858 7.8867 6.24905 7.86928H6.271C6.55177 7.88934 6.83367 7.85278 7.10059 7.76169C7.36752 7.6706 7.61424 7.52677 7.82668 7.3384C8.03912 7.15003 8.21311 6.92081 8.33873 6.66384C8.46434 6.40687 8.53911 6.12717 8.55877 5.84072C8.57843 5.55426 8.5426 5.26666 8.45332 4.99434C8.36404 4.72201 8.22305 4.4703 8.03842 4.25356C7.85379 4.03682 7.62912 3.85931 7.37724 3.73115C7.12537 3.603 6.85121 3.52671 6.57044 3.50665ZM6.54301 7.07193C6.4526 7.08046 6.36193 7.07966 6.271 7.06953H6.24905C6.06039 7.084 5.87084 7.05817 5.69252 6.9937C5.51419 6.92924 5.351 6.82754 5.21336 6.69511C5.07573 6.56267 4.96667 6.40242 4.89315 6.22457C4.81963 6.04671 4.78327 5.85518 4.78639 5.66219C4.78951 5.46919 4.83204 5.27898 4.91127 5.1037C4.99049 4.92842 5.10467 4.77192 5.24651 4.64419C5.38835 4.51646 5.55474 4.4203 5.73505 4.36187C5.91536 4.30343 6.10564 4.284 6.29373 4.3048C6.6534 4.27108 7.01146 4.3845 7.28916 4.62012C7.56686 4.85574 7.74144 5.19426 7.77449 5.56121C7.80755 5.92815 7.69637 6.29346 7.46542 6.57678C7.23448 6.86009 6.90267 7.0382 6.54301 7.07193Z" fill="currentColor"/>
</svg>
