<svg width="24" height="24" viewBox="0 0 24 24" fill="none" xmlns="http://www.w3.org/2000/svg">
<path d="M16.2938 4.17548C16.1809 4.06311 16.0278 4 15.8682 4C15.7086 4 15.5556 4.06311 15.4427 4.17548C14.9306 4.68596 14.6141 5.35902 14.5483 6.07778C14.4824 6.79653 14.6713 7.51557 15.0821 8.11L11.4424 11.7365L9.66314 9.96286C9.60721 9.9071 9.54081 9.86287 9.46772 9.83269C9.39463 9.80251 9.31629 9.78698 9.23718 9.78698C9.15806 9.78698 9.07972 9.80251 9.00664 9.83269C8.93355 9.86287 8.86715 9.9071 8.81122 9.96286L5.0583 13.7022C4.72278 14.0365 4.45663 14.4334 4.27504 14.8701C4.09346 15.3069 4 15.7751 4 16.2479C4 16.7206 4.09346 17.1888 4.27504 17.6256C4.45663 18.0624 4.72278 18.4592 5.0583 18.7935L5.21166 18.9455C5.54718 19.2798 5.9455 19.545 6.38388 19.726C6.82225 19.9069 7.29211 20 7.7666 20C8.2411 20 8.71095 19.9069 9.14933 19.726C9.58771 19.545 9.98603 19.2798 10.3215 18.9455L14.0745 15.207C14.1872 15.0945 14.2506 14.942 14.2506 14.783C14.2506 14.624 14.1872 14.4715 14.0745 14.359L12.2944 12.5845L15.9461 8.94683C16.5414 9.33158 17.2513 9.50114 17.957 9.42717C18.6627 9.3532 19.3215 9.04018 19.8235 8.54041C19.8794 8.48469 19.9238 8.41853 19.9541 8.34571C19.9844 8.27288 20 8.19483 20 8.116C20 8.03717 19.9844 7.95912 19.9541 7.88629C19.9238 7.81347 19.8794 7.74731 19.8235 7.69159L16.2938 4.17548ZM16.2938 7.69159C16.0134 7.41194 15.8281 7.05166 15.7642 6.66154C15.7002 6.27142 15.7608 5.87113 15.9373 5.51712L18.477 8.0468C18.1216 8.22286 17.7197 8.28328 17.3279 8.21955C16.9362 8.15582 16.5745 7.97114 16.2938 7.69159ZM9.29619 13.8758C9.23703 13.9307 9.18957 13.997 9.15666 14.0706C9.12375 14.1442 9.10605 14.2236 9.10462 14.3042C9.10319 14.3847 9.11807 14.4648 9.14836 14.5395C9.17864 14.6142 9.22372 14.6821 9.28091 14.739C9.33809 14.796 9.40621 14.8409 9.48119 14.8711C9.55618 14.9013 9.63649 14.9161 9.71735 14.9147C9.79821 14.9133 9.87795 14.8956 9.95182 14.8628C10.0257 14.83 10.0922 14.7828 10.1473 14.7238L11.4424 13.4334L12.797 14.783L9.46963 18.0975C9.01791 18.5475 8.40533 18.8002 7.7666 18.8002C7.12787 18.8002 6.51529 18.5475 6.06358 18.0975L5.91022 17.9455C5.68649 17.7226 5.50903 17.458 5.38795 17.1668C5.26687 16.8756 5.20455 16.5635 5.20455 16.2483C5.20455 15.933 5.26687 15.6209 5.38795 15.3297C5.50903 15.0385 5.68649 14.7739 5.91022 14.551L9.23678 11.2357L10.5913 12.5845L9.29619 13.8758Z" fill="#FAFAFA"/>
</svg>
