<svg width="24" height="24" viewBox="0 0 24 24" fill="none" xmlns="http://www.w3.org/2000/svg">
<path d="M15 11.0001V11.0101M5.17283 8.37814C4.73423 8.04104 4.39737 7.58924 4.19949 7.07267C4.00161 6.5561 3.95041 5.99487 4.05154 5.45102C4.15268 4.90717 4.40222 4.40187 4.77258 3.99097C5.14294 3.58007 5.6197 3.27957 6.15016 3.12269C6.68063 2.9658 7.24414 2.95864 7.77842 3.102C8.3127 3.24535 8.79694 3.53364 9.17762 3.93499C9.5583 4.33635 9.8206 4.83515 9.93552 5.37625C10.0504 5.91736 10.0135 6.47971 9.82883 7.00114M16 4.00012V7.80312C17.2376 8.51924 18.1799 9.65257 18.658 11.0001H19.999C20.2642 11.0001 20.5186 11.1055 20.7061 11.293C20.8937 11.4806 20.999 11.7349 20.999 12.0001V14.0001C20.999 14.2653 20.8937 14.5197 20.7061 14.7072C20.5186 14.8948 20.2642 15.0001 19.999 15.0001H18.657C18.321 15.9501 17.75 16.8001 16.999 17.4731V19.5001C16.999 19.8979 16.841 20.2795 16.5597 20.5608C16.2784 20.8421 15.8968 21.0001 15.499 21.0001C15.1012 21.0001 14.7197 20.8421 14.4384 20.5608C14.157 20.2795 13.999 19.8979 13.999 19.5001V18.9171C13.6686 18.9725 13.3341 19.0002 12.999 19.0001H8.99901C8.66396 19.0002 8.32947 18.9725 7.99901 18.9171V19.5001C7.99901 19.8979 7.84098 20.2795 7.55967 20.5608C7.27837 20.8421 6.89684 21.0001 6.49901 21.0001C6.10119 21.0001 5.71966 20.8421 5.43835 20.5608C5.15705 20.2795 4.99901 19.8979 4.99901 19.5001V17.4731C4.09298 16.6631 3.45429 15.597 3.1675 14.416C2.8807 13.235 2.95933 11.9947 3.39296 10.8593C3.82659 9.72399 4.59478 8.74709 5.59585 8.05795C6.59692 7.36881 7.78367 6.99993 8.99901 7.00012H11.499L15.999 4.00012H16Z" stroke="#FAFAFA" stroke-linecap="round" stroke-linejoin="round"/>
</svg>
