<svg width="17" height="21" viewBox="0 0 17 21" fill="none" xmlns="http://www.w3.org/2000/svg">
<path d="M9.5 20C9.77614 20 10 20.2239 10 20.5C10 20.7761 9.77614 21 9.5 21H7.5C7.22386 21 7 20.7761 7 20.5C7 20.2239 7.22386 20 7.5 20H9.5ZM14 8.5C14 7.04131 13.4201 5.64278 12.3887 4.61133C11.3572 3.57988 9.95869 3 8.5 3C7.04131 3 5.64278 3.57988 4.61133 4.61133C3.57988 5.64278 3 7.04131 3 8.5V17H14V8.5ZM15 17H16.5C16.7761 17 17 17.2239 17 17.5C17 17.7761 16.7761 18 16.5 18H0.5C0.223858 18 0 17.7761 0 17.5C0 17.2239 0.223858 17 0.5 17H2V8.5C2 6.77609 2.68433 5.12231 3.90332 3.90332C5.12231 2.68433 6.77609 2 8.5 2C10.2239 2 11.8777 2.68433 13.0967 3.90332C14.3157 5.12231 15 6.77609 15 8.5V17Z" fill="#FAFAFA"/>
<path d="M9 1.5C9 1.22386 8.77614 1 8.5 1C8.22386 1 8 1.22386 8 1.5C8 1.77614 8.22386 2 8.5 2C8.77614 2 9 1.77614 9 1.5ZM10 1.5C10 2.32843 9.32843 3 8.5 3C7.67157 3 7 2.32843 7 1.5C7 0.671573 7.67157 0 8.5 0C9.32843 0 10 0.671573 10 1.5Z" fill="#FAFAFA"/>
</svg>
