<svg width="24" height="24" viewBox="0 0 24 24" fill="none" xmlns="http://www.w3.org/2000/svg">
<path fill-rule="evenodd" clip-rule="evenodd" d="M20.4848 11.4334C20.5592 11.3591 20.6475 11.3002 20.7446 11.26C20.8418 11.2199 20.9459 11.1993 21.051 11.1993C21.1561 11.1994 21.2602 11.2202 21.3573 11.2605C21.4543 11.3008 21.5425 11.3598 21.6168 11.4342C21.6911 11.5086 21.75 11.5968 21.7901 11.694C21.8303 11.7911 21.8509 11.8952 21.8509 12.0003C21.8508 12.1055 21.83 12.2095 21.7897 12.3066C21.7494 12.4037 21.6904 12.4919 21.616 12.5662C21.4658 12.7162 21.2621 12.8004 21.0499 12.8002C20.8376 12.8001 20.634 12.7156 20.484 12.5654C20.334 12.4152 20.2498 12.2115 20.25 11.9992C20.2501 11.7869 20.3346 11.5834 20.4848 11.4334ZM19.3536 13.6974C19.43 13.7712 19.491 13.8594 19.5329 13.957C19.5748 14.0547 19.5969 14.1596 19.5978 14.2659C19.5987 14.3721 19.5785 14.4774 19.5383 14.5757C19.498 14.6741 19.4386 14.7634 19.3635 14.8385C19.2884 14.9136 19.1991 14.973 19.1008 15.0132C19.0025 15.0535 18.8971 15.0737 18.7909 15.0728C18.6847 15.0718 18.5797 15.0498 18.4821 15.0079C18.3845 14.9659 18.2962 14.905 18.2224 14.8286C18.0767 14.6777 17.9961 14.4756 17.9979 14.2659C17.9997 14.0561 18.0838 13.8554 18.2322 13.7071C18.3805 13.5588 18.5811 13.4747 18.7909 13.4728C19.0007 13.471 19.2027 13.5516 19.3536 13.6974ZM17.0912 15.9598C17.1676 16.0336 17.2286 16.1218 17.2705 16.2194C17.3124 16.3171 17.3345 16.422 17.3354 16.5283C17.3363 16.6345 17.3161 16.7398 17.2759 16.8381C17.2356 16.9365 17.1762 17.0258 17.1011 17.1009C17.026 17.176 16.9367 17.2354 16.8384 17.2756C16.7401 17.3159 16.6347 17.3361 16.5285 17.3352C16.4223 17.3342 16.3173 17.3122 16.2197 17.2703C16.1221 17.2283 16.0338 17.1674 15.96 17.091C15.8143 16.9401 15.7337 16.738 15.7355 16.5283C15.7373 16.3185 15.8214 16.1178 15.9698 15.9695C16.1181 15.8212 16.3187 15.7371 16.5285 15.7352C16.7383 15.7334 16.9403 15.814 17.0912 15.9598ZM14.8288 18.2222C14.9052 18.296 14.9662 18.3842 15.0081 18.4818C15.05 18.5795 15.0721 18.6844 15.073 18.7906C15.0739 18.8969 15.0537 19.0022 15.0135 19.1005C14.9732 19.1989 14.9138 19.2882 14.8387 19.3633C14.7636 19.4384 14.6743 19.4978 14.576 19.538C14.4777 19.5783 14.3723 19.5985 14.2661 19.5976C14.1599 19.5966 14.0549 19.5746 13.9573 19.5327C13.8597 19.4907 13.7714 19.4298 13.6976 19.3534C13.5519 19.2025 13.4713 19.0004 13.4731 18.7906C13.4749 18.5809 13.559 18.3802 13.7074 18.2319C13.8557 18.0836 14.0563 17.9995 14.2661 17.9976C14.4759 17.9958 14.6779 18.0764 14.8288 18.2222ZM11.4336 21.6158C11.3593 21.5414 11.3004 21.4531 11.2603 21.356C11.2201 21.2588 11.1995 21.1547 11.1996 21.0496C11.1996 20.9445 11.2204 20.8404 11.2607 20.7433C11.301 20.6462 11.36 20.558 11.4344 20.4838C11.5088 20.4095 11.5971 20.3506 11.6942 20.3104C11.7914 20.2703 11.8955 20.2497 12.0006 20.2497C12.1057 20.2498 12.2098 20.2706 12.3069 20.3109C12.4039 20.3512 12.4921 20.4102 12.5664 20.4846C12.7164 20.6348 12.8006 20.8384 12.8005 21.0507C12.8003 21.263 12.7158 21.4666 12.5656 21.6166C12.4154 21.7666 12.2117 21.8508 11.9995 21.8506C11.7872 21.8505 11.5836 21.766 11.4336 21.6158Z" fill="currentColor"/>
<path d="M4.64642 13.6958C4.57203 13.77 4.51301 13.8582 4.47272 13.9553C4.43242 14.0524 4.41164 14.1565 4.41157 14.2616C4.4115 14.3667 4.43213 14.4708 4.47228 14.568C4.51244 14.6651 4.57134 14.7534 4.64562 14.8278C4.71989 14.9022 4.80809 14.9612 4.90518 15.0015C5.00226 15.0418 5.10633 15.0625 5.21145 15.0626C5.31657 15.0627 5.42067 15.0421 5.51781 15.0019C5.61495 14.9617 5.70323 14.9028 5.77762 14.8286C5.92334 14.6777 6.00398 14.4756 6.00215 14.2659C6.00033 14.0561 5.9162 13.8554 5.76787 13.7071C5.61954 13.5588 5.41889 13.4747 5.20914 13.4728C4.99938 13.471 4.7973 13.55 4.64642 13.6958ZM6.90881 15.9614C6.83241 16.0352 6.77146 16.1234 6.72953 16.221C6.68761 16.3187 6.66554 16.4236 6.66462 16.5299C6.66369 16.6361 6.68393 16.7414 6.72416 16.8397C6.76438 16.9381 6.82378 17.0274 6.8989 17.1025C6.97401 17.1776 7.06334 17.237 7.16165 17.2772C7.25997 17.3175 7.36531 17.3377 7.47154 17.3368C7.57776 17.3358 7.68274 17.3138 7.78034 17.2719C7.87794 17.2299 7.96622 17.169 8.04002 17.0926C8.18574 16.9417 8.26638 16.7396 8.26455 16.5299C8.26273 16.3201 8.1786 16.1194 8.03027 15.9711C7.88194 15.8228 7.68129 15.7387 7.47154 15.7368C7.26178 15.735 7.0597 15.8156 6.90881 15.9614ZM9.17122 18.2238C9.09481 18.2976 9.03386 18.3858 8.99193 18.4834C8.95001 18.581 8.92794 18.686 8.92701 18.7922C8.92609 18.8985 8.94633 19.0038 8.98656 19.1021C9.02678 19.2005 9.08618 19.2898 9.1613 19.3649C9.23641 19.44 9.32574 19.4994 9.42405 19.5396C9.52237 19.5799 9.62771 19.6001 9.73394 19.5992C9.84016 19.5982 9.94514 19.5762 10.0427 19.5343C10.1403 19.4923 10.2286 19.4314 10.3024 19.355C10.4481 19.2041 10.5288 19.002 10.527 18.7922C10.5251 18.5825 10.441 18.3818 10.2927 18.2335C10.1443 18.0852 9.94369 18.0011 9.73394 17.9992C9.52418 17.9974 9.3221 18.078 9.17122 18.2238ZM3.51522 12.5662C3.64601 12.4358 3.72766 12.2642 3.74633 12.0804C3.76499 11.8967 3.71951 11.7122 3.61761 11.5582C3.55112 11.4605 3.46404 11.3786 3.36251 11.3181C3.26098 11.2577 3.14745 11.2202 3.0299 11.2083C2.91234 11.1964 2.7936 11.2104 2.68202 11.2493C2.57044 11.2882 2.46873 11.351 2.38402 11.4334C2.2338 11.5834 2.14932 11.7869 2.14917 11.9992C2.14902 12.2115 2.23321 12.4152 2.38322 12.5654C2.53322 12.7156 2.73676 12.8001 2.94905 12.8002C3.16134 12.8004 3.365 12.7162 3.51522 12.5662ZM5.77602 9.17097C5.70222 9.09456 5.61394 9.03362 5.51634 8.99169C5.41874 8.94976 5.31376 8.92769 5.20754 8.92677C5.10131 8.92585 4.99597 8.94609 4.89765 8.98631C4.79933 9.02654 4.71001 9.08594 4.6349 9.16105C4.55978 9.23617 4.50038 9.32549 4.46016 9.42381C4.41993 9.52212 4.39969 9.62747 4.40061 9.73369C4.40154 9.83992 4.42361 9.94489 4.46553 10.0425C4.50746 10.1401 4.56841 10.2284 4.64482 10.3022C4.7957 10.4479 4.99778 10.5285 5.20754 10.5267C5.41729 10.5249 5.61794 10.4408 5.76627 10.2924C5.9146 10.1441 5.99873 9.94345 6.00055 9.73369C6.00238 9.52393 5.92174 9.32185 5.77602 9.17097ZM8.03842 6.90857C7.96462 6.83216 7.87634 6.77122 7.77874 6.72929C7.68114 6.68736 7.57616 6.66529 7.46994 6.66437C7.36371 6.66345 7.25837 6.68369 7.16005 6.72391C7.06173 6.76414 6.97241 6.82354 6.8973 6.89865C6.82219 6.97377 6.76278 7.06309 6.72256 7.16141C6.68233 7.25973 6.66209 7.36507 6.66301 7.47129C6.66394 7.57752 6.68601 7.68249 6.72793 7.78009C6.76986 7.8777 6.83081 7.96597 6.90722 8.03977C7.0581 8.1855 7.26018 8.26613 7.46994 8.26431C7.67969 8.26249 7.88034 8.17835 8.02867 8.03003C8.177 7.8817 8.26113 7.68105 8.26295 7.47129C8.26478 7.26153 8.18414 7.05945 8.03842 6.90857ZM10.304 4.64617C10.2302 4.56976 10.1419 4.50882 10.0443 4.46689C9.94674 4.42496 9.84176 4.40289 9.73554 4.40197C9.62931 4.40105 9.52397 4.42129 9.42565 4.46151C9.32734 4.50174 9.23801 4.56114 9.1629 4.63626C9.08778 4.71137 9.02838 4.80069 8.98816 4.89901C8.94793 4.99732 8.92769 5.10267 8.92862 5.20889C8.92954 5.31512 8.95161 5.42009 8.99353 5.51769C9.03546 5.6153 9.09641 5.70357 9.17281 5.77737C9.3237 5.9231 9.52578 6.00373 9.73554 6.00191C9.94529 6.00009 10.1459 5.91595 10.2943 5.76763C10.4426 5.6193 10.5267 5.41865 10.5286 5.20889C10.5304 4.99913 10.4497 4.79705 10.304 4.64617ZM12.5664 2.38377C12.4921 2.30939 12.4039 2.25037 12.3069 2.21007C12.2098 2.16978 12.1057 2.149 12.0006 2.14893C11.8955 2.14885 11.7914 2.16948 11.6942 2.20964C11.5971 2.2498 11.5088 2.3087 11.4344 2.38297C11.36 2.45725 11.301 2.54545 11.2607 2.64253C11.2204 2.73962 11.1996 2.84369 11.1996 2.94881C11.1995 3.05392 11.2201 3.15802 11.2603 3.25517C11.3004 3.35231 11.3593 3.44059 11.4336 3.51497C11.5836 3.66519 11.7872 3.74967 11.9994 3.74982C12.2117 3.74997 12.4154 3.66578 12.5656 3.51577C12.7158 3.36576 12.8003 3.16223 12.8005 2.94994C12.8006 2.73765 12.7164 2.53399 12.5664 2.38377ZM14.8288 4.64617C14.755 4.56976 14.6667 4.50882 14.5691 4.46689C14.4715 4.42496 14.3666 4.40289 14.2603 4.40197C14.1541 4.40105 14.0488 4.42129 13.9505 4.46151C13.8521 4.50174 13.7628 4.56114 13.6877 4.63626C13.6126 4.71137 13.5532 4.80069 13.513 4.89901C13.4727 4.99732 13.4525 5.10267 13.4534 5.20889C13.4543 5.31512 13.4764 5.42009 13.5183 5.51769C13.5603 5.6153 13.6212 5.70357 13.6976 5.77737C13.8485 5.9231 14.0506 6.00373 14.2603 6.00191C14.4701 6.00009 14.6707 5.91595 14.8191 5.76763C14.9674 5.6193 15.0515 5.41865 15.0534 5.20889C15.0552 4.99913 14.9745 4.79705 14.8288 4.64617ZM17.0912 6.90857C17.0174 6.83216 16.9291 6.77122 16.8315 6.72929C16.7339 6.68736 16.629 6.66529 16.5227 6.66437C16.4165 6.66345 16.3112 6.68369 16.2129 6.72391C16.1145 6.76414 16.0252 6.82354 15.9501 6.89865C15.875 6.97377 15.8156 7.06309 15.7754 7.16141C15.7351 7.25973 15.7149 7.36507 15.7158 7.47129C15.7167 7.57752 15.7388 7.68249 15.7807 7.78009C15.8227 7.8777 15.8836 7.96597 15.96 8.03977C16.1109 8.1855 16.313 8.26613 16.5227 8.26431C16.7325 8.26249 16.9331 8.17835 17.0815 8.03003C17.2298 7.8817 17.3139 7.68105 17.3158 7.47129C17.3176 7.26153 17.2369 7.05945 17.0912 6.90857ZM19.3536 9.17097C19.2798 9.09456 19.1915 9.03362 19.0939 8.99169C18.9963 8.94976 18.8914 8.92769 18.7851 8.92677C18.6789 8.92585 18.5736 8.94609 18.4753 8.98631C18.3769 9.02654 18.2876 9.08594 18.2125 9.16105C18.1374 9.23617 18.078 9.32549 18.0378 9.42381C17.9975 9.52212 17.9773 9.62747 17.9782 9.73369C17.9791 9.83992 18.0012 9.94489 18.0431 10.0425C18.0851 10.1401 18.146 10.2284 18.2224 10.3022C18.3733 10.4479 18.5754 10.5285 18.7851 10.5267C18.9949 10.5249 19.1955 10.4408 19.3439 10.2924C19.4922 10.1441 19.5763 9.94345 19.5782 9.73369C19.58 9.52393 19.4993 9.32185 19.3536 9.17097Z" fill="currentColor"/>
</svg>
