<svg width="24" height="24" viewBox="0 0 24 24" fill="none" xmlns="http://www.w3.org/2000/svg">
<path d="M17.3861 11.1636C17.3861 10.3465 17.2245 9.53711 16.9118 8.78218C16.5991 8.02741 16.1411 7.3415 15.5634 6.76379C14.9857 6.18605 14.2999 5.72722 13.5451 5.41453C12.7902 5.10184 11.9807 4.94119 11.1636 4.94118C10.3465 4.94118 9.53711 5.10182 8.78218 5.41453C8.02726 5.72723 7.34158 6.186 6.76379 6.76379C5.59688 7.93071 4.94118 9.51335 4.94118 11.1636C4.94121 12.8138 5.5969 14.3966 6.76379 15.5634C7.9307 16.7303 9.51341 17.3861 11.1636 17.3861C12.8138 17.386 14.3966 16.7303 15.5634 15.5634C16.1411 14.9858 16.5991 14.2998 16.9118 13.5451C17.2245 12.7902 17.386 11.9807 17.3861 11.1636ZM18.3272 11.1636C18.3272 12.1042 18.1412 13.0354 17.7813 13.9044C17.4815 14.6283 17.0638 15.2957 16.5487 15.8833L19.8622 19.1967C20.0459 19.3805 20.0459 19.6784 19.8622 19.8622C19.6784 20.0459 19.3805 20.0459 19.1967 19.8622L15.8833 16.5487C14.581 17.6902 12.9059 18.3272 11.1636 18.3272C9.26379 18.3272 7.44176 17.5722 6.09835 16.2289C4.75496 14.8855 4.00003 13.0635 4 11.1636C4 9.26374 4.75493 7.44177 6.09835 6.09835C6.76351 5.43319 7.55282 4.90504 8.42189 4.54504C9.291 4.18504 10.2229 4 11.1636 4C12.1041 4.00001 13.0355 4.18518 13.9044 4.54504C14.7736 4.90504 15.5637 5.43316 16.2289 6.09835C16.8939 6.76342 17.4213 7.55297 17.7813 8.42189C18.1413 9.291 18.3272 10.2229 18.3272 11.1636Z" fill="currentColor"/>
</svg>
