<svg width="24" height="24" viewBox="0 0 24 24" fill="none" xmlns="http://www.w3.org/2000/svg">
<path d="M12.5 3C12.8903 3 13.2066 3.00003 13.4638 3.01758C13.7251 3.03541 13.9598 3.07298 14.1832 3.1656L14.3768 3.2572C14.565 3.35796 14.7381 3.48574 14.8896 3.63744C15.0915 3.83963 15.2515 4.08002 15.3609 4.34426L15.3996 4.44696C15.4583 4.62005 15.4884 4.80245 15.5048 5.00021L15.5186 5.24537V5.25093C15.5223 5.40417 15.565 5.55419 15.6422 5.68668C15.7182 5.817 15.826 5.92558 15.9549 6.00401C16.0875 6.07717 16.2358 6.11701 16.3874 6.1178C16.5408 6.11859 16.6918 6.08026 16.8264 6.00678L16.832 6.00401C17.1319 5.84536 17.3995 5.729 17.6888 5.69038C17.9719 5.65297 18.2604 5.67191 18.5363 5.74589C18.812 5.81985 19.0707 5.94749 19.2972 6.12151L19.2981 6.12243C19.4893 6.2701 19.6389 6.45519 19.7851 6.6729C19.857 6.77994 19.9328 6.90171 20.0147 7.03927L20.2831 7.49907C20.4778 7.83747 20.6365 8.11276 20.7498 8.34468C20.8649 8.58028 20.9496 8.80298 20.9813 9.04317C21.0187 9.32704 20.9999 9.61591 20.926 9.89248C20.8705 10.0999 20.7842 10.2974 20.6714 10.479L20.5506 10.6548C20.3723 10.888 20.1356 11.062 19.8524 11.2414L19.8506 11.2423C19.5758 11.4145 19.413 11.6974 19.4106 11.9935L19.4199 12.1073C19.4358 12.2206 19.4727 12.3302 19.5296 12.4302C19.5867 12.5303 19.6623 12.6187 19.7519 12.6902L19.846 12.7559L19.8515 12.7596C20.0651 12.8942 20.2502 13.0255 20.4049 13.1805L20.5497 13.3443L20.5506 13.3452C20.7244 13.5721 20.852 13.8312 20.926 14.1075C20.9999 14.3841 21.0187 14.673 20.9813 14.9568C20.95 15.1979 20.8651 15.4209 20.7498 15.6562C20.6363 15.888 20.4771 16.162 20.2822 16.5C20.0871 16.8384 19.9288 17.1137 19.7851 17.328C19.6391 17.5457 19.4889 17.7301 19.2972 17.8776C19.0707 18.0516 18.812 18.1801 18.5363 18.2541C18.3293 18.3096 18.1152 18.3343 17.9018 18.3272L17.6888 18.3096C17.4718 18.2807 17.2673 18.2075 17.0524 18.1061L16.8273 17.9932C16.6927 17.9196 16.5418 17.8815 16.3883 17.8822C16.2347 17.883 16.0833 17.9228 15.9493 17.9978C15.7259 18.1296 15.5724 18.3618 15.5297 18.6344L15.5186 18.7546C15.5061 19.0939 15.472 19.3842 15.3609 19.6539C15.2515 19.9184 15.0917 20.1602 14.8896 20.3626C14.7381 20.5143 14.565 20.642 14.3768 20.7428L14.1832 20.8344C13.9598 20.927 13.7251 20.9646 13.4638 20.9824C13.2066 21 12.8903 21 12.5 21C12.1097 21 11.7934 21 11.5362 20.9824C11.3402 20.969 11.159 20.9451 10.9865 20.8945L10.8168 20.8344C10.5528 20.725 10.3125 20.565 10.1104 20.3626C9.90847 20.1604 9.74845 19.92 9.63909 19.6557C9.55436 19.4522 9.51487 19.2371 9.49521 18.9998L9.48138 18.7546C9.46977 18.4303 9.30526 18.1474 9.04698 17.996C8.91384 17.9222 8.764 17.883 8.61167 17.8822C8.45822 17.8815 8.30727 17.9196 8.17266 17.9932L7.94762 18.1061C7.80437 18.1737 7.66593 18.2286 7.52522 18.2661L7.31125 18.3096C7.0281 18.347 6.73957 18.3281 6.46367 18.2541C6.18797 18.1801 5.92935 18.0525 5.70279 17.8785L5.70187 17.8776C5.51072 17.7299 5.36109 17.5448 5.21491 17.3271C5.07114 17.113 4.91237 16.8392 4.71688 16.5009C4.52216 16.1625 4.36352 15.8872 4.2502 15.6553C4.13509 15.4197 4.05037 15.197 4.01871 14.9568C3.98131 14.673 4.0001 14.3841 4.07405 14.1075C4.14797 13.8312 4.27563 13.5721 4.44941 13.3452L4.51951 13.261C4.68815 13.069 4.89978 12.9156 5.14758 12.7586L5.14942 12.7577C5.42623 12.5842 5.58935 12.2985 5.58935 12C5.58935 11.7018 5.42661 11.4159 5.14942 11.2414L5.1485 11.2404C4.8637 11.061 4.62888 10.8877 4.45034 10.6557L4.44941 10.6548C4.27563 10.4279 4.14797 10.1688 4.07405 9.89248C4.0001 9.61591 3.98131 9.32704 4.01871 9.04317C4.05 8.80209 4.13493 8.57907 4.2502 8.34375C4.36374 8.11196 4.52289 7.838 4.7178 7.5C4.91301 7.16146 5.07108 6.88714 5.21491 6.6729C5.36104 6.45528 5.51076 6.27081 5.70095 6.12336L5.70279 6.12151C6.16018 5.77025 6.73816 5.61526 7.30941 5.69038C7.52709 5.71932 7.73253 5.79245 7.94762 5.89391L8.17266 6.00678C8.30727 6.08036 8.45822 6.11852 8.61167 6.1178C8.76319 6.11703 8.9116 6.07708 9.04422 6.00401C9.1734 5.92555 9.28167 5.81723 9.35779 5.68668C9.435 5.55419 9.47774 5.40417 9.48138 5.25093V5.24537C9.49385 4.90712 9.52798 4.61589 9.63909 4.34611C9.74846 4.08156 9.90827 3.83983 10.1104 3.63744C10.3125 3.43504 10.5528 3.27504 10.8168 3.1656L10.9865 3.10547C11.159 3.05492 11.3402 3.03095 11.5362 3.01758C11.7934 3.00003 12.1097 3 12.5 3ZM14.5825 12C14.5825 10.8497 13.6507 9.9156 12.5 9.9156C11.3493 9.91562 10.4175 10.8497 10.4175 12C10.4176 13.1502 11.3494 14.0844 12.5 14.0844C13.6506 14.0844 14.5824 13.1502 14.5825 12ZM6.53377 12C6.53377 12.653 6.17888 13.2304 5.65022 13.5617L5.6493 13.5608C5.38768 13.7266 5.27106 13.8277 5.19923 13.9216L5.19831 13.9225C5.10009 14.0508 5.02791 14.1976 4.98618 14.3536C4.94451 14.5097 4.93372 14.6727 4.95482 14.8329C4.96745 14.9285 5.00474 15.0458 5.0987 15.2381C5.19453 15.4342 5.33312 15.6763 5.53402 16.0254C5.73596 16.3748 5.87613 16.6165 5.99792 16.7979C6.11738 16.9758 6.20125 17.0668 6.2783 17.1263C6.40645 17.2247 6.552 17.2973 6.70808 17.3391C6.82517 17.3705 6.94613 17.3838 7.06685 17.3798L7.18766 17.3697C7.27706 17.3576 7.3821 17.3263 7.54366 17.2503L7.72535 17.1587C7.99904 17.0101 8.30592 16.9332 8.6172 16.9348C8.89096 16.9363 9.16054 16.9982 9.40667 17.1162L9.51089 17.1707L9.51735 17.1735C10.0798 17.5 10.4024 18.0944 10.4249 18.7204L10.4369 18.9249C10.4519 19.1032 10.4767 19.2087 10.5106 19.2903L10.5116 19.2921C10.5733 19.4415 10.6639 19.5774 10.7781 19.6918C10.8924 19.8062 11.028 19.8973 11.1775 19.9592C11.2665 19.9961 11.3866 20.0233 11.5999 20.0378C11.8176 20.0527 12.0968 20.0526 12.5 20.0526C12.9032 20.0526 13.1824 20.0527 13.4001 20.0378C13.6134 20.0233 13.7335 19.9961 13.8225 19.9592C13.972 19.8973 14.1076 19.8062 14.2219 19.6918C14.3361 19.5774 14.4267 19.4415 14.4884 19.2921L14.5198 19.1996C14.5478 19.0955 14.5666 18.9516 14.5751 18.7204L14.5973 18.4882C14.6817 17.9506 14.9905 17.4588 15.4836 17.1735L15.4891 17.1698C15.7623 17.0169 16.0699 16.9365 16.3828 16.9348C16.6938 16.9332 17.0002 17.0104 17.2737 17.1587C17.5448 17.3025 17.6924 17.3535 17.8114 17.3697C17.9717 17.3908 18.1358 17.381 18.2919 17.3391C18.448 17.2973 18.5945 17.2247 18.7226 17.1263C18.799 17.0676 18.8827 16.9768 19.0021 16.7988C19.1237 16.6174 19.2635 16.3758 19.4651 16.0263C19.6669 15.6764 19.8061 15.4342 19.9022 15.2381C19.9963 15.046 20.032 14.9289 20.0443 14.8338L20.0452 14.8329C20.0663 14.6727 20.0555 14.5097 20.0138 14.3536C19.9721 14.1976 19.8999 14.0508 19.8017 13.9225C19.7288 13.8279 19.6117 13.7279 19.3544 13.5654L19.2566 13.5006C19.0329 13.3439 18.8457 13.1395 18.7097 12.9011C18.5543 12.6285 18.4706 12.3204 18.4662 12.0065V12C18.4662 11.347 18.8211 10.7696 19.3498 10.4383C19.6116 10.2724 19.7289 10.1723 19.8008 10.0784L19.8017 10.0775C19.8999 9.94922 19.9721 9.80243 20.0138 9.64638C20.0555 9.49032 20.0663 9.32729 20.0452 9.16715C20.0325 9.07153 19.9953 8.95425 19.9013 8.76192C19.8054 8.5656 19.6663 8.32336 19.4651 7.97368C19.2636 7.62506 19.1237 7.38325 19.0021 7.2021C18.8826 7.0242 18.7987 6.93318 18.7217 6.87366C18.5938 6.7757 18.4476 6.70261 18.2919 6.66088C18.1358 6.61904 17.9726 6.60917 17.8123 6.63035L17.8114 6.62942C17.6923 6.64562 17.5455 6.69798 17.2728 6.84221L17.2719 6.84128C16.9987 6.98918 16.6933 7.06674 16.3828 7.06517C16.07 7.06357 15.7623 6.98304 15.4891 6.83018L15.478 6.8237C15.2091 6.66313 14.9849 6.43596 14.8269 6.16499C14.669 5.89414 14.5817 5.58769 14.5742 5.27405C14.5626 4.96874 14.5343 4.81775 14.4894 4.7097L14.4884 4.70785C14.4267 4.55851 14.3361 4.42257 14.2219 4.30818C14.1076 4.19377 13.972 4.10275 13.8225 4.04081C13.7335 4.00387 13.6134 3.97675 13.4001 3.96217C13.1824 3.94732 12.9032 3.94737 12.5 3.94737C12.0968 3.94737 11.8176 3.94732 11.5999 3.96217C11.3866 3.97675 11.2665 4.00387 11.1775 4.04081C11.028 4.10275 10.8924 4.19377 10.7781 4.30818C10.6924 4.394 10.6201 4.49209 10.5632 4.59868L10.5116 4.70785C10.4664 4.81747 10.4364 4.96991 10.4249 5.27313C10.4174 5.58686 10.331 5.89406 10.1731 6.16499C10.0151 6.43596 9.79092 6.66221 9.52196 6.82278L9.51089 6.83018L9.50997 6.82926C9.23685 6.9821 8.92997 7.06352 8.6172 7.06517C8.30578 7.06676 7.99914 6.98908 7.72535 6.84036C7.45309 6.69595 7.30589 6.64631 7.18582 6.63035C6.86264 6.58808 6.53589 6.67528 6.27737 6.87366C6.20066 6.93338 6.11769 7.0251 5.99884 7.2021C5.87711 7.3834 5.73632 7.62445 5.53494 7.97368C5.33314 8.32364 5.19387 8.56575 5.09778 8.76192C5.00371 8.95401 4.96801 9.07108 4.95575 9.16622L4.95482 9.16715C4.93372 9.32729 4.94451 9.49032 4.98618 9.64638C5.02779 9.80202 5.09957 9.94855 5.19738 10.0766C5.27082 10.172 5.38942 10.2734 5.65115 10.4383C6.17914 10.7703 6.53377 11.3469 6.53377 12ZM15.5269 12C15.5268 13.675 14.1707 15.0318 12.5 15.0318C10.8293 15.0317 9.47318 13.675 9.47308 12C9.47308 10.3249 10.8293 8.96825 12.5 8.96824C14.1707 8.96824 15.5269 10.3249 15.5269 12Z" fill="currentColor"/>
</svg>
