<svg width="24" height="24" viewBox="0 0 24 24" fill="none" xmlns="http://www.w3.org/2000/svg">
<path d="M9.49889 4.6001C9.49889 4.44094 9.56254 4.28831 9.67585 4.17577C9.78915 4.06322 9.94282 4 10.1031 4C10.2633 4 10.417 4.06322 10.5303 4.17577C10.6436 4.28831 10.7072 4.44094 10.7072 4.6001L10.8245 19.4001C10.8245 19.5187 10.7891 19.6347 10.7227 19.7333C10.6564 19.8319 10.5622 19.9088 10.4519 19.9543C10.3416 19.9997 10.2203 20.0117 10.1031 19.9887C9.98599 19.9657 9.87834 19.9087 9.79378 19.825L4.1775 14.2477C4.12123 14.1919 4.07659 14.1257 4.04614 14.0528C4.01568 13.9799 4 13.9017 4 13.8228C4 13.7439 4.01568 13.6657 4.04614 13.5928C4.07659 13.5199 4.12123 13.4537 4.1775 13.3979H4.17991C4.29316 13.2858 4.44654 13.2228 4.60645 13.2228C4.76636 13.2228 4.91974 13.2858 5.03299 13.3979L9.61616 17.9539L9.49889 4.6001ZM13.1755 4.6001C13.1758 4.4816 13.2114 4.36584 13.2778 4.2674C13.3442 4.16895 13.4384 4.09224 13.5487 4.04693C13.6589 4.00162 13.7802 3.98974 13.8972 4.01278C14.0142 4.03583 14.1217 4.09277 14.2062 4.17643L19.8225 9.75256C19.8788 9.80831 19.9234 9.87453 19.9539 9.94744C19.9843 10.0203 20 10.0985 20 10.1774C20 10.2564 19.9843 10.3345 19.9539 10.4074C19.9234 10.4803 19.8788 10.5466 19.8225 10.6023H19.8201C19.7068 10.7144 19.5535 10.7774 19.3936 10.7774C19.2336 10.7774 19.0803 10.7144 18.967 10.6023L14.3838 6.04874V19.3542C14.3838 19.5133 14.3202 19.666 14.2069 19.7785C14.0936 19.8911 13.9399 19.9543 13.7797 19.9543C13.6194 19.9543 13.4658 19.8911 13.3525 19.7785C13.2392 19.666 13.1755 19.5133 13.1755 19.3542V4.6001Z" fill="currentColor"/>
</svg>
