<svg width="24" height="24" viewBox="0 0 24 24" fill="none" xmlns="http://www.w3.org/2000/svg">
<path d="M7.34647 4.47059C7.34647 4.21069 7.55716 4 7.81706 4C8.07692 4.00006 8.28766 4.21072 8.28766 4.47059V18.3934L10.8309 15.8502C11.0147 15.6666 11.3126 15.6665 11.4963 15.8502C11.68 16.0339 11.6799 16.3319 11.4963 16.5156L8.14979 19.8621C7.96603 20.0459 7.66812 20.0459 7.48434 19.8621L4.13781 16.5156C3.95408 16.3318 3.95405 16.0339 4.13781 15.8502C4.32157 15.6665 4.61949 15.6665 4.80325 15.8502L7.34647 18.3934V4.47059ZM15.7123 19.5294V5.60662L13.1691 8.14982C12.9853 8.33344 12.6874 8.33354 12.5037 8.14982C12.32 7.96609 12.3201 7.66815 12.5037 7.48438L15.8502 4.13787C16.034 3.95411 16.3319 3.95414 16.5157 4.13787L19.8622 7.48438C20.0459 7.66816 20.046 7.96606 19.8622 8.14982C19.6784 8.33352 19.3805 8.33352 19.1967 8.14982L16.6535 5.60662V19.5294C16.6535 19.7893 16.4428 20 16.1829 20C15.9231 19.9999 15.7123 19.7893 15.7123 19.5294Z" fill="currentColor"/>
</svg>
