<svg width="24" height="24" viewBox="0 0 24 24" fill="none" xmlns="http://www.w3.org/2000/svg">
<path d="M19.5294 7.34647C19.7893 7.34647 20 7.55716 20 7.81706C19.9999 8.07692 19.7893 8.28766 19.5294 8.28766H5.60662L8.14982 10.8309C8.33344 11.0147 8.33354 11.3126 8.14982 11.4963C7.96609 11.68 7.66815 11.6799 7.48438 11.4963L4.13787 8.14979C3.95411 7.96603 3.95414 7.66812 4.13787 7.48434L7.48438 4.13781C7.66816 3.95408 7.96606 3.95405 8.14982 4.13781C8.33352 4.32157 8.33352 4.61949 8.14982 4.80325L5.60662 7.34647H19.5294ZM4.47059 15.7123H18.3934L15.8502 13.1691C15.6666 12.9853 15.6665 12.6874 15.8502 12.5037C16.0339 12.32 16.3319 12.3201 16.5156 12.5037L19.8621 15.8502C20.0459 16.034 20.0459 16.3319 19.8621 16.5157L16.5156 19.8622C16.3318 20.0459 16.0339 20.046 15.8502 19.8622C15.6665 19.6784 15.6665 19.3805 15.8502 19.1967L18.3934 16.6535H4.47059C4.21069 16.6535 4 16.4428 4 16.1829C4.00006 15.9231 4.21072 15.7123 4.47059 15.7123Z" fill="#FAFAFA"/>
</svg>
