<svg width="24" height="24" viewBox="0 0 24 24" fill="none" xmlns="http://www.w3.org/2000/svg">
<path d="M16.4003 9.99989C16.4003 9.66851 16.6686 9.40028 17 9.40028C17.3313 9.40028 17.5996 9.66851 17.5996 9.99989V18.5526L20.5761 15.5761C20.8104 15.3417 21.1895 15.3417 21.4238 15.5761C21.6581 15.8104 21.6581 16.1894 21.4238 16.4237L17.4238 20.4237C17.1895 20.658 16.8104 20.658 16.5761 20.4237L12.5761 16.4237C12.3418 16.1894 12.3418 15.8104 12.5761 15.5761C12.8104 15.3417 13.1895 15.3417 13.4238 15.5761L16.4003 18.5526V9.99989ZM6.40035 12.9999V5.44715L3.42378 8.42371C3.18947 8.65803 2.81044 8.65803 2.57613 8.42371C2.34181 8.1894 2.34181 7.81037 2.57613 7.57606L6.57613 3.57606L6.66988 3.49891C6.90277 3.34511 7.21875 3.37102 7.42378 3.57606L11.4238 7.57606C11.6581 7.81037 11.6581 8.1894 11.4238 8.42371C11.1895 8.65803 10.8104 8.65803 10.5761 8.42371L7.59956 5.44715V12.9999C7.59956 13.3313 7.33133 13.5995 6.99995 13.5995C6.66858 13.5995 6.40035 13.3313 6.40035 12.9999Z" fill="#FAFAFA"/>
</svg>
