<svg width="24" height="24" viewBox="0 0 24 24" fill="none" xmlns="http://www.w3.org/2000/svg">
<path d="M20.0001 13.4002C20.238 13.4002 20.4531 13.5408 20.5489 13.7586C20.6446 13.9763 20.6031 14.2297 20.4424 14.4051L14.9424 20.4051C14.7186 20.6493 14.3391 20.666 14.0948 20.4422C13.8506 20.2183 13.8339 19.8388 14.0577 19.5945L18.6368 14.5994H4.00007C3.6687 14.5994 3.40046 14.3312 3.40046 13.9998C3.40046 13.6684 3.6687 13.4002 4.00007 13.4002H20.0001ZM9.05768 3.59454C9.28156 3.35031 9.66106 3.33364 9.90534 3.55743C10.1496 3.78131 10.1662 4.16081 9.94245 4.40509L5.36335 9.40021H20.0001C20.3314 9.40021 20.5997 9.66844 20.5997 9.99981C20.5997 10.3312 20.3314 10.5994 20.0001 10.5994H4.00007C3.76213 10.5994 3.54705 10.4588 3.45124 10.241C3.35556 10.0233 3.39705 9.76989 3.55768 9.59454L9.05768 3.59454Z" fill="#FAFAFA"/>
</svg>
