<svg width="24" height="24" viewBox="0 0 24 24" fill="none" xmlns="http://www.w3.org/2000/svg">
<path d="M15.2941 19.5294V18.0239C15.2941 17.764 15.5048 17.5533 15.7647 17.5533C16.0246 17.5533 16.2353 17.764 16.2353 18.0239V19.5294C16.2353 19.7893 16.0246 20 15.7647 20C15.5048 20 15.2941 19.7893 15.2941 19.5294ZM5.50551 14.2574C5.50556 13.7001 5.61622 13.1484 5.83088 12.6342C6.04561 12.1199 6.36016 11.6529 6.75643 11.261C6.76268 11.2549 6.76916 11.2485 6.77574 11.2426L7.17096 10.8943C7.3657 10.7224 7.66252 10.741 7.83456 10.9357C8.00654 11.1303 7.98854 11.4271 7.79412 11.5993L7.40901 11.9384C7.1054 12.2409 6.86464 12.6008 6.69945 12.9963C6.53269 13.3957 6.44674 13.8245 6.44669 14.2574C6.44669 14.6902 6.53274 15.119 6.69945 15.5184C6.86625 15.9179 7.11036 16.2811 7.4182 16.5855C8.04446 17.2048 8.89039 17.5515 9.77114 17.5515C10.6411 17.5514 11.4755 17.2118 12.0993 16.6066L12.375 16.2371C12.5301 16.0286 12.8254 15.9846 13.034 16.1397C13.2425 16.2948 13.2856 16.5902 13.1305 16.7987L12.8318 17.2004C12.8176 17.2195 12.8019 17.2379 12.7849 17.2546C11.9826 18.048 10.8995 18.4926 9.77114 18.4926C8.6426 18.4926 7.55888 18.0481 6.75643 17.2546C6.36011 16.8627 6.04563 16.3958 5.83088 15.8814C5.61612 15.3671 5.50551 14.8148 5.50551 14.2574ZM19.5294 15.2941C19.7893 15.2941 20 15.5048 20 15.7647C20 16.0246 19.7893 16.2353 19.5294 16.2353H18.0239C17.764 16.2353 17.5533 16.0246 17.5533 15.7647C17.5533 15.5048 17.764 15.2941 18.0239 15.2941H19.5294ZM13.9265 9.40809C14.1103 9.22468 14.4083 9.22443 14.5919 9.40809C14.7756 9.59174 14.7753 9.88972 14.5919 10.0735L10.0735 14.5919C9.88972 14.7753 9.59174 14.7756 9.40809 14.5919C9.22443 14.4083 9.22468 14.1103 9.40809 13.9265L13.9265 9.40809ZM17.5524 9.74173C17.5525 8.86801 17.2051 8.02962 16.5873 7.41176C15.9696 6.79402 15.1318 6.44684 14.2583 6.44669C13.3888 6.44663 12.5545 6.79044 11.9375 7.40257L11.6029 7.78952C11.433 7.9862 11.136 8.00813 10.9393 7.83824C10.7428 7.66835 10.7209 7.37126 10.8906 7.17463L11.2399 6.77114L11.2629 6.74632C12.0572 5.95206 13.1349 5.50544 14.2583 5.50551C15.3815 5.50567 16.4586 5.95207 17.2528 6.74632C18.047 7.54069 18.4936 8.6184 18.4936 9.74173C18.4934 10.8649 18.0469 11.942 17.2528 12.7362C17.245 12.744 17.2362 12.752 17.2279 12.7592L16.8263 13.1085C16.6301 13.2787 16.3331 13.2576 16.1627 13.0616C15.9923 12.8655 16.0128 12.5685 16.2086 12.398L16.5938 12.0625C17.2068 11.4455 17.5522 10.6118 17.5524 9.74173ZM5.9761 7.76471C6.236 7.76471 6.44669 7.9754 6.44669 8.23529C6.44669 8.49519 6.236 8.70588 5.9761 8.70588H4.47059C4.21069 8.70588 4 8.49519 4 8.23529C4 7.9754 4.21069 7.76471 4.47059 7.76471H5.9761ZM7.76471 5.9761V4.47059C7.76471 4.21069 7.9754 4 8.23529 4C8.49519 4 8.70588 4.21069 8.70588 4.47059V5.9761C8.70588 6.236 8.49519 6.44669 8.23529 6.44669C7.9754 6.44669 7.76471 6.236 7.76471 5.9761Z" fill="currentColor"/>
</svg>
