<svg width="24" height="24" viewBox="0 0 24 24" fill="none" xmlns="http://www.w3.org/2000/svg">
<path d="M12.7057 16.4046C12.7057 16.5953 12.6311 16.7782 12.4983 16.9131C12.3655 17.0479 12.1853 17.1237 11.9975 17.1237C11.8096 17.1237 11.6295 17.0479 11.4966 16.9131C11.3638 16.7782 11.2892 16.5953 11.2892 16.4046C11.2892 16.2139 11.3638 16.031 11.4966 15.8962C11.6295 15.7613 11.8096 15.6856 11.9975 15.6856C12.1853 15.6856 12.3655 15.7613 12.4983 15.8962C12.6311 16.031 12.7057 16.2139 12.7057 16.4046ZM11.4663 14.0676C11.4663 14.2107 11.5222 14.3479 11.6219 14.449C11.7215 14.5501 11.8566 14.607 11.9975 14.607C12.1384 14.607 12.2735 14.5501 12.3731 14.449C12.4727 14.3479 12.5287 14.2107 12.5287 14.0676V9.39368C12.5287 9.25064 12.4727 9.11347 12.3731 9.01233C12.2735 8.91119 12.1384 8.85437 11.9975 8.85437C11.8566 8.85437 11.7215 8.91119 11.6219 9.01233C11.5222 9.11347 11.4663 9.25064 11.4663 9.39368V14.0676ZM10.2919 5.02171C11.0328 3.65979 12.9621 3.65907 13.703 5.02171L20.2546 17.0662C20.9714 18.3842 20.0322 20 18.5498 20H5.45085C3.96843 20 3.02854 18.385 3.74532 17.0669L10.2919 5.02171ZM12.7723 5.54304C12.6958 5.40246 12.5835 5.28528 12.4473 5.20367C12.311 5.12207 12.1557 5.07902 11.9975 5.07902C11.8393 5.07902 11.6839 5.12207 11.5477 5.20367C11.4114 5.28528 11.2992 5.40246 11.2226 5.54304L4.67529 17.5882C4.60088 17.7251 4.56292 17.8793 4.56517 18.0357C4.56741 18.192 4.60979 18.345 4.6881 18.4796C4.76642 18.6143 4.87797 18.7258 5.01173 18.8033C5.1455 18.8808 5.29685 18.9215 5.45085 18.9214H18.549C18.703 18.9213 18.8543 18.8805 18.9879 18.803C19.1216 18.7255 19.233 18.6139 19.3113 18.4793C19.3895 18.3447 19.4318 18.1918 19.434 18.0355C19.4362 17.8792 19.3983 17.7251 19.3239 17.5882L12.7723 5.54304Z" fill="#FAFAFA"/>
</svg>
