<svg width="1920" height="1365" viewBox="0 0 1920 1365" fill="none" xmlns="http://www.w3.org/2000/svg">
<mask id="mask0_366_10924" style="mask-type:luminance" maskUnits="userSpaceOnUse" x="0" y="0" width="1920" height="1365">
<path d="M1919.88 0H0V1365H1919.88V0Z" fill="white"/>
</mask>
<g mask="url(#mask0_366_10924)">
<mask id="mask1_366_10924" style="mask-type:luminance" maskUnits="userSpaceOnUse" x="0" y="0" width="1920" height="1365">
<path d="M1919.88 0H0V1365H1919.88V0Z" fill="white"/>
</mask>
<g mask="url(#mask1_366_10924)">
<mask id="mask2_366_10924" style="mask-type:luminance" maskUnits="userSpaceOnUse" x="0" y="0" width="1920" height="1365">
<path d="M1919.88 0H0V1365H1919.88V0Z" fill="white"/>
</mask>
<g mask="url(#mask2_366_10924)">
<mask id="mask3_366_10924" style="mask-type:luminance" maskUnits="userSpaceOnUse" x="0" y="0" width="1920" height="1365">
<path d="M1919.88 0H0V1365H1919.88V0Z" fill="white"/>
</mask>
<g mask="url(#mask3_366_10924)">
<mask id="mask4_366_10924" style="mask-type:luminance" maskUnits="userSpaceOnUse" x="0" y="0" width="1920" height="1365">
<path d="M1919.88 0H0V1365H1919.88V0Z" fill="white"/>
</mask>
<g mask="url(#mask4_366_10924)">
<path d="M1919.88 0.000244141H0V1365H1919.88V0.000244141Z" fill="#0F1D2A"/>
</g>
<mask id="mask5_366_10924" style="mask-type:luminance" maskUnits="userSpaceOnUse" x="0" y="0" width="1920" height="1365">
<path d="M1919.88 0H0V1365H1919.88V0Z" fill="white"/>
</mask>
<g mask="url(#mask5_366_10924)">
<g filter="url(#filter0_f_366_10924)">
<mask id="mask6_366_10924" style="mask-type:luminance" maskUnits="userSpaceOnUse" x="0" y="0" width="1920" height="378">
<path d="M1919.88 0H0V377.05H1919.88V0Z" fill="white"/>
</mask>
<g mask="url(#mask6_366_10924)">
<path opacity="0.4" d="M588.741 231.852C863.091 295.89 1115.9 217.601 1153.41 56.988C1190.92 -103.624 998.92 -285.74 724.57 -349.778C450.219 -413.816 197.408 -335.527 159.9 -174.914C122.392 -14.3017 314.391 167.814 588.741 231.852Z" fill="url(#paint0_linear_366_10924)"/>
</g>
<mask id="mask7_366_10924" style="mask-type:luminance" maskUnits="userSpaceOnUse" x="0" y="0" width="1920" height="601">
<path d="M1919.88 0H0V600.718H1919.88V0Z" fill="white"/>
</mask>
<g mask="url(#mask7_366_10924)">
<path opacity="0.4" d="M1001.66 408.252C1265.47 408.252 1479.33 274.512 1479.33 109.535C1479.33 -55.4418 1265.47 -189.182 1001.66 -189.182C737.85 -189.182 523.99 -55.4418 523.99 109.535C523.99 274.512 737.85 408.252 1001.66 408.252Z" fill="#13B0F9" fill-opacity="0.32"/>
</g>
<mask id="mask8_366_10924" style="mask-type:luminance" maskUnits="userSpaceOnUse" x="0" y="0" width="679" height="1365">
<path d="M678.396 0H0V1365H678.396V0Z" fill="white"/>
</mask>
<g mask="url(#mask8_366_10924)">
<path opacity="0.4" d="M43.5179 956.367C279.47 1074.33 518.428 1074.63 577.245 957.041C636.062 839.451 492.465 648.498 256.513 530.535C20.5605 412.573 -218.397 412.271 -277.214 529.861C-336.031 647.451 -192.435 838.404 43.5179 956.367Z" fill="#13B0F9" fill-opacity="0.32"/>
</g>
<mask id="mask9_366_10924" style="mask-type:luminance" maskUnits="userSpaceOnUse" x="0" y="469" width="861" height="896">
<path d="M860.725 469.999H0V1365H860.725V469.999Z" fill="white"/>
</mask>
<g mask="url(#mask9_366_10924)">
<path opacity="0.4" d="M724.04 1221.96C834.581 1099.53 754.655 847.292 545.521 658.575C336.386 469.858 77.2376 416.124 -33.3032 538.557C-143.844 660.991 -63.9179 913.228 145.217 1101.95C354.351 1290.66 613.5 1344.4 724.04 1221.96Z" fill="url(#paint1_linear_366_10924)"/>
</g>
<mask id="mask10_366_10924" style="mask-type:luminance" maskUnits="userSpaceOnUse" x="1201" y="425" width="719" height="940">
<path d="M1919.88 425.331H1201.4V1365H1919.88V425.331Z" fill="white"/>
</mask>
<g mask="url(#mask10_366_10924)">
<path opacity="0.4" d="M1713.69 1068.33C1821.04 873.192 1818.32 665.655 1707.61 604.784C1596.91 543.914 1420.13 652.762 1312.78 847.903C1205.43 1043.04 1208.15 1250.58 1318.85 1311.45C1429.56 1372.32 1606.33 1263.47 1713.69 1068.33Z" fill="url(#paint2_linear_366_10924)"/>
</g>
<mask id="mask11_366_10924" style="mask-type:luminance" maskUnits="userSpaceOnUse" x="1181" y="487" width="651" height="878">
<path d="M1831.5 487.406H1181.03V1365H1831.5V487.406Z" fill="white"/>
</mask>
<g mask="url(#mask11_366_10924)">
<path opacity="0.4" d="M1630.85 1146.15C1738.21 951.005 1747.83 750.252 1652.34 697.75C1556.86 645.249 1392.42 760.882 1285.07 956.022C1177.72 1151.16 1168.1 1351.92 1263.58 1404.42C1359.07 1456.92 1523.5 1341.29 1630.85 1146.15Z" fill="#13B0F9"/>
</g>
</g>
</g>
<mask id="mask12_366_10924" style="mask-type:luminance" maskUnits="userSpaceOnUse" x="0" y="0" width="1920" height="1365">
<path d="M1919.88 0.000244141H0V1365H1919.88V0.000244141Z" fill="white"/>
</mask>
<g mask="url(#mask12_366_10924)">
<path fill-rule="evenodd" clip-rule="evenodd" d="M-45.1329 -260.803H1311.24C1567.93 -260.803 1791.94 -177.435 1980.44 -11.9394C2002 6.97729 2034.46 5.9436 2054.78 -14.3686L2461.96 -421.388C2477.83 -437.307 2500.43 -441.803 2521.21 -433.172C2542.04 -424.592 2554.81 -405.417 2554.81 -382.986V-133.916C2554.81 147.716 2454.41 390.015 2255.27 589.157L1296.15 1548.02C1280.28 1563.88 1257.68 1568.38 1236.9 1559.8C1216.07 1551.22 1203.3 1532.05 1203.3 1509.56V1260.44C1203.3 978.861 1303.7 736.562 1502.84 537.369L1639.79 400.455C1655.71 384.588 1660.16 362.001 1651.58 341.224C1643 320.498 1623.82 307.629 1601.38 307.629H815.812C534.155 307.629 291.738 207.257 92.5935 8.16605L-83.597 -168.028C-99.4686 -183.895 -103.966 -206.482 -95.3843 -227.259C-86.8023 -248.088 -67.6219 -260.854 -45.1329 -260.854V-260.803ZM-150.34 435.911L-64.003 1619.55C-43.5819 1900.4 876.817 2013.8 1148.91 2086.68L1389.57 2151.18C1411.28 2157.02 1433.15 2149.53 1446.8 2131.75C1460.45 2113.97 1461.95 2090.86 1450.73 2071.48L772.54 897.148C631.711 653.246 423.571 493.591 151.479 420.716L-89.1805 356.213C-110.894 350.424 -132.763 357.867 -146.411 375.646C-160.06 393.529 -151.995 413.583 -150.34 435.911Z" fill="#101E2B"/>
</g>
<mask id="mask13_366_10924" style="mask-type:luminance" maskUnits="userSpaceOnUse" x="0" y="0" width="1920" height="1365">
<path d="M1919.88 0.000244141H0V1365H1919.88V0.000244141Z" fill="white"/>
</mask>
<g mask="url(#mask13_366_10924)">
<path opacity="0.5" d="M1404.04 2153.51C1399.24 2153.51 1394.32 2152.89 1389.41 2151.54L1148.75 2087.04C1093.07 2072.15 1009.89 2055.46 913.626 2036.13C722.805 1997.88 485.299 1950.23 289.825 1883.5C183.635 1847.27 100.4 1808.56 42.4967 1768.5C9.97797 1746.02 -15.458 1722.5 -33.0874 1698.68C-51.9058 1673.25 -62.4524 1646.58 -64.417 1619.55L-150.754 435.963C-151.168 430.587 -151.892 425.316 -152.667 420.25C-154.994 404.228 -157.217 389.136 -146.722 375.44C-133.022 357.557 -110.894 350.062 -89.0775 355.851L151.582 420.354C287.033 456.637 408.112 515.247 511.459 594.532C614.805 673.817 702.745 775.585 772.849 896.993L1451.04 2071.33C1462.31 2090.86 1460.81 2114.12 1447.06 2132.06C1436.41 2145.96 1420.69 2153.56 1404.04 2153.56V2153.51ZM-149.979 435.859L-63.6415 1619.5C-59.8675 1671.7 -23.9883 1721.63 42.962 1767.88C100.813 1807.89 183.945 1846.55 290.084 1882.78C485.454 1949.51 722.96 1997.11 913.781 2035.35C1010.1 2054.68 1093.28 2071.33 1148.96 2086.26L1389.62 2150.77C1411.07 2156.56 1432.89 2149.16 1446.44 2131.49C1459.98 2113.86 1461.48 2090.92 1450.37 2071.64L772.177 897.303C631.659 653.97 422.795 493.746 151.323 421.026L-89.336 356.523C-110.843 350.786 -132.66 358.177 -146.153 375.801C-156.441 389.24 -154.218 404.176 -151.944 420.044C-151.22 425.161 -150.444 430.432 -150.031 435.808L-149.979 435.859ZM1258.05 1564.45C1250.96 1564.45 1243.72 1563.06 1236.75 1560.16C1215.86 1551.53 1202.88 1532.15 1202.88 1509.56V1260.44C1202.88 1120.27 1228.16 988.217 1278 867.842C1327.84 747.52 1403.37 636.242 1502.53 537.11L1639.48 400.197C1655.2 384.536 1659.7 362.001 1651.16 341.379C1642.63 320.809 1623.56 308.042 1601.33 308.042H815.76C675.5 308.042 543.409 282.768 423.054 232.944C302.75 183.068 191.493 107.556 92.3346 8.42465L-83.8559 -167.718C-99.7792 -183.688 -104.329 -206.533 -95.7466 -227.362C-87.1129 -248.243 -67.7257 -261.216 -45.1332 -261.216H1311.24C1439.04 -261.216 1560.23 -240.232 1671.53 -198.832C1782.84 -157.432 1886.86 -94.6869 1980.69 -12.2493C2001.99 6.46063 2034.41 5.37521 2054.52 -14.6785L2461.7 -421.698C2477.63 -437.72 2500.53 -442.268 2521.36 -433.585C2542.25 -424.954 2555.17 -405.624 2555.17 -383.037V-133.916C2555.17 6.30554 2529.89 138.361 2480.06 258.683C2430.22 379.006 2354.69 490.284 2255.53 589.364L1296.41 1548.22C1285.81 1558.82 1272.11 1564.4 1258.05 1564.4V1564.45ZM-45.1332 -260.441C-67.4155 -260.441 -86.5442 -247.674 -95.0228 -227.104C-103.553 -206.533 -99.0554 -184.05 -83.3389 -168.286L92.8516 7.85611C291.531 206.481 534.775 307.215 815.811 307.215H1601.38C1623.92 307.215 1643.31 320.188 1651.94 341.069C1660.57 361.95 1656.02 384.795 1640.05 400.714L1503.1 537.627C1304.42 736.356 1203.66 979.533 1203.66 1260.39V1509.51C1203.66 1531.79 1216.43 1550.91 1237 1559.44C1257.58 1567.97 1280.07 1563.47 1295.84 1547.76L2254.96 588.898C2453.64 390.273 2554.4 147.095 2554.4 -133.864V-382.986C2554.4 -405.262 2541.63 -424.334 2521.05 -432.81C2500.53 -441.39 2477.99 -436.893 2462.22 -421.129L2055.04 -14.11C2034.67 6.25388 2001.79 7.33923 1980.18 -11.6292C1792.2 -176.711 1567.1 -260.389 1311.24 -260.389H-45.1332V-260.441Z" fill="url(#paint3_linear_366_10924)"/>
</g>
</g>
</g>
</g>
</g>
<defs>
<filter id="filter0_f_366_10924" x="-266.667" y="-266.667" width="2325.79" height="1898.33" filterUnits="userSpaceOnUse" color-interpolation-filters="sRGB">
<feFlood flood-opacity="0" result="BackgroundImageFix"/>
<feBlend mode="normal" in="SourceGraphic" in2="BackgroundImageFix" result="shape"/>
<feGaussianBlur stdDeviation="133.333" result="effect1_foregroundBlur_366_10924"/>
</filter>
<linearGradient id="paint0_linear_366_10924" x1="159.951" y1="-174.903" x2="1153.39" y2="57.0955" gradientUnits="userSpaceOnUse">
<stop offset="0.14" stop-color="#4EEC91"/>
<stop offset="0.89" stop-color="#13B0F9"/>
</linearGradient>
<linearGradient id="paint1_linear_366_10924" x1="724.044" y1="1222.04" x2="-33.0756" y2="538.459" gradientUnits="userSpaceOnUse">
<stop offset="0.14" stop-color="#4EEC91"/>
<stop offset="0.89" stop-color="#13B0F9"/>
</linearGradient>
<linearGradient id="paint2_linear_366_10924" x1="1702.4" y1="602.239" x2="1314.19" y2="1308.28" gradientUnits="userSpaceOnUse">
<stop offset="0.14" stop-color="#4EEC91"/>
<stop offset="0.89" stop-color="#13B0F9"/>
</linearGradient>
<linearGradient id="paint3_linear_366_10924" x1="-154.58" y1="857.815" x2="2555.23" y2="857.815" gradientUnits="userSpaceOnUse">
<stop stop-color="#4EEC91"/>
<stop offset="1" stop-color="#13B0F9"/>
</linearGradient>
</defs>
</svg>
