<svg width="375" height="267" viewBox="0 0 375 267" fill="none" xmlns="http://www.w3.org/2000/svg">
<mask id="mask0_366_10927" style="mask-type:luminance" maskUnits="userSpaceOnUse" x="0" y="0" width="375" height="267">
<path d="M374.976 0H0V267H374.976V0Z" fill="white"/>
</mask>
<g mask="url(#mask0_366_10927)">
<mask id="mask1_366_10927" style="mask-type:luminance" maskUnits="userSpaceOnUse" x="0" y="0" width="375" height="267">
<path d="M374.976 0H0V267H374.976V0Z" fill="white"/>
</mask>
<g mask="url(#mask1_366_10927)">
<mask id="mask2_366_10927" style="mask-type:luminance" maskUnits="userSpaceOnUse" x="0" y="0" width="375" height="267">
<path d="M374.976 0H0V267H374.976V0Z" fill="white"/>
</mask>
<g mask="url(#mask2_366_10927)">
<mask id="mask3_366_10927" style="mask-type:luminance" maskUnits="userSpaceOnUse" x="0" y="0" width="375" height="267">
<path d="M374.976 0H0V267H374.976V0Z" fill="white"/>
</mask>
<g mask="url(#mask3_366_10927)">
<mask id="mask4_366_10927" style="mask-type:luminance" maskUnits="userSpaceOnUse" x="0" y="0" width="375" height="267">
<path d="M374.976 0H0V267H374.976V0Z" fill="white"/>
</mask>
<g mask="url(#mask4_366_10927)">
<path d="M374.976 0H0V267H374.976V0Z" fill="#0F1D2A"/>
</g>
<mask id="mask5_366_10927" style="mask-type:luminance" maskUnits="userSpaceOnUse" x="0" y="0" width="375" height="267">
<path d="M374.976 0H0V267H374.976V0Z" fill="white"/>
</mask>
<g mask="url(#mask5_366_10927)">
<g filter="url(#filter0_f_366_10927)">
<mask id="mask6_366_10927" style="mask-type:luminance" maskUnits="userSpaceOnUse" x="0" y="0" width="375" height="74">
<path d="M374.976 0H0V73.7526H374.976V0Z" fill="white"/>
</mask>
<g mask="url(#mask6_366_10927)">
<path opacity="0.4" d="M114.989 45.3512C168.573 57.8773 217.95 42.5636 225.276 11.1471C232.601 -20.2694 195.102 -55.8919 141.518 -68.4181C87.9336 -80.9442 38.5564 -65.6305 31.2306 -34.214C23.9048 -2.79747 61.4046 32.8251 114.989 45.3512Z" fill="url(#paint0_linear_366_10927)"/>
</g>
<mask id="mask7_366_10927" style="mask-type:luminance" maskUnits="userSpaceOnUse" x="0" y="0" width="375" height="118">
<path d="M374.976 0H0V117.503H374.976V0Z" fill="white"/>
</mask>
<g mask="url(#mask7_366_10927)">
<path opacity="0.4" d="M195.637 79.8558C247.162 79.8558 288.931 53.6956 288.931 21.4255C288.931 -10.8447 247.162 -37.0049 195.637 -37.0049C144.111 -37.0049 102.342 -10.8447 102.342 21.4255C102.342 53.6956 144.111 79.8558 195.637 79.8558Z" fill="#13B0F9" fill-opacity="0.32"/>
</g>
<mask id="mask8_366_10927" style="mask-type:luminance" maskUnits="userSpaceOnUse" x="0" y="0" width="133" height="267">
<path d="M132.499 0H0V267H132.499V0Z" fill="white"/>
</mask>
<g mask="url(#mask8_366_10927)">
<path opacity="0.4" d="M8.49993 187.07C54.5844 210.144 101.256 210.203 112.744 187.201C124.231 164.2 96.185 126.849 50.1005 103.775C4.01607 80.701 -42.6554 80.642 -54.1431 103.643C-65.6308 126.644 -37.5845 163.996 8.49993 187.07Z" fill="#13B0F9" fill-opacity="0.32"/>
</g>
<mask id="mask9_366_10927" style="mask-type:luminance" maskUnits="userSpaceOnUse" x="0" y="91" width="169" height="176">
<path d="M168.11 91.9338H0V267H168.11V91.9338Z" fill="white"/>
</mask>
<g mask="url(#mask9_366_10927)">
<path opacity="0.4" d="M141.414 239.021C163.004 215.073 147.394 165.734 106.547 128.82C65.7004 91.9062 15.0855 81.3957 -6.50452 105.344C-28.0945 129.293 -12.4839 178.631 28.3627 215.545C69.2093 252.459 119.824 262.97 141.414 239.021Z" fill="url(#paint1_linear_366_10927)"/>
</g>
<mask id="mask10_366_10927" style="mask-type:luminance" maskUnits="userSpaceOnUse" x="234" y="83" width="141" height="184">
<path d="M374.976 83.1965H234.648V267H374.976V83.1965Z" fill="white"/>
</mask>
<g mask="url(#mask10_366_10927)">
<path opacity="0.4" d="M334.704 208.971C355.671 170.8 355.14 130.205 333.518 118.298C311.896 106.392 277.37 127.683 256.402 165.853C235.435 204.024 235.966 244.619 257.588 256.526C279.211 268.432 313.737 247.141 334.704 208.971Z" fill="url(#paint2_linear_366_10927)"/>
</g>
<mask id="mask11_366_10927" style="mask-type:luminance" maskUnits="userSpaceOnUse" x="230" y="95" width="128" height="172">
<path d="M357.716 95.3389H230.671V267H357.716V95.3389Z" fill="white"/>
</mask>
<g mask="url(#mask11_366_10927)">
<path opacity="0.4" d="M318.526 224.191C339.494 186.021 341.373 146.752 322.723 136.483C304.074 126.214 271.958 148.832 250.99 187.002C230.023 225.172 228.144 264.441 246.793 274.71C265.443 284.98 297.559 262.361 318.526 224.191Z" fill="#13B0F9"/>
</g>
</g>
</g>
<mask id="mask12_366_10927" style="mask-type:luminance" maskUnits="userSpaceOnUse" x="0" y="0" width="375" height="267">
<path d="M374.976 0H0V267H374.976V0Z" fill="white"/>
</mask>
<g mask="url(#mask12_366_10927)">
<path fill-rule="evenodd" clip-rule="evenodd" d="M-8.81464 -51.0142H256.103C306.237 -51.0142 349.989 -34.7071 386.804 -2.33548C391.015 1.36471 397.356 1.16251 401.325 -2.81064L480.852 -82.4254C483.952 -85.5392 488.365 -86.4187 492.424 -84.7304C496.493 -83.0522 498.987 -79.3014 498.987 -74.9138V-26.1946C498.987 28.8937 479.378 76.2885 440.483 115.242L253.154 302.799C250.054 305.902 245.642 306.782 241.583 305.104C237.513 303.426 235.019 299.675 235.019 295.277V246.548C235.019 191.47 254.629 144.075 293.524 105.112L320.272 78.3307C323.382 75.227 324.251 70.809 322.574 66.7448C320.898 62.6908 317.152 60.1735 312.77 60.1735H159.339C104.328 60.1735 56.9805 40.5402 18.085 1.59724L-16.3272 -32.8671C-19.4271 -35.9708 -20.3056 -40.3888 -18.6294 -44.4529C-16.9532 -48.5272 -13.207 -51.0243 -8.81464 -51.0243V-51.0142ZM-29.363 85.266L-12.5002 316.791C-8.51171 371.727 171.254 393.908 224.397 408.163L271.4 420.78C275.641 421.923 279.913 420.457 282.578 416.979C285.244 413.501 285.537 408.982 283.346 405.191L150.887 175.486C123.381 127.778 82.7291 96.5486 29.5861 82.2937L-17.4177 69.6767C-21.6586 68.5444 -25.9299 70.0002 -28.5956 73.478C-31.2613 76.976 -29.6861 80.8986 -29.363 85.266Z" fill="#101E2B"/>
</g>
<mask id="mask13_366_10927" style="mask-type:luminance" maskUnits="userSpaceOnUse" x="0" y="0" width="375" height="267">
<path d="M374.976 0H0V267H374.976V0Z" fill="white"/>
</mask>
<g mask="url(#mask13_366_10927)">
<path opacity="0.5" d="M274.227 421.235C273.288 421.235 272.329 421.114 271.369 420.851L224.366 408.234C213.491 405.322 197.244 402.057 178.442 398.276C141.173 390.795 94.7849 381.473 56.6063 368.422C35.8661 361.335 19.6092 353.762 8.30001 345.927C1.9487 341.53 -3.01926 336.93 -6.4625 332.269C-10.138 327.295 -12.1979 322.078 -12.5816 316.791L-29.4444 85.2762C-29.5251 84.2248 -29.6665 83.1936 -29.818 82.2029C-30.2723 79.0688 -30.7065 76.1168 -28.6567 73.4377C-25.9809 69.9397 -21.6592 68.4737 -17.3981 69.606L29.6057 82.2231C56.0611 89.3202 79.7093 100.785 99.8942 116.293C120.079 131.802 137.255 151.708 150.947 175.456L283.406 405.161C285.607 408.982 285.314 413.532 282.628 417.04C280.548 419.759 277.478 421.245 274.227 421.245V421.235ZM-29.2929 85.256L-12.4301 316.781C-11.693 326.992 -4.68534 336.758 8.39088 345.806C19.69 353.631 35.9267 361.193 56.6568 368.28C94.8152 381.332 141.203 390.643 178.473 398.124C197.284 401.905 213.531 405.161 224.406 408.082L271.41 420.699C275.6 421.832 279.861 420.386 282.507 416.928C285.153 413.481 285.445 408.992 283.274 405.221L150.816 175.516C123.371 127.919 82.577 96.579 29.5552 82.3545L-17.4486 69.7375C-21.6491 68.6153 -25.9102 70.061 -28.5457 73.5084C-30.5551 76.137 -30.1209 79.0587 -29.6766 82.1624C-29.5352 83.1633 -29.3838 84.1945 -29.303 85.2459L-29.2929 85.256ZM245.712 306.014C244.328 306.014 242.915 305.741 241.552 305.175C237.472 303.486 234.938 299.695 234.938 295.277V246.548C234.938 219.13 239.875 193.3 249.609 169.754C259.343 146.218 274.096 124.452 293.463 105.061L320.211 78.2803C323.281 75.217 324.159 70.8091 322.493 66.7753C320.827 62.7516 317.101 60.2545 312.759 60.2545H159.328C131.933 60.2545 106.134 55.3108 82.6275 45.5649C59.1307 35.809 37.4009 21.0385 18.034 1.64792L-16.3782 -32.8063C-19.4882 -35.9302 -20.3768 -40.3988 -18.7006 -44.473C-17.0144 -48.5574 -13.2278 -51.095 -8.81521 -51.095H256.102C281.063 -51.095 304.732 -46.9904 326.471 -38.8924C348.211 -30.7945 368.527 -18.5211 386.854 -2.396C391.014 1.26375 397.346 1.05144 401.273 -2.87117L480.801 -82.4859C483.911 -85.6199 488.384 -86.5096 492.454 -84.8112C496.533 -83.1228 499.057 -79.3418 499.057 -74.9238V-26.1945C499.057 1.23341 494.12 27.064 484.386 50.5996C474.652 74.1352 459.899 95.9016 440.532 115.282L253.204 302.839C251.134 304.912 248.458 306.004 245.712 306.004V306.014ZM-8.81521 -50.9433C-13.1672 -50.9433 -16.9033 -48.4462 -18.5593 -44.4225C-20.2254 -40.3988 -19.3469 -36.001 -16.2772 -32.9175L18.1349 1.53671C56.9395 40.3887 104.448 60.0927 159.338 60.0927H312.769C317.172 60.0927 320.958 62.6303 322.644 66.7146C324.331 70.799 323.442 75.2675 320.322 78.3813L293.574 105.162C254.769 144.034 235.089 191.601 235.089 246.538V295.267C235.089 299.624 237.583 303.365 241.602 305.033C245.621 306.701 250.013 305.822 253.093 302.748L440.421 115.191C479.226 76.3392 498.906 28.7725 498.906 -26.1844V-74.9137C498.906 -79.271 496.412 -83.0015 492.393 -84.6595C488.384 -86.3377 483.982 -85.4582 480.902 -82.3747L401.374 -2.75996C397.396 1.2233 390.974 1.43561 386.753 -2.27469C350.039 -34.5654 306.075 -50.9332 256.102 -50.9332H-8.81521V-50.9433Z" fill="url(#paint3_linear_366_10927)"/>
</g>
</g>
</g>
</g>
</g>
<defs>
<filter id="filter0_f_366_10927" x="-52.0833" y="-52.0833" width="454.256" height="371.167" filterUnits="userSpaceOnUse" color-interpolation-filters="sRGB">
<feFlood flood-opacity="0" result="BackgroundImageFix"/>
<feBlend mode="normal" in="SourceGraphic" in2="BackgroundImageFix" result="shape"/>
<feGaussianBlur stdDeviation="26.0417" result="effect1_foregroundBlur_366_10927"/>
</filter>
<linearGradient id="paint0_linear_366_10927" x1="31.2404" y1="-34.2117" x2="225.301" y2="11.0398" gradientUnits="userSpaceOnUse">
<stop offset="0.14" stop-color="#4EEC91"/>
<stop offset="0.89" stop-color="#13B0F9"/>
</linearGradient>
<linearGradient id="paint1_linear_366_10927" x1="141.415" y1="239.036" x2="-6.65838" y2="105.545" gradientUnits="userSpaceOnUse">
<stop offset="0.14" stop-color="#4EEC91"/>
<stop offset="0.89" stop-color="#13B0F9"/>
</linearGradient>
<linearGradient id="paint2_linear_366_10927" x1="332.499" y1="117.801" x2="256.504" y2="255.81" gradientUnits="userSpaceOnUse">
<stop offset="0.14" stop-color="#4EEC91"/>
<stop offset="0.89" stop-color="#13B0F9"/>
</linearGradient>
<linearGradient id="paint3_linear_366_10927" x1="-30.1916" y1="167.792" x2="499.068" y2="167.792" gradientUnits="userSpaceOnUse">
<stop stop-color="#4EEC91"/>
<stop offset="1" stop-color="#13B0F9"/>
</linearGradient>
</defs>
</svg>
