<svg width="744" height="530" viewBox="0 0 744 530" fill="none" xmlns="http://www.w3.org/2000/svg">
<mask id="mask0_366_10926" style="mask-type:luminance" maskUnits="userSpaceOnUse" x="0" y="0" width="744" height="530">
<path d="M743.952 0H0V530H743.952V0Z" fill="white"/>
</mask>
<g mask="url(#mask0_366_10926)">
<mask id="mask1_366_10926" style="mask-type:luminance" maskUnits="userSpaceOnUse" x="0" y="0" width="744" height="530">
<path d="M743.952 0H0V530H743.952V0Z" fill="white"/>
</mask>
<g mask="url(#mask1_366_10926)">
<mask id="mask2_366_10926" style="mask-type:luminance" maskUnits="userSpaceOnUse" x="0" y="0" width="744" height="530">
<path d="M743.952 0H0V530H743.952V0Z" fill="white"/>
</mask>
<g mask="url(#mask2_366_10926)">
<mask id="mask3_366_10926" style="mask-type:luminance" maskUnits="userSpaceOnUse" x="0" y="0" width="744" height="530">
<path d="M743.952 0H0V530H743.952V0Z" fill="white"/>
</mask>
<g mask="url(#mask3_366_10926)">
<mask id="mask4_366_10926" style="mask-type:luminance" maskUnits="userSpaceOnUse" x="0" y="0" width="744" height="530">
<path d="M743.952 0H0V530H743.952V0Z" fill="white"/>
</mask>
<g mask="url(#mask4_366_10926)">
<path d="M743.952 0H0V530H743.952V0Z" fill="#0F1D2A"/>
</g>
<mask id="mask5_366_10926" style="mask-type:luminance" maskUnits="userSpaceOnUse" x="0" y="0" width="744" height="530">
<path d="M743.952 0H0V530H743.952V0Z" fill="white"/>
</mask>
<g mask="url(#mask5_366_10926)">
<g filter="url(#filter0_f_366_10926)">
<mask id="mask6_366_10926" style="mask-type:luminance" maskUnits="userSpaceOnUse" x="0" y="0" width="744" height="147">
<path d="M743.952 0H0V146.4H743.952V0Z" fill="white"/>
</mask>
<g mask="url(#mask6_366_10926)">
<path opacity="0.4" d="M228.137 90.023C334.448 114.888 432.412 84.4896 446.947 22.1272C461.481 -40.2352 387.082 -110.947 280.771 -135.811C174.46 -160.676 76.4959 -130.278 61.9615 -67.9155C47.4272 -5.55308 121.827 65.1584 228.137 90.023Z" fill="url(#paint0_linear_366_10926)"/>
</g>
<mask id="mask7_366_10926" style="mask-type:luminance" maskUnits="userSpaceOnUse" x="0" y="0" width="744" height="234">
<path d="M743.952 0H0V233.246H743.952V0Z" fill="white"/>
</mask>
<g mask="url(#mask7_366_10926)">
<path opacity="0.4" d="M388.143 158.515C490.369 158.515 573.24 106.587 573.24 42.53C573.24 -21.5269 490.369 -73.4553 388.143 -73.4553C285.917 -73.4553 203.046 -21.5269 203.046 42.53C203.046 106.587 285.917 158.515 388.143 158.515Z" fill="#13B0F9" fill-opacity="0.32"/>
</g>
<mask id="mask8_366_10926" style="mask-type:luminance" maskUnits="userSpaceOnUse" x="0" y="0" width="263" height="530">
<path d="M262.878 0H0V530H262.878V0Z" fill="white"/>
</mask>
<g mask="url(#mask8_366_10926)">
<path opacity="0.4" d="M16.8626 371.337C108.294 417.139 200.89 417.256 223.682 371.598C246.473 325.941 190.83 251.798 99.3982 205.995C7.96663 160.193 -84.6295 160.076 -107.421 205.734C-130.213 251.391 -74.569 325.534 16.8626 371.337Z" fill="#13B0F9" fill-opacity="0.32"/>
</g>
<mask id="mask9_366_10926" style="mask-type:luminance" maskUnits="userSpaceOnUse" x="0" y="182" width="334" height="348">
<path d="M333.531 182.49H0V530H333.531V182.49Z" fill="white"/>
</mask>
<g mask="url(#mask9_366_10926)">
<path opacity="0.4" d="M280.566 474.462C323.4 426.924 292.429 328.985 211.389 255.71C130.349 182.436 29.9296 161.572 -12.905 209.11C-55.7396 256.648 -24.7682 354.587 56.2715 427.862C137.311 501.137 237.731 522 280.566 474.462Z" fill="url(#paint1_linear_366_10926)"/>
</g>
<mask id="mask10_366_10926" style="mask-type:luminance" maskUnits="userSpaceOnUse" x="465" y="165" width="279" height="365">
<path d="M743.952 165.147H465.543V530H743.952V165.147Z" fill="white"/>
</mask>
<g mask="url(#mask10_366_10926)">
<path opacity="0.4" d="M664.053 414.811C705.653 339.042 704.599 258.459 661.701 234.825C618.802 211.19 550.302 253.453 508.703 329.222C467.104 404.991 468.157 485.574 511.056 509.208C553.955 532.843 622.454 490.579 664.053 414.811Z" fill="url(#paint2_linear_366_10926)"/>
</g>
<mask id="mask11_366_10926" style="mask-type:luminance" maskUnits="userSpaceOnUse" x="457" y="189" width="253" height="341">
<path d="M709.708 189.249H457.65V530H709.708V189.249Z" fill="white"/>
</mask>
<g mask="url(#mask11_366_10926)">
<path opacity="0.4" d="M631.956 445.024C673.556 369.255 677.283 291.306 640.283 270.921C603.282 250.536 539.564 295.434 497.965 371.203C456.365 446.972 452.638 524.92 489.638 545.305C526.639 565.69 590.357 520.792 631.956 445.024Z" fill="#13B0F9"/>
</g>
</g>
</g>
<mask id="mask12_366_10926" style="mask-type:luminance" maskUnits="userSpaceOnUse" x="0" y="0" width="744" height="530">
<path d="M743.952 0H0V530H743.952V0Z" fill="white"/>
</mask>
<g mask="url(#mask12_366_10926)">
<path fill-rule="evenodd" clip-rule="evenodd" d="M-17.4887 -101.264H508.107C607.573 -101.264 694.378 -68.894 767.419 -4.63579C775.773 2.70915 788.354 2.3078 796.227 -5.57899L954.01 -163.616C960.161 -169.797 968.915 -171.543 976.969 -168.191C985.042 -164.86 989.99 -157.415 989.99 -148.705V-51.9966C989.99 57.3548 951.086 151.434 873.917 228.757L502.258 601.061C496.107 607.222 487.353 608.968 479.299 605.637C471.226 602.305 466.278 594.86 466.278 586.131V489.402C466.278 380.071 505.182 285.991 582.351 208.649L635.419 155.488C641.59 149.327 643.313 140.557 639.987 132.49C636.661 124.443 629.229 119.446 620.535 119.446H316.127C206.985 119.446 113.049 80.4733 35.8802 3.17072L-32.3935 -65.2416C-38.5438 -71.4025 -40.2867 -80.1723 -36.9612 -88.2397C-33.6356 -96.3272 -26.2032 -101.284 -17.4887 -101.284V-101.264ZM-58.2566 169.255L-24.8009 628.836C-16.8877 737.886 339.767 781.916 445.202 810.212L538.458 835.257C546.872 837.524 555.346 834.614 560.635 827.711C565.924 820.808 566.505 811.837 562.157 804.312L299.359 348.343C244.788 253.641 164.134 191.651 58.6983 163.355L-34.5572 138.31C-42.9712 136.062 -51.4453 138.952 -56.7341 145.855C-62.0229 152.799 -58.8977 160.585 -58.2566 169.255Z" fill="#101E2B"/>
</g>
<mask id="mask13_366_10926" style="mask-type:luminance" maskUnits="userSpaceOnUse" x="0" y="0" width="744" height="530">
<path d="M743.952 0H0V530H743.952V0Z" fill="white"/>
</mask>
<g mask="url(#mask13_366_10926)">
<path opacity="0.5" d="M544.067 836.16C542.204 836.16 540.3 835.919 538.397 835.397L445.142 810.352C423.566 804.572 391.332 798.09 354.03 790.585C280.087 775.734 188.053 757.232 112.307 731.324C71.1586 717.256 38.9049 702.225 16.4675 686.672C3.86646 677.942 -5.98997 668.811 -12.8214 659.56C-20.1135 649.686 -24.2003 639.331 -24.9616 628.836L-58.4173 169.275C-58.5776 167.188 -58.8581 165.141 -59.1586 163.174C-60.0601 156.953 -60.9215 151.093 -56.8547 145.775C-51.5459 138.831 -42.9716 135.922 -34.5175 138.169L58.7379 163.214C111.225 177.302 158.144 200.059 198.19 230.844C238.237 261.628 272.314 301.143 299.479 348.283L562.277 804.251C566.644 811.837 566.063 820.868 560.734 827.831C556.608 833.23 550.517 836.18 544.067 836.18V836.16ZM-58.1168 169.235L-24.6611 628.815C-23.1987 649.084 -9.29548 668.47 16.6478 686.431C39.0651 701.964 71.2788 716.975 112.407 731.043C188.114 756.951 280.147 775.433 354.09 790.284C391.412 797.789 423.646 804.251 445.222 810.051L538.477 835.096C546.791 837.344 555.245 834.474 560.494 827.611C565.743 820.767 566.324 811.857 562.017 804.372L299.219 348.403C244.768 253.922 163.833 191.711 58.6377 163.475L-34.6177 138.43C-42.9516 136.203 -51.4057 139.072 -56.6344 145.915C-60.621 151.133 -59.7596 156.933 -58.8781 163.094C-58.5976 165.081 -58.2972 167.128 -58.1369 169.215L-58.1168 169.235ZM487.492 607.443C484.748 607.443 481.943 606.901 479.239 605.777C471.145 602.426 466.117 594.9 466.117 586.131V489.402C466.117 434.977 475.913 383.703 495.225 336.964C514.538 290.246 543.806 247.039 582.23 208.548L635.299 155.388C641.389 149.307 643.132 140.557 639.826 132.55C636.521 124.563 629.128 119.606 620.514 119.606H316.107C261.756 119.606 210.571 109.793 163.933 90.4471C117.316 71.0813 74.2037 41.7618 35.7796 3.27104L-32.4941 -65.1212C-38.6644 -71.3223 -40.4274 -80.1924 -37.1018 -88.2799C-33.7562 -96.3874 -26.2437 -101.425 -17.4891 -101.425H508.107C557.629 -101.425 604.588 -93.2769 647.72 -77.2023C690.851 -61.1277 731.159 -36.7649 767.519 -4.75623C775.773 2.50845 788.334 2.08702 796.127 -5.69943L953.91 -163.736C960.08 -169.957 968.955 -171.723 977.028 -168.352C985.122 -165 990.13 -157.495 990.13 -148.725V-51.9967C990.13 2.44824 980.334 53.7224 961.022 100.441C941.709 147.16 912.441 190.366 874.017 228.837L502.357 601.141C498.25 605.255 492.942 607.423 487.492 607.423V607.443ZM-17.4891 -101.124C-26.1235 -101.124 -33.5359 -96.1667 -36.8214 -88.1795C-40.1269 -80.1924 -38.384 -71.4628 -32.2938 -65.342L35.98 3.05029C112.968 80.1722 207.225 119.285 316.127 119.285H620.534C629.269 119.285 636.781 124.322 640.127 132.43C643.472 140.537 641.71 149.407 635.519 155.588L582.451 208.749C505.462 285.911 466.417 380.332 466.417 489.382V586.11C466.417 594.76 471.366 602.185 479.339 605.496C487.312 608.808 496.027 607.062 502.137 600.961L873.796 228.656C950.785 151.535 989.83 57.1139 989.83 -51.9766V-148.705C989.83 -157.354 984.881 -164.76 976.908 -168.051C968.955 -171.382 960.22 -169.636 954.11 -163.515L796.327 -5.47868C788.434 2.42818 775.693 2.84959 767.319 -4.51541C694.477 -68.6131 607.252 -101.103 508.107 -101.103H-17.4891V-101.124Z" fill="url(#paint3_linear_366_10926)"/>
</g>
</g>
</g>
</g>
</g>
<defs>
<filter id="filter0_f_366_10926" x="-103.333" y="-103.333" width="901.243" height="736.667" filterUnits="userSpaceOnUse" color-interpolation-filters="sRGB">
<feFlood flood-opacity="0" result="BackgroundImageFix"/>
<feBlend mode="normal" in="SourceGraphic" in2="BackgroundImageFix" result="shape"/>
<feGaussianBlur stdDeviation="51.6667" result="effect1_foregroundBlur_366_10926"/>
</filter>
<linearGradient id="paint0_linear_366_10926" x1="61.981" y1="-67.9109" x2="447.017" y2="21.8267" gradientUnits="userSpaceOnUse">
<stop offset="0.14" stop-color="#4EEC91"/>
<stop offset="0.89" stop-color="#13B0F9"/>
</linearGradient>
<linearGradient id="paint1_linear_366_10926" x1="280.567" y1="474.49" x2="-13.3455" y2="209.659" gradientUnits="userSpaceOnUse">
<stop offset="0.14" stop-color="#4EEC91"/>
<stop offset="0.89" stop-color="#13B0F9"/>
</linearGradient>
<linearGradient id="paint2_linear_366_10926" x1="659.68" y1="233.836" x2="508.786" y2="507.723" gradientUnits="userSpaceOnUse">
<stop offset="0.14" stop-color="#4EEC91"/>
<stop offset="0.89" stop-color="#13B0F9"/>
</linearGradient>
<linearGradient id="paint3_linear_366_10926" x1="-59.8998" y1="333.071" x2="990.15" y2="333.071" gradientUnits="userSpaceOnUse">
<stop stop-color="#4EEC91"/>
<stop offset="1" stop-color="#13B0F9"/>
</linearGradient>
</defs>
</svg>
